<?xml version="1.0" standalone="no"?>
<!DOCTYPE svg PUBLIC "-//W3C//DTD SVG 1.1//EN" "http://www.w3.org/Graphics/SVG/1.1/DTD/svg11.dtd" >
<svg xmlns="http://www.w3.org/2000/svg" xmlns:xlink="http://www.w3.org/1999/xlink" version="1.1">
<metadata>
Created by FontForge 20170731 at Sat Feb 15 12:00:28 2014
 By Aleksey,,,
Copyright (c) 1990 ParaGraph Intl., (c) 1998 ParaType Inc., ParaType Ltd. All rights reserved.
</metadata>
<defs>
<font id="PragmaticaExtended-Bold" horiz-adv-x="755" >
  <font-face 
    font-family="Pragmatica Extended"
    font-weight="700"
    font-stretch="expanded"
    units-per-em="1000"
    panose-1="2 11 7 5 4 5 2 2 2 4"
    ascent="800"
    descent="-200"
    x-height="508"
    cap-height="700"
    bbox="-418 -292 1540 1001"
    underline-thickness="50"
    underline-position="-250"
    unicode-range="U+000D-FB02"
  />
<missing-glyph horiz-adv-x="500" 
d="M58 8h384v496h-384v-496zM50 0v512h400v-512h-400z" />
    <glyph glyph-name="afii10017.var.accented" unicode="&#x410;`" horiz-adv-x="790" 
d="M289 262h214l-108 262zM244 142l-61 -142h-192l314 700h181l314 -700h-192l-61 142h-303zM352 910h165l-127 -144h-118z" />
    <glyph glyph-name="afii10022.var.accented" unicode="&#x415;`" horiz-adv-x="748" 
d="M259 422h384v-132h-384v-150h465v-140h-649v700h638v-140h-454v-138zM331 910h165l-127 -144h-118z" />
    <glyph glyph-name="afii10026.var.accented" unicode="&#x418;`" horiz-adv-x="868" 
d="M259 231l345 469h185v-700h-184v473l-344 -473h-186v700h184v-469zM391 910h165l-127 -144h-118z" />
    <glyph glyph-name="afii10032.var.accented" unicode="&#x41e;`" horiz-adv-x="919" 
d="M458 580q-97 0 -152 -54q-64 -61 -64 -176t64 -176q55 -54 152 -54t152 54q64 61 64 176t-64 176q-55 54 -152 54zM874 350q0 -171 -110 -268q-113 -102 -306 -102t-306 102q-110 97 -110 268q0 167 110 268q113 102 306 102t306 -102q110 -101 110 -268zM417 910h165
l-127 -144h-118z" />
    <glyph glyph-name="afii10037.var.accented" unicode="&#x423;`" horiz-adv-x="689" 
d="M367 343l148 357h184l-255 -536q-45 -96 -77 -124q-35 -33 -72.5 -43t-91.5 -10q-71 0 -119 17v137q31 -14 70 -14t60 13q6 3 10.5 7.5l7.5 7.5t6.5 9t5 8.5t4.5 9t3 7.5l8 19l-255 492h201zM302 910h165l-127 -144h-118z" />
    <glyph glyph-name="afii10045.var.accented" unicode="&#x42b;`" horiz-adv-x="1079" 
d="M259 310v-176h181q64 0 93 23q30 26 30 70q0 41 -31 63q-25 20 -89 20h-184zM259 700v-260h209q137 0 208 -55q70 -54 70 -160q0 -128 -91 -185q-62 -40 -210 -40h-370v700h184zM816 700h184v-700h-184v700zM497 910h165l-127 -144h-118z" />
    <glyph glyph-name="afii10047.var.accented" unicode="&#x42d;`" horiz-adv-x="872" 
d="M236 467h-192q14 129 120 196q88 55 256 55q217 0 317 -98q90 -88 90 -263q0 -190 -91 -284q-39 -42 -95 -64.5t-97 -27t-98 -4.5q-192 0 -278 49q-121 70 -128 218h192q4 -65 52 -96q44 -31 145 -31q97 0 141 39q56 48 52 130h-303v130h303q2 48 -18.5 80.5t-44.5 48.5
q-48 33 -146 33q-78 0 -121 -27q-47 -30 -56 -84zM393 910h165l-127 -144h-118z" />
    <glyph glyph-name="afii10048.var.accented" unicode="&#x42e;`" horiz-adv-x="1254" 
d="M797 580q-97 0 -150 -53q-63 -63 -63 -177q0 -113 63 -176q54 -54 152 -54q92 0 146 52q64 61 64 178q0 114 -63 177q-53 53 -149 53zM259 438h138q27 130 124 204q103 78 269 78q211 0 321 -110q98 -98 98 -257q0 -167 -104 -271q-62 -62 -139 -82t-170 -20
q-89 0 -160.5 18t-131.5 71q-101 88 -110 229h-135v-298h-184v700h184v-262zM584 910h165l-127 -144h-118z" />
    <glyph glyph-name="afii10049.var.accented" unicode="&#x42f;`" horiz-adv-x="825" 
d="M562 560h-193q-65 0 -93 -23q-29 -23 -29 -68q0 -47 35 -71q28 -19 94 -19h186v181zM562 243h-125l-171 -243h-231l217 263q-42 4 -82 22t-65 44q-48 50 -48 141q0 103 60 161q71 69 219 69h410v-700h-184v243zM370 910h165l-127 -144h-118z" />
    <glyph glyph-name="afii10065.var.accented" unicode="&#x430;`" horiz-adv-x="708" 
d="M457 226v8q-14 -12 -31.5 -16.5t-59.5 -8.5l-37 -4q-51 -5 -71 -18q-24 -19 -24 -43q0 -27 21 -43q20 -16 67 -16q64 0 99 35q36 36 36 106zM249 344h-178q0 70 49 119q39 38 94.5 51t136.5 13q177 0 241 -67q19 -20 29.5 -47t12 -45t1.5 -47v-226q0 -37 8 -61
q10 -17 28 -20v-14h-192l-11 50h-4q-29 -37 -79 -54q-46 -15 -121 -15q-111 0 -158 32q-59 42 -59 121q0 63 38 100q22 21 61 34t60.5 16t64.5 7l80 7q31 3 43.5 4t27.5 5.5t22 12.5q12 12 12 33q0 32 -32 50q-24 14 -70 14q-50 0 -76 -18q-28 -22 -29 -55zM351 712h165
l-127 -144h-118z" />
    <glyph glyph-name="afii10070.var.accented" unicode="&#x435;`" horiz-adv-x="721" 
d="M220 311h281q-4 52 -36 78q-34 30 -104 30q-63 0 -99 -28q-38 -31 -42 -80zM498 166h177q-12 -114 -110 -158q-62 -27 -191 -27q-98 0 -160 15t-107 60q-70 70 -70 190q0 129 76 202q83 79 247 79q171 0 253 -82q69 -69 69 -206v-18h-465v-3q0 -58 33 -91q34 -34 112 -34
q62 0 91 14q36 17 45 59zM358 712h165l-127 -144h-118z" />
    <glyph glyph-name="afii10074.var.accented" unicode="&#x438;`" horiz-adv-x="746" 
d="M237 168l259 340h185v-508h-176v340l-260 -340h-184v508h176v-340zM370 712h165l-127 -144h-118z" />
    <glyph glyph-name="afii10080.var.accented" unicode="&#x43e;`" horiz-adv-x="740" 
d="M369 413q-70 0 -108 -38q-42 -42 -42 -121t42 -121q38 -38 108 -38t108 38q42 42 42 121t-42 121q-38 38 -108 38zM701 254q0 -135 -88 -206q-83 -67 -244 -67t-244 67q-88 71 -88 206t88 206q85 67 244 67t244 -67q88 -71 88 -206zM367 712h165l-127 -144h-118z" />
    <glyph glyph-name="afii10085.var.accented" unicode="&#x443;`" horiz-adv-x="599" 
d="M59 -177v109q28 -9 53 -9q39 0 60 17q23 19 38 61l10 30l-216 477h177l135 -339l118 339h165l-216 -517q-2 -5 -11 -25t-12 -26.5t-11 -22.5t-13 -24t-13.5 -18.5t-16.5 -18.5q-31 -29 -65 -38t-81 -9q-58 0 -101 14zM297 712h165l-127 -144h-118z" />
    <glyph glyph-name="afii10093.var.accented" unicode="&#x44b;`" horiz-adv-x="921" 
d="M237 222v-118h120q47 0 67 13q23 15 23 48q0 36 -27 48q-18 9 -66 9h-117zM237 508v-182h166q115 0 164 -41q51 -42 51 -122q0 -86 -62 -129q-51 -34 -157 -34h-338v508h176zM680 508h176v-508h-176v508zM458 712h165l-127 -144h-118z" />
    <glyph glyph-name="afii10095.var.accented" unicode="&#x44d;`" horiz-adv-x="696" 
d="M263 206v102h212q-1 52 -41 82q-33 24 -99 24q-61 0 -93 -23q-29 -20 -37 -59h-170q6 94 89 149q67 45 206 45q174 0 257 -80q70 -70 70 -196q0 -134 -70 -201q-45 -44 -101 -56.5t-134 -12.5q-159 0 -226 39q-92 55 -92 163v2h170q3 -43 40 -70q32 -22 98 -22
q67 0 97 28q34 30 36 86h-212zM345 712h165l-127 -144h-118z" />
    <glyph glyph-name="afii10096.var.accented" unicode="&#x44e;`" horiz-adv-x="1020" 
d="M649 418q-66 0 -105 -39q-45 -45 -45 -129q0 -80 45 -123q36 -36 107 -36q65 0 103 38q45 45 45 129q0 80 -45 123q-37 37 -105 37zM237 321h99q18 85 80 137q80 70 228 70q171 0 261 -83q76 -72 76 -191q0 -115 -70 -189q-50 -52 -112.5 -68t-141.5 -16
q-89 0 -149.5 14.5t-109.5 63.5q-62 62 -70 152h-91v-211h-176v508h176v-187zM507 712h165l-127 -144h-118z" />
    <glyph glyph-name="afii10097.var.accented" unicode="&#x44f;`" horiz-adv-x="678" 
d="M437 406h-103q-71 0 -95 -22q-17 -17 -17 -43q0 -29 18 -45q20 -20 86 -20h111v130zM355 174l-127 -174h-191l159 188q-69 7 -106 46q-36 36 -36 105q0 87 63 132q53 37 152 37h344v-508h-176v174h-82zM336 712h165l-127 -144h-118z" />
    <glyph glyph-name="fi" unicode="fi" horiz-adv-x="753" 
d="M504 586v114h176v-114h-176zM123 508v19q0 86 43 128q49 46 156 46q58 0 108 -7v-108q-15 3 -46 3q-40 0 -62 -17t-22 -50v-14h381v-508h-176v394h-205v-394h-177v394h-109v114h109z" />
    <glyph glyph-name="fl" unicode="fl" horiz-adv-x="759" 
d="M123 508v19q0 86 42 128q46 46 156 46q61 0 108 -7v-108q-15 3 -46 3q-40 0 -62 -17t-22 -50v-14h212v192h176v-700h-176v394h-212v-394h-176v394h-109v114h109z" />
    <glyph glyph-name=".notdef" horiz-adv-x="500" 
d="M58 8h384v496h-384v-496zM50 0v512h400v-512h-400z" />
    <glyph glyph-name=".null" horiz-adv-x="0" 
 />
    <glyph glyph-name="uni000D" unicode="&#xd;" horiz-adv-x="233" 
 />
    <glyph glyph-name="NULL" horiz-adv-x="0" 
 />
    <glyph glyph-name="NULL" horiz-adv-x="0" 
 />
    <glyph glyph-name="space" unicode=" " horiz-adv-x="233" 
 />
    <glyph glyph-name="exclam" unicode="!" horiz-adv-x="407" 
d="M111 0v150h184v-150h-184zM250 237h-94l-50 248v225h195v-225z" />
    <glyph glyph-name="quotedbl" unicode="&#x22;" horiz-adv-x="544" 
d="M494 700l-54 -201h-84l-55 201h193zM244 700l-55 -201h-84l-55 201h194z" />
    <glyph glyph-name="numbersign" unicode="#" 
d="M448 268l37 176h-176l-36 -176h175zM490 21h-90l29 157h-174l-31 -157h-90l31 157h-154l18 90h153l36 176h-155l19 90h153l29 146h90l-28 -146h174l29 146h90l-28 -146h154l-17 -90h-153l-36 -176h155l-20 -90h-154z" />
    <glyph glyph-name="dollar" unicode="$" 
d="M346 440v152h-5q-49 0 -71 -14q-33 -19 -33 -59q0 -37 33 -57q23 -15 76 -22zM417 293v-171q42 -5 76 21q32 25 32 63q0 41 -37 63q-27 16 -71 24zM40 227h188q-4 -48 30 -79q35 -31 87 -26v181q-29 4 -66.5 12t-92 29.5t-80.5 47.5q-47 47 -47 125q0 83 55 135
q74 68 224 68h6v75h76v-75q42 2 93 -8.5t87 -30.5q88 -54 88 -162v-3h-182q4 41 -30 61q-23 15 -60 15v-164q176 -25 246 -95q53 -53 53 -132q0 -90 -58 -148q-75 -75 -237 -71v-84h-76v84h-9q-136 0 -215 58q-80 64 -80 183v4z" />
    <glyph glyph-name="percent" unicode="%" horiz-adv-x="1096" 
d="M824 291q-43 0 -66 -26q-26 -29 -26 -82t26 -82q23 -26 66 -26t66 26q26 29 26 82t-26 82q-23 26 -66 26zM1042 183q0 -100 -63 -154q-54 -46 -155 -46t-155 46q-63 54 -63 154t63 154q54 46 155 46q100 0 155 -46q63 -52 63 -154zM272 625q-43 0 -66 -26
q-26 -29 -26 -82t26 -82q23 -26 66 -26t66 26q26 29 26 82t-26 82q-23 26 -66 26zM490 517q0 -100 -63 -154q-54 -46 -155 -46t-155 46q-63 54 -63 154t63 154q54 46 155 46q100 0 155 -46q63 -52 63 -154zM217 0l575 709h96l-572 -709h-99z" />
    <glyph glyph-name="ampersand" unicode="&#x26;" horiz-adv-x="826" 
d="M400 458q33 12 65 34q31 23 31 53q0 28 -23 45q-19 14 -52 14q-37 0 -57 -15q-22 -17 -22 -47q0 -18 20 -45q14 -17 38 -39zM494 161l-145 156q-47 -16 -73 -40q-32 -28 -32 -72q0 -43 31 -69q30 -26 91 -26q42 0 74 13q34 14 54 38zM619 333h141q-20 -105 -83 -168
l149 -165h-188l-56 64q-44 -44 -95 -63q-47 -19 -141 -19q-132 0 -202 55q-72 59 -72 156q0 83 57 139q54 51 134 74q-71 67 -71 135q0 82 63 126q57 41 158 41q97 0 149 -36q66 -45 66 -125q0 -66 -48 -110q-37 -35 -101 -59l110 -113q21 28 30 68z" />
    <glyph glyph-name="quotesingle" unicode="'" horiz-adv-x="294" 
d="M244 700l-55 -201h-84l-55 201h194z" />
    <glyph glyph-name="parenleft" unicode="(" horiz-adv-x="454" 
d="M229 740h141q-64 -144 -84 -210q-42 -119 -42 -239q0 -116 41 -239q32 -104 85 -215h-141q-76 119 -110 207q-49 118 -49 242q0 128 55 259q34 79 104 195z" />
    <glyph glyph-name="parenright" unicode=")" horiz-adv-x="454" 
d="M70 740h141q70 -116 104 -195q55 -131 55 -259q0 -124 -49 -242q-34 -88 -110 -207h-141q59 135 85 215q41 123 41 239q0 120 -42 239q-20 66 -84 210z" />
    <glyph glyph-name="asterisk" unicode="*" horiz-adv-x="531" 
d="M266 541l-83 -112l-69 53l80 109l-128 42l29 83l128 -44v135h87v-135l127 43l28 -82l-127 -42l79 -108l-69 -53z" />
    <glyph glyph-name="plus" unicode="+" horiz-adv-x="641" 
d="M50 398h222v222h97v-222h222v-97h-222v-222h-97v222h-222v97z" />
    <glyph glyph-name="comma" unicode="," horiz-adv-x="396" 
d="M106 0v164h184v-149q0 -97 -43 -143q-45 -45 -138 -45h-3v78h6q47 0 68 23q28 28 23 72h-97z" />
    <glyph glyph-name="hyphen" unicode="-" horiz-adv-x="569" 
d="M80 231v125h409v-125h-409z" />
    <glyph glyph-name="period" unicode="." horiz-adv-x="396" 
d="M106 0v164h184v-164h-184z" />
    <glyph glyph-name="slash" unicode="/" horiz-adv-x="532" 
d="M0 -185l434 885h98l-434 -885h-98z" />
    <glyph glyph-name="zero" unicode="0" 
d="M738 351q0 -182 -96 -276q-92 -89 -264 -89t-264 89q-96 94 -96 276q0 184 96 277q92 89 264 89t264 -89q96 -93 96 -277zM378 581q-61 0 -98 -34q-64 -59 -64 -196q0 -138 64 -196q38 -34 98 -34q62 0 98 34q64 59 64 196t-64 196q-37 34 -98 34z" />
    <glyph glyph-name="one" unicode="1" 
d="M171 494v84h6q78 0 124 33q43 31 55 89h139v-700h-184v494h-140z" />
    <glyph glyph-name="two" unicode="2" 
d="M687 142v-142h-630v5q0 65 16 117.5t67 99.5q44 42 152 95l78 38q9 4 30 14t30.5 14.5t22.5 12.5t23 16q37 31 37 73q0 51 -42 75q-29 19 -92 19q-66 0 -99 -28q-34 -31 -34 -79v-7h-182v4q0 119 84 187q78 61 234 61q148 0 228 -56q89 -62 89 -176q0 -85 -53 -135
q-12 -11 -29.5 -22t-28.5 -16t-36.5 -17t-31.5 -15l-62 -29q-87 -42 -117 -61q-31 -20 -40 -48h386z" />
    <glyph glyph-name="three" unicode="3" 
d="M40 233h180v-4q0 -54 36 -82q34 -25 106 -25q71 0 104 19q41 23 41 74q0 48 -51 68q-29 11 -120 11h-38v124h39q101 0 130 25q23 20 23 53q0 43 -42 64q-33 17 -92 17q-61 0 -95 -25q-37 -27 -37 -75h-180v3q0 65 25 109.5t56 67.5q74 58 230 58q147 0 224 -46
q95 -57 95 -167q0 -61 -36 -97q-33 -33 -83 -38v-5q61 -7 101 -47q43 -43 43 -111q0 -90 -53 -145q-42 -45 -105 -60t-161 -15q-100 0 -167.5 13.5t-112.5 60.5q-60 65 -60 172v3z" />
    <glyph glyph-name="four" unicode="4" 
d="M189 281h233v254zM422 151h-392v128l398 421h176v-419h118v-130h-118v-151h-182v151z" />
    <glyph glyph-name="five" unicode="5" 
d="M59 206h176q4 -44 38 -69q34 -24 99 -24q69 0 102 31q37 31 37 98q0 58 -34 88q-37 33 -108 33q-51 0 -80 -16q-29 -15 -42 -48h-184l55 401h525v-136h-404l-22 -140q29 28 72 45q44 16 113 16q155 0 229 -72q64 -64 64 -178q0 -115 -70 -183q-33 -32 -82.5 -48.5
t-80 -18.5t-78.5 -2q-166 0 -235 44q-90 55 -90 176v3z" />
    <glyph glyph-name="six" unicode="6" 
d="M377 365q-67 0 -104 -32q-41 -38 -41 -96q0 -56 39 -93q38 -33 106 -33q71 0 109 33q39 35 39 94t-39 94q-39 33 -109 33zM705 515h-180q-5 37 -40 57q-30 16 -89 16q-79 0 -122 -38q-31 -28 -43 -71t-12 -76q60 72 192 72q137 0 213 -58q83 -65 83 -183q0 -122 -86 -190
q-35 -27 -80.5 -41.5t-76 -17t-77.5 -2.5q-55 0 -89.5 3.5t-82 22.5t-83.5 55q-86 86 -86 259q0 201 90 299q52 57 116.5 75.5t142.5 18.5q147 0 218 -41q92 -54 92 -160z" />
    <glyph glyph-name="seven" unicode="7" 
d="M72 564v136h607v-115q-72 -64 -124 -137t-80 -135q-66 -139 -76 -313h-197q22 195 100 329q72 131 189 235h-419z" />
    <glyph glyph-name="eight" unicode="8" 
d="M376 -17q-86 0 -143.5 8t-101.5 35q-94 57 -94 171q0 76 46 122q41 41 108 54q-52 7 -87 39q-39 36 -39 101q0 119 102 167q10 6 30 13t69.5 15t109.5 8q147 0 210 -36q102 -50 102 -167q0 -65 -39 -101q-35 -32 -87 -39q67 -13 108 -54q46 -46 46 -122q0 -114 -94 -171
q-44 -27 -101.5 -35t-144.5 -8zM377 302q-66 0 -104 -16q-50 -22 -50 -71q0 -48 41 -77q36 -25 113 -25t113 25q41 29 41 77q0 49 -50 71q-38 16 -104 16zM374 588q-54 0 -90 -17q-46 -22 -46 -68q0 -44 38 -65q29 -18 100 -18q72 0 101 18q38 21 38 65q0 46 -46 68
q-35 17 -95 17z" />
    <glyph glyph-name="nine" unicode="9" 
d="M376 334q70 0 107 33q39 35 39 97q0 60 -37 91q-38 33 -109 33t-109 -33q-39 -37 -39 -95t39 -93q38 -33 109 -33zM64 184h176q2 -38 39 -57q21 -16 90 -16q75 0 111 33q48 46 54 152q-60 -72 -191 -72q-141 0 -214 58q-83 65 -83 183q0 122 86 190q35 27 80.5 41.5
t76 17t76.5 2.5q81 0 142.5 -15.5t113.5 -65.5q86 -89 86 -259q0 -227 -101 -322q-47 -44 -104 -57.5t-133 -13.5q-142 0 -213 41q-88 53 -92 160z" />
    <glyph glyph-name="colon" unicode=":" horiz-adv-x="396" 
d="M106 0v164h184v-164h-184zM106 344v164h184v-164h-184z" />
    <glyph glyph-name="semicolon" unicode=";" horiz-adv-x="402" 
d="M106 0v164h184v-149q0 -97 -43 -143q-45 -45 -138 -45h-3v78h6q47 0 68 23q28 28 23 72h-97zM106 344v164h184v-164h-184z" />
    <glyph glyph-name="semicolon" unicode="&#x37e;" horiz-adv-x="402" 
d="M106 0v164h184v-149q0 -97 -43 -143q-45 -45 -138 -45h-3v78h6q47 0 68 23q28 28 23 72h-97zM106 344v164h184v-164h-184z" />
    <glyph glyph-name="less" unicode="&#x3c;" horiz-adv-x="679" 
d="M136 352l459 -262l-34 -64l-501 287v78l501 287l33 -65z" />
    <glyph glyph-name="equal" unicode="=" horiz-adv-x="629" 
d="M50 283h529v-97h-529v97zM50 486h529v-97h-529v97z" />
    <glyph glyph-name="greater" unicode="&#x3e;" horiz-adv-x="679" 
d="M519 352l-458 261l33 65l501 -287v-78l-501 -287l-34 64z" />
    <glyph glyph-name="question" unicode="?" horiz-adv-x="701" 
d="M229 478h-176v8q0 113 85 175q72 51 215 51q142 0 208 -43q87 -52 87 -157q0 -87 -79 -129l-44 -25q-8 -5 -28 -15.5t-31.5 -18.5t-20.5 -18q-27 -29 -27 -71v-10h-150v13q0 65 25 103q18 30 66 61l29 19q39 25 51 37q21 22 21 54q0 36 -36 55q-29 16 -77 16
q-58 0 -85 -22q-33 -26 -33 -79v-4zM246 0v148h184v-148h-184z" />
    <glyph glyph-name="at" unicode="@" horiz-adv-x="1059" 
d="M523 461q-45 0 -70 -24q-34 -31 -34 -93q0 -58 33 -89q26 -24 71 -24q46 0 71 25q32 30 32 89t-32 91q-28 25 -71 25zM734 73l35 -63q-105 -57 -245 -57q-231 0 -357 122q-107 107 -107 268q0 157 106 267q126 133 379 133q226 0 355 -125q53 -53 76 -111t23 -132
q0 -115 -63 -178q-53 -53 -146 -53q-53 0 -85 17q-29 15 -43 44q-56 -62 -165 -62q-111 0 -168 57q-53 53 -53 145q0 91 56 147q57 57 163 57q91 0 130 -53h5v41h134v-249q0 -35 14 -51q13 -13 35 -13q34 0 56 20q5 3 14 14.5t19 42t10 68.5q0 113 -78 198q-95 104 -295 104
t-304 -104q-88 -88 -88 -223q0 -122 84 -211q105 -108 297 -108q121 0 206 48z" />
    <glyph glyph-name="A" unicode="A" horiz-adv-x="790" 
d="M289 262h214l-108 262zM244 142l-61 -142h-192l314 700h181l314 -700h-192l-61 142h-303z" />
    <glyph glyph-name="B" unicode="B" horiz-adv-x="823" 
d="M259 296v-166h196q69 0 84 15q35 23 35 68q0 48 -35 68q-27 15 -87 15h-193zM259 570v-148h165q74 0 99 21q23 19 23 56q0 35 -28 56q-21 15 -84 15h-175zM75 700h404q135 0 188 -36q68 -47 68 -141q0 -70 -42 -110q-17 -15 -40 -26t-37 -14t-19 -3v-4q85 -8 132 -55
q43 -43 43 -119q0 -89 -52 -137q-60 -55 -234 -55h-411v700z" />
    <glyph glyph-name="C" unicode="C" horiz-adv-x="846" 
d="M626 245h192q-3 -74 -36 -128t-75 -83q-79 -55 -253 -55q-98 0 -174 19t-137 78q-101 94 -101 270q0 167 97 268q105 105 299 105q183 0 274 -62q37 -24 68 -72t33 -120h-192q-5 56 -52 86q-45 28 -118 28q-98 0 -151 -55q-58 -64 -58 -177q0 -117 60 -177
q53 -51 150 -51q83 0 122 27q48 33 52 99z" />
    <glyph glyph-name="D" unicode="D" horiz-adv-x="853" 
d="M259 560v-420h106q125 0 183 48q66 55 66 163t-62 161q-56 48 -176 48h-117zM75 700h325q214 0 315 -98q93 -90 93 -249q0 -164 -93 -257q-43 -43 -109.5 -66t-112 -26.5t-110.5 -3.5h-308v700z" />
    <glyph glyph-name="E" unicode="E" horiz-adv-x="748" 
d="M259 422h384v-132h-384v-150h465v-140h-649v700h638v-140h-454v-138z" />
    <glyph glyph-name="F" unicode="F" horiz-adv-x="699" 
d="M259 408h350v-132h-350v-276h-184v700h610v-140h-426v-152z" />
    <glyph glyph-name="G" unicode="G" horiz-adv-x="894" 
d="M484 375h345v-375h-130l-6 101q-39 -65 -98 -93q-58 -28 -176 -28q-89 0 -159 18.5t-126 78.5q-92 96 -92 266q0 178 107 280q100 98 296 98q164 0 263 -57q106 -68 113 -193h-192q-5 55 -56 85q-42 25 -115 25q-103 0 -156 -53q-60 -63 -60 -182q0 -116 62 -174
q53 -52 154 -52q89 0 134 37q44 37 54 104h-162v114z" />
    <glyph glyph-name="H" unicode="H" horiz-adv-x="854" 
d="M259 298v-298h-184v700h184v-262h332v262h184v-700h-184v298h-332z" />
    <glyph glyph-name="I" unicode="I" horiz-adv-x="338" 
d="M75 700h184v-700h-184v700z" />
    <glyph glyph-name="J" unicode="J" horiz-adv-x="673" 
d="M26 264h184v-21q0 -69 25 -96q24 -27 78 -27q52 0 79 29q27 33 27 103v448h184v-447q0 -142 -66 -208q-31 -31 -76.5 -46.5t-71 -17t-71.5 -1.5q-48 0 -77 2t-77 17.5t-77 46.5q-61 61 -61 194v24z" />
    <glyph glyph-name="K" unicode="K" horiz-adv-x="810" 
d="M259 407l314 293h228l-328 -293l347 -406l-226 -1l-244 304l-91 -82v-222h-184v700h184v-293z" />
    <glyph glyph-name="L" unicode="L" horiz-adv-x="656" 
d="M642 142v-142h-567v700h184v-558h383z" />
    <glyph glyph-name="M" unicode="M" horiz-adv-x="1075" 
d="M469 0l-210 521h-7l7 -59v-462h-184v700h260l198 -508h5l198 508h260v-700h-184v462l7 59h-7l-210 -521h-133z" />
    <glyph glyph-name="N" unicode="N" horiz-adv-x="870" 
d="M791 700v-700h-179l-353 470v-470h-184v700h180l352 -470v470h184z" />
    <glyph glyph-name="O" unicode="O" horiz-adv-x="919" 
d="M458 580q-97 0 -152 -54q-64 -61 -64 -176t64 -176q55 -54 152 -54t152 54q64 61 64 176t-64 176q-55 54 -152 54zM874 350q0 -171 -110 -268q-113 -102 -306 -102t-306 102q-110 97 -110 268q0 167 110 268q113 102 306 102t306 -102q110 -101 110 -268z" />
    <glyph glyph-name="P" unicode="P" horiz-adv-x="778" 
d="M259 560v-193h166q80 0 109 29q26 26 26 72t-34 72q-28 20 -90 20h-177zM75 700h375q84 0 138.5 -12t96.5 -51q65 -61 65 -167q0 -104 -57 -166q-43 -47 -102 -60t-153 -13h-179v-231h-184v700z" />
    <glyph glyph-name="Q" unicode="Q" horiz-adv-x="919" 
d="M534 269l88 -74q52 68 52 156q0 111 -57 170t-159 59q-104 0 -161 -66q-55 -67 -55 -174q0 -106 56 -166q58 -60 158 -60q55 0 98 21l-79 66zM754 87l89 -77l-71 -83l-114 95q-88 -42 -211 -42q-57 0 -100 5t-102.5 28.5t-104.5 67.5q-98 96 -98 261q0 166 101 267
q107 111 317 111q190 0 298 -90q116 -100 116 -273q0 -92 -35 -165q-34 -66 -85 -105z" />
    <glyph glyph-name="R" unicode="R" horiz-adv-x="821" 
d="M259 560v-171h195q69 0 97 28q23 23 23 60q0 45 -34 68q-24 15 -88 15h-193zM75 0v700h414q164 0 227 -63q48 -48 48 -133q0 -78 -46 -124q-35 -35 -90 -49v-4q52 -9 82 -42q6 -6 11 -13t8 -13t5.5 -14t4 -12.5t3 -13.5t1.5 -13t1 -14t1 -13l5 -79q5 -62 29 -100h-195
q-11 15 -16.5 30.5t-7 25t-3.5 33.5l-3 58q-4 60 -33 85t-90 25h-172v-257h-184z" />
    <glyph glyph-name="S" unicode="S" horiz-adv-x="767" 
d="M35 227h192v-4q0 -44 27 -67q38 -38 135 -38q72 0 100 16q46 24 46 70q0 41 -49 60q-20 8 -97 23l-101 16q-49 7 -80.5 13.5t-70 23t-59.5 39.5q-39 46 -39 112q0 119 96 179q81 50 229 50q165 0 244 -47q100 -58 94 -170h-186q-5 45 -42 64q-39 19 -112 19
q-66 0 -96 -19q-35 -23 -35 -61q0 -36 50 -53q26 -11 120 -25l80 -13q131 -23 178 -58q71 -53 71 -153q0 -110 -82 -170q-77 -54 -247 -54q-107 0 -184 16t-125 66q-57 60 -57 161v4z" />
    <glyph glyph-name="T" unicode="T" horiz-adv-x="699" 
d="M257 560h-244v140h672v-140h-244v-560h-184v560z" />
    <glyph glyph-name="U" unicode="U" horiz-adv-x="832" 
d="M762 700v-425q0 -140 -71 -211q-51 -51 -118.5 -66.5t-158.5 -15.5t-158.5 15.5t-118.5 66.5q-71 71 -71 211v425h184v-406q0 -90 39 -129q36 -39 125 -39q86 0 125 39t39 129v406h184z" />
    <glyph glyph-name="V" unicode="V" horiz-adv-x="745" 
d="M380 183l177 517h198l-282 -700h-201l-281 700h207l176 -517h6z" />
    <glyph glyph-name="W" unicode="W" horiz-adv-x="1097" 
d="M550 514l-157 -514h-192l-210 700h192l119 -519l163 519h170l162 -519l118 519h192l-210 -700h-192z" />
    <glyph glyph-name="X" unicode="X" horiz-adv-x="799" 
d="M411 468l172 232h211l-279 -337l284 -363h-235l-167 239l-173 -239h-224l287 363l-273 337h225z" />
    <glyph glyph-name="Y" unicode="Y" 
d="M386 401l175 299h204l-295 -433v-267h-184v267l-295 433h218z" />
    <glyph glyph-name="Z" unicode="Z" horiz-adv-x="731" 
d="M55 700h637v-116l-446 -444h457v-140h-677v135l430 425h-401v140z" />
    <glyph glyph-name="bracketleft" unicode="[" horiz-adv-x="467" 
d="M106 740h308v-106h-132v-692h132v-106h-308v904z" />
    <glyph glyph-name="backslash" unicode="\" horiz-adv-x="532" 
d="M532 -185h-98l-434 885h98z" />
    <glyph glyph-name="bracketright" unicode="]" horiz-adv-x="467" 
d="M414 740v-904h-308v106h132v692h-132v106h308z" />
    <glyph glyph-name="asciicircum" unicode="^" horiz-adv-x="567" 
d="M283 636l-106 -154h-127l155 218h156l156 -218h-128z" />
    <glyph glyph-name="underscore" unicode="_" horiz-adv-x="559" 
d="M0 -189v68h559v-68h-559z" />
    <glyph glyph-name="grave" unicode="`" horiz-adv-x="365" 
d="M184 712l80 -144h-118l-127 144h165z" />
    <glyph glyph-name="a" unicode="a" horiz-adv-x="708" 
d="M457 226v8q-14 -12 -31.5 -16.5t-59.5 -8.5l-37 -4q-51 -5 -71 -18q-24 -19 -24 -43q0 -27 21 -43q20 -16 67 -16q64 0 99 35q36 36 36 106zM249 344h-178q0 70 49 119q39 38 94.5 51t136.5 13q177 0 241 -67q19 -20 29.5 -47t12 -45t1.5 -47v-226q0 -37 8 -61
q10 -17 28 -20v-14h-192l-11 50h-4q-29 -37 -79 -54q-46 -15 -121 -15q-111 0 -158 32q-59 42 -59 121q0 63 38 100q22 21 61 34t60.5 16t64.5 7l80 7q31 3 43.5 4t27.5 5.5t22 12.5q12 12 12 33q0 32 -32 50q-24 14 -70 14q-50 0 -76 -18q-28 -22 -29 -55z" />
    <glyph glyph-name="b" unicode="b" horiz-adv-x="737" 
d="M374 412q-58 0 -95 -35q-47 -42 -47 -125q0 -78 45 -120q39 -36 96 -36q62 0 100 38q41 42 41 120q0 74 -35 115q-36 43 -105 43zM229 60v-60h-168v700h176v-250q26 36 71 54q46 20 114 20q130 0 202 -66q74 -68 74 -196q0 -138 -69 -210q-41 -43 -91 -55.5t-117 -12.5
q-89 0 -134 24q-31 16 -54 52h-4z" />
    <glyph glyph-name="c" unicode="c" horiz-adv-x="690" 
d="M652 328h-169q-3 44 -38 66q-29 19 -83 19q-69 0 -105 -41q-38 -43 -38 -123q0 -79 41 -120q34 -34 103 -34q57 0 83 20q37 26 38 76h170v-3q0 -81 -54 -139q-41 -43 -100 -55.5t-144 -12.5q-52 0 -88.5 3.5t-83.5 20.5t-78 48q-69 69 -69 193q0 125 68 197q78 84 246 84
q136 0 209 -43q92 -52 92 -156z" />
    <glyph glyph-name="d" unicode="d" horiz-adv-x="739" 
d="M360 412q-66 0 -104 -43q-35 -41 -35 -115q0 -75 41 -120q36 -38 100 -38q61 0 96 35q45 45 45 124q0 67 -34 110q-38 47 -109 47zM506 60h-4q-22 -39 -67 -58q-42 -18 -125 -18q-66 0 -114.5 13t-90.5 56q-68 71 -68 199q0 133 79 206q69 66 200 66q72 0 118 -22
q41 -17 64 -52v250h176v-700h-168v60z" />
    <glyph glyph-name="e" unicode="e" horiz-adv-x="721" 
d="M220 311h281q-4 52 -36 78q-34 30 -104 30q-63 0 -99 -28q-38 -31 -42 -80zM498 166h177q-12 -114 -110 -158q-62 -27 -191 -27q-98 0 -160 15t-107 60q-70 70 -70 190q0 129 76 202q83 79 247 79q171 0 253 -82q69 -69 69 -206v-18h-465v-3q0 -58 33 -91q34 -34 112 -34
q62 0 91 14q36 17 45 59z" />
    <glyph glyph-name="f" unicode="f" horiz-adv-x="443" 
d="M429 508v-108h-133v-400h-176v400h-107v108h107v40q0 80 44 120q45 45 153 45q57 0 111 -11v-103q-24 6 -51 6q-39 0 -60 -17q-21 -18 -21 -56v-24h133z" />
    <glyph glyph-name="g" unicode="g" horiz-adv-x="724" 
d="M222 259q0 -68 37 -106q36 -37 100 -37q60 0 93 34q38 39 38 112q0 75 -38 114q-35 38 -98 38q-53 0 -88 -35q-44 -44 -44 -120zM76 -31h176q2 -30 33 -45q25 -12 72 -12q65 0 95 28q31 28 31 96v38h-4q-22 -30 -59 -47q-36 -17 -117 -17q-124 0 -195 64q-68 64 -68 177
q0 126 72 202q71 71 198 71q69 0 113 -20q37 -18 65 -55h5v59h166v-446q0 -131 -62 -193q-37 -37 -98.5 -51t-154.5 -14q-127 0 -191 34q-77 44 -77 131z" />
    <glyph glyph-name="h" unicode="h" horiz-adv-x="709" 
d="M61 700h176v-247q27 35 67 52q43 20 118 20q94 0 149 -34q35 -22 53 -58.5t20.5 -61.5t2.5 -65v-306h-176v275q0 74 -27 104q-28 28 -79 28q-58 0 -90 -36q-38 -45 -38 -141v-230h-176v700z" />
    <glyph glyph-name="i" unicode="i" horiz-adv-x="302" 
d="M61 589v118h176v-118h-176zM61 508h176v-508h-176v508z" />
    <glyph glyph-name="j" unicode="j" horiz-adv-x="310" 
d="M69 589v118h176v-118h-176zM69 508h176v-510q0 -99 -46 -145q-41 -41 -135 -41q-53 0 -93 9v110q15 -3 30 -3q34 0 50 17q18 19 18 94v469z" />
    <glyph glyph-name="k" unicode="k" horiz-adv-x="652" 
d="M237 312l215 196h199l-236 -202l247 -306h-196l-161 216l-68 -59v-157h-176v700h176v-388z" />
    <glyph glyph-name="l" unicode="l" horiz-adv-x="302" 
d="M61 700h176v-700h-176v700z" />
    <glyph glyph-name="m" unicode="m" horiz-adv-x="1071" 
d="M61 508h164v-71q28 41 70 63q48 26 122 26q65 0 105 -24q42 -24 62 -74q29 44 75 69q54 29 132 29q111 0 163 -52q55 -55 55 -183v-291h-176v293q0 63 -29 91q-24 24 -67 24q-47 0 -77 -30q-37 -37 -37 -115v-263h-176v297q0 60 -30 89q-22 22 -64 22q-43 0 -74 -27
q-42 -39 -42 -132v-249h-176v508z" />
    <glyph glyph-name="n" unicode="n" horiz-adv-x="709" 
d="M61 508h169v-62q32 35 71 56q46 23 113 23q101 0 159 -37q74 -47 74 -174v-314h-176v275q0 80 -30 108q-24 24 -71 24q-58 0 -92 -36q-41 -43 -41 -138v-233h-176v508z" />
    <glyph glyph-name="o" unicode="o" horiz-adv-x="740" 
d="M369 413q-70 0 -108 -38q-42 -42 -42 -121t42 -121q38 -38 108 -38t108 38q42 42 42 121t-42 121q-38 38 -108 38zM701 254q0 -135 -88 -206q-83 -67 -244 -67t-244 67q-88 71 -88 206t88 206q85 67 244 67t244 -67q88 -71 88 -206z" />
    <glyph glyph-name="p" unicode="p" horiz-adv-x="735" 
d="M373 412q-60 0 -98 -39q-43 -48 -43 -121q0 -76 40 -117q39 -39 104 -39q66 0 101 41q37 42 37 118q0 72 -37 115q-39 42 -104 42zM61 508h168v-64h3q27 36 66 56q49 24 126 24q127 0 198 -64q74 -71 74 -202q0 -137 -74 -209q-41 -41 -89.5 -53t-110.5 -12
q-78 0 -117 17q-40 16 -68 53v-239h-176v693z" />
    <glyph glyph-name="q" unicode="q" horiz-adv-x="737" 
d="M360 412q-67 0 -101 -38q-40 -45 -40 -119q0 -78 37 -118q39 -41 103 -41q68 0 102 38q40 45 40 120q0 77 -43 120q-38 38 -98 38zM672 508v-693h-176v239q-28 -37 -68 -53q-39 -17 -117 -17q-62 0 -110.5 12t-89.5 53q-74 72 -74 209q0 131 74 202q67 64 197 64
q80 0 127 -24q39 -20 66 -56h3v64h168z" />
    <glyph glyph-name="r" unicode="r" horiz-adv-x="472" 
d="M458 516v-121q-18 2 -37 2q-72 0 -112 -28q-72 -49 -72 -178v-191h-176v508h169v-83q25 45 77 72q45 23 105 23q25 0 46 -4z" />
    <glyph glyph-name="s" unicode="s" horiz-adv-x="625" 
d="M30 160h172v-3q0 -34 33 -52q30 -13 79 -13q52 0 71 12q28 14 28 40q0 28 -38 45q-21 8 -86 17l-60 9q-106 15 -139 37q-55 34 -55 108q0 87 77 131q60 37 190 37q101 0 179 -27q86 -39 88 -133h-168v2q0 28 -29 42q-25 12 -69 12t-66 -11q-29 -16 -29 -41q0 -23 30 -37
q8 -4 19.5 -7t21 -4t29 -4t33.5 -5l68 -10q92 -13 135 -47q49 -38 49 -107q0 -64 -41 -108q-38 -39 -91.5 -51t-132.5 -12q-93 0 -152.5 12t-98.5 48q-47 47 -47 118v2z" />
    <glyph glyph-name="t" unicode="t" horiz-adv-x="438" 
d="M13 400v108h108v151h176v-151h118v-108h-118v-222q0 -44 14 -58q17 -17 54 -17q30 0 52 8v-110q-53 -16 -120 -16q-97 0 -139 39q-37 34 -37 110v266h-108z" />
    <glyph glyph-name="u" unicode="u" horiz-adv-x="706" 
d="M477 0v63h-4q-32 -42 -76 -61q-41 -18 -119 -18q-116 0 -167 49q-53 50 -53 162v313h176v-281q0 -72 29 -99q26 -26 78 -26q57 0 89 34q35 38 35 127v245h176v-508h-164z" />
    <glyph glyph-name="v" unicode="v" horiz-adv-x="598" 
d="M298 146l134 362h176l-220 -508h-180l-217 508h179z" />
    <glyph glyph-name="w" unicode="w" horiz-adv-x="893" 
d="M448 344l-124 -344h-157l-176 508h171l100 -343l113 343h145l113 -343l100 343h170l-176 -508h-156z" />
    <glyph glyph-name="x" unicode="x" horiz-adv-x="655" 
d="M337 342l116 166h194l-213 -245l221 -263h-209l-127 167l-124 -167h-195l222 261l-214 247h208z" />
    <glyph glyph-name="y" unicode="y" horiz-adv-x="599" 
d="M59 -177v109q28 -9 53 -9q39 0 60 17q23 19 38 61l10 30l-216 477h177l135 -339l118 339h165l-216 -517q-2 -5 -11 -25t-12 -26.5t-11 -22.5t-13 -24t-13.5 -18.5t-16.5 -18.5q-31 -29 -65 -38t-81 -9q-58 0 -101 14z" />
    <glyph glyph-name="z" unicode="z" horiz-adv-x="575" 
d="M46 392v116h486v-109l-318 -283h333v-116h-521v106l325 286h-305z" />
    <glyph glyph-name="braceleft" unicode="{" horiz-adv-x="431" 
d="M381 762v-82q-34 -5 -53 -24q-21 -21 -24 -85v-44q2 -34 2 -52q0 -89 -44 -133q-36 -36 -94 -49v-6q58 -13 94 -49q44 -44 44 -133q0 -18 -2 -52v-44q0 -58 24 -85q20 -20 53 -24v-82h-2q-112 0 -166 57q-44 49 -44 145q0 30 1.5 46t1.5 55q0 60 -30 90q-26 26 -67 31v96
q41 5 67 31q30 30 30 90q0 38 -1.5 54t-1.5 47q0 96 44 145q54 57 166 57h2z" />
    <glyph glyph-name="bar" unicode="|" horiz-adv-x="516" 
d="M208 -224v1053h100v-1053h-100z" />
    <glyph glyph-name="braceright" unicode="}" horiz-adv-x="431" 
d="M75 762h2q112 0 166 -57q44 -49 44 -145q0 -30 -1.5 -46t-1.5 -55q0 -60 30 -90q26 -26 67 -31v-96q-41 -5 -67 -31q-30 -30 -30 -90q0 -39 1.5 -55t1.5 -46q0 -96 -44 -145q-54 -57 -166 -57h-2v82q33 4 53 24q22 24 24 85v44q-2 34 -2 52q0 89 44 133q36 36 94 49v6
q-58 13 -94 49q-44 44 -44 133q0 18 2 52v44q-3 64 -24 85q-19 19 -53 24v82z" />
    <glyph glyph-name="asciitilde" unicode="~" horiz-adv-x="717" 
d="M120 282l-70 41q26 56 62 89q44 39 114 39q57 0 119 -30l80 -39q46 -22 84 -22q33 0 56 19q20 20 32 46l70 -41q-19 -51 -57 -88q-44 -40 -113 -40q-54 0 -112 28l-88 42q-44 21 -84 21q-34 0 -60 -22q-20 -19 -33 -43z" />
    <glyph glyph-name="Zcaron" horiz-adv-x="731" 
d="M55 700h637v-116l-446 -444h457v-140h-677v135l430 425h-401v140zM366 808l106 90h141l-142 -132h-211l-143 132h142z" />
    <glyph glyph-name="Zcaron" unicode="&#x17d;" horiz-adv-x="731" 
d="M55 700h637v-116l-446 -444h457v-140h-677v135l430 425h-401v140zM366 808l106 90h141l-142 -132h-211l-143 132h142z" />
    <glyph glyph-name="zcaron" horiz-adv-x="575" 
d="M46 392v116h486v-109l-318 -283h333v-116h-521v106l325 286h-305zM290 610l106 90h141l-142 -132h-211l-143 132h142z" />
    <glyph glyph-name="zcaron" unicode="&#x17e;" horiz-adv-x="575" 
d="M46 392v116h486v-109l-318 -283h333v-116h-521v106l325 286h-305zM290 610l106 90h141l-142 -132h-211l-143 132h142z" />
    <glyph glyph-name="uni00A0" unicode="&#xa0;" horiz-adv-x="233" 
 />
    <glyph glyph-name="exclamdown" unicode="&#xa1;" horiz-adv-x="413" 
d="M111 518h184v-150h-184v150zM250 281l51 -248v-225h-195v225l50 248h94z" />
    <glyph glyph-name="cent" unicode="&#xa2;" 
d="M691 330h-170q-5 42 -36 65q-28 22 -83 22q-69 0 -106 -35q-44 -44 -44 -130q0 -83 39 -122q36 -38 105 -38q62 0 92 25q33 27 34 73h170q-1 -83 -59 -141q-66 -66 -194 -66v-87h-85v86q-60 -2 -116 17t-94 56q-74 68 -74 202q0 123 71 194q38 38 95.5 58t117.5 18v80h85
v-81q42 2 91 -10t81 -34q77 -55 80 -152z" />
    <glyph glyph-name="sterling" unicode="&#xa3;" 
d="M642 170l57 -114q-74 -74 -176 -74q-64 0 -136 26q-80 31 -121 31q-60 0 -121 -43l-66 110q52 38 65 51q37 37 37 85q0 33 -18 66h-99v66h77q-41 54 -41 125q0 104 89 167q78 54 210 54q164 0 241 -75q63 -63 63 -172v-4h-176v3q0 47 -28 75q-32 32 -96 32q-57 0 -89 -27
q-30 -25 -30 -68q0 -27 15 -59q10 -20 14 -24t16 -27h155v-66h-138q22 -61 -14 -113q-16 -22 -40 -43l3 -6q40 18 82 18q30 0 88 -17q50 -16 83 -16q57 0 94 39z" />
    <glyph glyph-name="currency" unicode="&#xa4;" 
d="M376 528q-88 0 -139 -55q-56 -59 -56 -140t56 -140q51 -55 139 -55t139 55q56 59 56 140t-56 140q-51 55 -139 55zM39 68l94 95q-54 74 -54 169q0 94 53 169l-95 95l72 74l92 -97q72 57 175 57q100 0 174 -57l95 95l67 -75l-91 -92q52 -74 52 -167q0 -95 -50 -167l94 -99
l-73 -70l-94 95q-74 -58 -174 -58q-96 0 -174 57l-93 -95z" />
    <glyph glyph-name="yen" unicode="&#xa5;" 
d="M377 404l182 296h208l-298 -421v-25h118v-61h-118v-44h118v-61h-118v-88h-184v88h-118v61h118v44h-118v61h118v25l-297 421h208z" />
    <glyph glyph-name="brokenbar" unicode="&#xa6;" horiz-adv-x="516" 
d="M308 399h-100v430h100v-430zM208 206h100v-430h-100v430z" />
    <glyph glyph-name="section" unicode="&#xa7;" horiz-adv-x="730" 
d="M306 216l144 -40q31 13 45 29q21 26 21 54q0 34 -25 53q-20 16 -71 29l-142 40q-32 -17 -44 -32q-18 -21 -18 -51q0 -33 25 -52q21 -15 65 -30zM127 23h146v-5q0 -35 24 -54q23 -19 69 -19q40 0 61 12q26 18 26 46t-29 43q-9 4 -114 37l-68 20q-95 26 -134 62
q-44 43 -44 110q0 74 44 119q28 28 78 46q-58 39 -58 105q0 78 67 127q57 40 168 40q108 0 165 -37q68 -46 68 -137v-4h-144q4 34 -23 52q-21 16 -65 16q-38 0 -60 -13q-25 -16 -25 -39q0 -34 40 -50q8 -4 96 -28l81 -22q93 -26 129 -65q41 -44 41 -104q0 -71 -37 -114
q-32 -38 -85 -59q65 -37 65 -105q0 -86 -67 -133q-59 -41 -170 -41q-124 0 -184 48q-61 49 -61 143v3z" />
    <glyph glyph-name="dieresis" unicode="&#xa8;" horiz-adv-x="524" 
d="M313 597v111h155v-111h-155zM50 597v111h154v-111h-154z" />
    <glyph glyph-name="copyright" unicode="&#xa9;" horiz-adv-x="836" 
d="M418 654q-123 0 -210 -84q-42 -42 -66 -101t-24 -119t24 -119t66 -101q87 -84 210 -84t210 84q42 42 66 101t24 119t-24 119t-66 101q-87 84 -210 84zM786 350q0 -90 -33 -157.5t-75 -106.5q-105 -105 -260 -105t-260 105q-42 39 -75 106.5t-33 157.5t33 157.5t75 106.5
q105 105 260 105t260 -105q42 -39 75 -106.5t33 -157.5zM500 306h106q-1 -66 -52 -102q-44 -33 -135 -33q-103 0 -153 49q-52 50 -52 135q0 78 49 127t149 49q92 0 137 -29q53 -34 55 -99h-106q-2 28 -25 41q-26 11 -51 11q-43 0 -66 -23q-28 -28 -28 -79q0 -56 26 -82
q24 -24 64 -24q42 0 62 16q20 17 20 43z" />
    <glyph glyph-name="ordfeminine" unicode="&#xaa;" horiz-adv-x="453" 
d="M233 532l-25 -2q-30 -2 -41 -10q-13 -9 -13 -26q0 -14 12 -23q13 -9 39 -9q39 0 58 18q23 19 21 67q-11 -11 -51 -15zM159 613h-104q0 54 44 83q39 25 118 25q86 0 124 -24q49 -30 49 -91v-148q0 -19 4 -28q4 -7 14 -15v-6h-115l-5 34h-3q-19 -25 -45 -35
q-28 -10 -74 -10q-59 0 -89 21q-32 23 -32 69q0 39 23 61q25 24 96 32l47 5q22 3 52 10q21 7 21 26t-21 28q-14 6 -43 6q-33 0 -46 -10q-16 -12 -15 -33zM48 297v54h354v-54h-354z" />
    <glyph glyph-name="guillemotleft" unicode="&#xab;" horiz-adv-x="542" 
d="M288 336l179 136v-133l-102 -71l102 -72v-133l-179 137v136zM62 336l179 136v-133l-102 -71l102 -72v-133l-179 137v136z" />
    <glyph glyph-name="logicalnot" unicode="&#xac;" horiz-adv-x="740" 
d="M50 381h640v-207h-72v133h-568v74z" />
    <glyph glyph-name="uni00AD" unicode="&#xad;" horiz-adv-x="569" 
d="M80 231v125h409v-125h-409z" />
    <glyph glyph-name="registered" unicode="&#xae;" horiz-adv-x="836" 
d="M718 350q0 60 -24 119t-66 101q-87 84 -210 84t-210 -84q-42 -42 -66 -101t-24 -119t24 -119t66 -101q87 -84 210 -84t210 84q42 42 66 101t24 119zM786 350q0 -90 -33 -157.5t-75 -106.5q-105 -105 -260 -105t-260 105q-42 39 -75 106.5t-33 157.5t33 157.5t75 106.5
q105 105 260 105t260 -105q42 -39 75 -106.5t33 -157.5zM342 450v-79h86q27 0 37 6q19 8 19 34q0 21 -17 32q-13 7 -39 7h-86zM238 180v344h220q65 0 96 -23q38 -29 38 -79q0 -36 -18 -58q-19 -23 -48 -27v-2q27 -5 40 -21q17 -17 17 -50l1 -35q0 -27 16 -49h-106
q-12 14 -14 41l-1 25q0 30 -18 44q-14 11 -50 11h-69v-121h-104z" />
    <glyph glyph-name="overscore" unicode="&#xaf;" horiz-adv-x="468" 
d="M50 598v91h368v-91h-368z" />
    <glyph glyph-name="degree" unicode="&#xb0;" horiz-adv-x="330" 
d="M113 594q0 -22 15 -37t37 -15t37 15t15 37t-15 37t-37 15t-37 -15t-15 -37zM50 594q0 48 33.5 81.5t81.5 33.5t81.5 -33.5t33.5 -81.5t-33.5 -81.5t-81.5 -33.5t-81.5 33.5t-33.5 81.5z" />
    <glyph glyph-name="plusminus" unicode="&#xb1;" horiz-adv-x="643" 
d="M50 151h543v-97h-543v97zM51 460h222v196h97v-196h222v-97h-222v-167h-97v167h-222v97z" />
    <glyph glyph-name="twosuperior" unicode="&#xb2;" horiz-adv-x="535" 
d="M461 369v-90h-386v8q0 89 46 134q21 21 85 52l44 22l26 13q27 14 35 21q25 17 25 46q0 25 -25 40q-21 11 -47 11q-38 0 -56 -18q-16 -16 -16 -47v-3h-118v3q0 79 54 117q46 34 137 34t140 -32q55 -38 55 -104q0 -55 -33 -86q-18 -18 -66 -41l-49 -23q-8 -4 -18 -8
t-19 -8.5t-20 -11.5q-21 -10 -32 -29h238z" />
    <glyph glyph-name="threesuperior" unicode="&#xb3;" horiz-adv-x="552" 
d="M74 430h118v-3q0 -30 22 -45q22 -14 61 -14q36 0 56 11q23 13 23 40q0 29 -30 41q-21 7 -64 7h-23v74h23q44 0 62 9q23 12 23 38q0 23 -25 37q-17 9 -48 9q-37 0 -57 -15q-19 -14 -19 -41v-1h-118v3q0 71 56 108q46 32 138 32q87 0 131 -27q57 -33 57 -94q0 -35 -23 -62
q-23 -24 -52 -26v-2q40 -5 67 -31q26 -26 26 -66q0 -56 -40 -92q-45 -40 -154 -40q-113 0 -155 31q-55 38 -55 117v2z" />
    <glyph glyph-name="acute" unicode="&#xb4;" horiz-adv-x="361" 
d="M178 712h165l-127 -144h-118z" />
    <glyph glyph-name="mu" unicode="&#xb5;" horiz-adv-x="696" 
d="M259 -185h-174v693h176v-255q0 -87 31 -123q31 -37 82 -37q52 0 80 34q34 39 34 127v254h176v-508h-174v62q-11 -29 -36 -54q-32 -27 -81 -27q-55 0 -85 30q-17 17 -29 44v-240z" />
    <glyph glyph-name="mu" unicode="&#x3bc;" horiz-adv-x="696" 
d="M259 -185h-174v693h176v-255q0 -87 31 -123q31 -37 82 -37q52 0 80 34q34 39 34 127v254h176v-508h-174v62q-11 -29 -36 -54q-32 -27 -81 -27q-55 0 -85 30q-17 17 -29 44v-240z" />
    <glyph glyph-name="paragraph" unicode="&#xb6;" horiz-adv-x="561" 
d="M407 -185v885h84v-885h-84zM228 -185v556q-89 -5 -144 48q-44 43 -44 117q0 81 57 125q51 39 150 39h65v-885h-84z" />
    <glyph glyph-name="middot" unicode="&#xb7;" horiz-adv-x="306" 
d="M59 251v162h188v-162h-188z" />
    <glyph glyph-name="cedilla" unicode="&#xb8;" horiz-adv-x="355" 
d="M37 -242l23 66q45 -14 90 -14q35 0 45 6q20 9 20 29q0 21 -28 30q-16 5 -53 5q-31 0 -51 -4l21 64q28 4 57 4q78 0 111 -20q47 -26 47 -82q0 -57 -47 -83q-35 -19 -109 -19q-78 0 -126 18z" />
    <glyph glyph-name="onesuperior" unicode="&#xb9;" horiz-adv-x="359" 
d="M74 568v59h3q45 0 73 16q32 18 41 56h94v-420h-124v289h-87z" />
    <glyph glyph-name="ordmasculine" unicode="&#xba;" horiz-adv-x="474" 
d="M429 557q0 -77 -48 -121q-47 -43 -144 -43t-144 43q-48 44 -48 121t48 121q47 43 144 43t144 -43q48 -44 48 -121zM237 653q-39 0 -60 -21q-26 -26 -26 -75t26 -75q21 -21 60 -21t60 21q26 26 26 75t-26 75q-21 21 -60 21zM65 297v54h344v-54h-344z" />
    <glyph glyph-name="guillemotright" unicode="&#xbb;" horiz-adv-x="542" 
d="M241 336v-136l-179 -137v133l102 72l-102 71v133zM467 336v-136l-179 -137v133l102 72l-102 71v133z" />
    <glyph glyph-name="onequarter" unicode="&#xbc;" horiz-adv-x="966" 
d="M128 0l661 700h99l-661 -700h-99zM82 569v59h3q45 0 73 16q32 18 41 56h94v-420h-124v289h-87zM624 169h129v143zM753 87h-233v82l237 251h120v-251h71v-82h-71v-87h-124v87z" />
    <glyph glyph-name="onehalf" unicode="&#xbd;" horiz-adv-x="1041" 
d="M1006 90v-90h-386v8q0 89 46 134q21 21 85 52l44 22l27 14q26 13 34 20q25 17 25 46q0 25 -25 40q-21 11 -47 11q-38 0 -56 -18q-16 -16 -16 -47v-3h-118v3q0 79 54 117q46 34 137 34t140 -32q55 -38 55 -104q0 -55 -33 -86q-18 -18 -66 -41l-49 -23q-8 -4 -18 -8
t-19 -8.5t-20 -11.5q-21 -10 -32 -29h238zM108 0l661 700h99l-661 -700h-99zM82 569v59h3q45 0 73 16q32 18 41 56h94v-420h-124v289h-87z" />
    <glyph glyph-name="threequarters" unicode="&#xbe;" horiz-adv-x="1034" 
d="M196 0l661 700h99l-661 -700h-99zM692 169h129v143zM821 87h-233v82l237 251h120v-251h71v-82h-71v-87h-124v87zM34 428h118v-3q0 -30 22 -45q22 -14 61 -14q38 0 56 11q23 14 23 42t-27 40q-15 9 -67 9h-23v74h23q44 0 62 9q23 12 23 38q0 23 -25 37q-17 9 -48 9
q-37 0 -57 -15q-19 -14 -19 -41v-1h-118v3q0 71 56 108q46 32 138 32q87 0 131 -27q57 -33 57 -94q0 -35 -23 -62q-23 -24 -52 -26v-2q41 -4 67 -31q26 -30 26 -68q0 -56 -40 -92q-46 -41 -154 -41q-113 0 -155 31q-55 38 -55 117v2z" />
    <glyph glyph-name="questiondown" unicode="&#xbf;" horiz-adv-x="677" 
d="M459 30h176v-8q0 -113 -85 -175q-74 -51 -214 -51q-143 0 -209 41q-87 55 -87 157q0 95 98 144l31 16q54 28 71 45q30 30 30 74v10h150v-13q0 -65 -25 -103q-21 -31 -66 -61l-28 -18q-40 -26 -52 -38q-21 -21 -21 -50q0 -34 30 -55q31 -20 83 -20q58 0 85 22q33 26 33 79
v4zM442 518v-150h-184v150h184z" />
    <glyph glyph-name="Agrave" unicode="&#xc0;" horiz-adv-x="790" 
d="M289 262h214l-108 262zM244 142l-61 -142h-192l314 700h181l314 -700h-192l-61 142h-303zM437 910l80 -144h-118l-127 144h165z" />
    <glyph glyph-name="Aacute" unicode="&#xc1;" horiz-adv-x="790" 
d="M289 262h214l-108 262zM244 142l-61 -142h-192l314 700h181l314 -700h-192l-61 142h-303zM352 910h165l-127 -144h-118z" />
    <glyph glyph-name="Acircumflex" unicode="&#xc2;" horiz-adv-x="790" 
d="M289 262h214l-108 262zM244 142l-61 -142h-192l314 700h181l314 -700h-192l-61 142h-303zM396 856l-107 -90h-142l142 132h212l142 -132h-141z" />
    <glyph glyph-name="Atilde" unicode="&#xc3;" horiz-adv-x="790" 
d="M289 262h214l-108 262zM244 142l-61 -142h-192l314 700h181l314 -700h-192l-61 142h-303zM530 902h98q-14 -81 -45 -110q-31 -28 -84 -28q-49 0 -95 22l-31 16q-48 25 -65 25q-24 0 -36 -17q-12 -16 -12 -34h-99q6 61 44 99q36 36 99 36q43 0 87 -22l33 -17
q44 -23 63 -23q23 0 33 18q8 10 10 35z" />
    <glyph glyph-name="Adieresis" unicode="&#xc4;" horiz-adv-x="790" 
d="M289 262h214l-108 262zM244 142l-61 -142h-192l314 700h181l314 -700h-192l-61 142h-303zM447 766v111h155v-111h-155zM184 766v111h154v-111h-154z" />
    <glyph glyph-name="Aring" unicode="&#xc5;" horiz-adv-x="790" 
d="M289 262h214l-108 262zM244 142l-61 -142h-192l314 700h181l314 -700h-192l-61 142h-303zM334 883q0 -26 17.5 -43.5t43.5 -17.5t43.5 17.5t17.5 43.5t-17.5 43.5t-43.5 17.5t-43.5 -17.5t-17.5 -43.5zM277 883q0 48 35 83t83 35t83 -35t35 -83t-35 -83t-83 -35t-83 35
t-35 83z" />
    <glyph glyph-name="AE" unicode="&#xc6;" horiz-adv-x="1253" 
d="M586 260v276h-23l-189 -276h212zM296 140l-93 -140h-208l493 700h737v-140h-454v-138h384v-132h-384v-150h465v-140h-650v140h-290z" />
    <glyph glyph-name="Ccedilla" unicode="&#xc7;" horiz-adv-x="846" 
d="M626 245h192q-3 -74 -36 -128t-75 -83q-79 -55 -253 -55q-98 0 -174 19t-137 78q-101 94 -101 270q0 167 97 268q105 105 299 105q183 0 274 -62q37 -24 68 -72t33 -120h-192q-5 56 -52 86q-45 28 -118 28q-98 0 -151 -55q-58 -64 -58 -177q0 -117 60 -177
q53 -51 150 -51q83 0 122 27q48 33 52 99zM307 -249l25 69q50 -14 91 -14q34 0 44 6q19 8 19 28q0 24 -27 31q-19 5 -48 5q-14 0 -58 -4l22 68q20 4 63 4q76 0 109 -21q47 -28 47 -86q0 -60 -48 -86q-34 -19 -110 -19q-80 0 -129 19z" />
    <glyph glyph-name="Egrave" unicode="&#xc8;" horiz-adv-x="748" 
d="M259 422h384v-132h-384v-150h465v-140h-649v700h638v-140h-454v-138zM416 910l80 -144h-118l-127 144h165z" />
    <glyph glyph-name="Eacute" unicode="&#xc9;" horiz-adv-x="748" 
d="M259 422h384v-132h-384v-150h465v-140h-649v700h638v-140h-454v-138zM331 910h165l-127 -144h-118z" />
    <glyph glyph-name="Ecircumflex" unicode="&#xca;" horiz-adv-x="748" 
d="M259 422h384v-132h-384v-150h465v-140h-649v700h638v-140h-454v-138zM375 856l-107 -90h-142l142 132h212l142 -132h-141z" />
    <glyph glyph-name="Edieresis" unicode="&#xcb;" horiz-adv-x="748" 
d="M259 422h384v-132h-384v-150h465v-140h-649v700h638v-140h-454v-138zM426 766v111h155v-111h-155zM163 766v111h154v-111h-154z" />
    <glyph glyph-name="Igrave" unicode="&#xcc;" horiz-adv-x="338" 
d="M75 700h184v-700h-184v700zM180 910l80 -144h-118l-127 144h165z" />
    <glyph glyph-name="Iacute" unicode="&#xcd;" horiz-adv-x="338" 
d="M75 700h184v-700h-184v700zM156 910h165l-127 -144h-118z" />
    <glyph glyph-name="Icircumflex" unicode="&#xce;" horiz-adv-x="338" 
d="M75 700h184v-700h-184v700zM171 856l-107 -90h-142l142 132h212l142 -132h-141z" />
    <glyph glyph-name="Idieresis" unicode="&#xcf;" horiz-adv-x="338" 
d="M75 700h184v-700h-184v700zM222 766v111h155v-111h-155zM-41 766v111h154v-111h-154z" />
    <glyph glyph-name="Eth" unicode="&#xd0;" horiz-adv-x="899" 
d="M305 560v-140h157v-106h-157v-174h103q125 0 183 49q30 25 47.5 69t17.5 94q0 103 -59 157q-57 51 -179 51h-113zM121 700h324q214 0 314 -98q95 -90 95 -251t-95 -254q-100 -97 -331 -97h-307v314h-121v106h121v280z" />
    <glyph glyph-name="Ntilde" unicode="&#xd1;" horiz-adv-x="870" 
d="M791 700v-700h-179l-353 470v-470h-184v700h180l352 -470v470h184zM570 902h98q-14 -81 -45 -110q-31 -28 -84 -28q-49 0 -95 22l-31 16q-48 25 -65 25q-24 0 -36 -17q-12 -16 -12 -34h-99q6 61 44 99q36 36 99 36q43 0 87 -22l33 -17q44 -23 63 -23q23 0 33 18
q8 10 10 35z" />
    <glyph glyph-name="Ograve" unicode="&#xd2;" horiz-adv-x="919" 
d="M458 580q-97 0 -152 -54q-64 -61 -64 -176t64 -176q55 -54 152 -54t152 54q64 61 64 176t-64 176q-55 54 -152 54zM874 350q0 -171 -110 -268q-113 -102 -306 -102t-306 102q-110 97 -110 268q0 167 110 268q113 102 306 102t306 -102q110 -101 110 -268zM502 910
l80 -144h-118l-127 144h165z" />
    <glyph glyph-name="Oacute" unicode="&#xd3;" horiz-adv-x="919" 
d="M458 580q-97 0 -152 -54q-64 -61 -64 -176t64 -176q55 -54 152 -54t152 54q64 61 64 176t-64 176q-55 54 -152 54zM874 350q0 -171 -110 -268q-113 -102 -306 -102t-306 102q-110 97 -110 268q0 167 110 268q113 102 306 102t306 -102q110 -101 110 -268zM417 910h165
l-127 -144h-118z" />
    <glyph glyph-name="Ocircumflex" unicode="&#xd4;" horiz-adv-x="919" 
d="M458 580q-97 0 -152 -54q-64 -61 -64 -176t64 -176q55 -54 152 -54t152 54q64 61 64 176t-64 176q-55 54 -152 54zM874 350q0 -171 -110 -268q-113 -102 -306 -102t-306 102q-110 97 -110 268q0 167 110 268q113 102 306 102t306 -102q110 -101 110 -268zM460 856
l-107 -90h-142l142 132h212l142 -132h-141z" />
    <glyph glyph-name="Otilde" unicode="&#xd5;" horiz-adv-x="919" 
d="M458 580q-97 0 -152 -54q-64 -61 -64 -176t64 -176q55 -54 152 -54t152 54q64 61 64 176t-64 176q-55 54 -152 54zM874 350q0 -171 -110 -268q-113 -102 -306 -102t-306 102q-110 97 -110 268q0 167 110 268q113 102 306 102t306 -102q110 -101 110 -268zM595 902h98
q-14 -81 -45 -110q-32 -28 -84 -28q-49 0 -95 22l-31 16q-48 25 -65 25q-24 0 -36 -17q-12 -16 -12 -34h-99q6 61 44 99q36 36 99 36q43 0 87 -22l33 -17q44 -23 63 -23q22 0 33 18q8 10 10 35z" />
    <glyph glyph-name="Odieresis" unicode="&#xd6;" horiz-adv-x="919" 
d="M458 580q-97 0 -152 -54q-64 -61 -64 -176t64 -176q55 -54 152 -54t152 54q64 61 64 176t-64 176q-55 54 -152 54zM874 350q0 -171 -110 -268q-113 -102 -306 -102t-306 102q-110 97 -110 268q0 167 110 268q113 102 306 102t306 -102q110 -101 110 -268zM511 766v111
h155v-111h-155zM248 766v111h154v-111h-154z" />
    <glyph glyph-name="multiply" unicode="&#xd7;" horiz-adv-x="602" 
d="M56 171l175 174l-175 173l69 69l174 -174l178 178l69 -69l-179 -177l177 -179l-68 -68l-177 179l-174 -174z" />
    <glyph glyph-name="Oslash" unicode="&#xd8;" horiz-adv-x="919" 
d="M649 470l-330 -308q56 -42 139 -42q97 0 152 54q64 61 64 176q0 68 -25 120zM458 580q-97 0 -152 -54q-64 -61 -64 -176q0 -68 25 -120l331 307q-56 43 -140 43zM874 350q0 -171 -110 -268q-113 -102 -306 -102q-150 0 -261 68l-110 -102l-57 63l101 94q-89 97 -89 247
q0 167 110 268q113 102 306 102q150 0 262 -69l111 103l56 -63l-101 -94q48 -54 68 -112.5t20 -134.5z" />
    <glyph glyph-name="Ugrave" unicode="&#xd9;" horiz-adv-x="832" 
d="M762 700v-425q0 -140 -71 -211q-51 -51 -118.5 -66.5t-158.5 -15.5t-158.5 15.5t-118.5 66.5q-71 71 -71 211v425h184v-406q0 -90 39 -129q36 -39 125 -39q86 0 125 39t39 129v406h184zM417 910l80 -144h-118l-127 144h165z" />
    <glyph glyph-name="Uacute" unicode="&#xda;" horiz-adv-x="832" 
d="M762 700v-425q0 -140 -71 -211q-51 -51 -118.5 -66.5t-158.5 -15.5t-158.5 15.5t-118.5 66.5q-71 71 -71 211v425h184v-406q0 -90 39 -129q36 -39 125 -39q86 0 125 39t39 129v406h184zM403 910h165l-127 -144h-118z" />
    <glyph glyph-name="Ucircumflex" unicode="&#xdb;" horiz-adv-x="832" 
d="M762 700v-425q0 -140 -71 -211q-51 -51 -118.5 -66.5t-158.5 -15.5t-158.5 15.5t-118.5 66.5q-71 71 -71 211v425h184v-406q0 -90 39 -129q36 -39 125 -39q86 0 125 39t39 129v406h184zM417 856l-107 -90h-142l142 132h212l142 -132h-141z" />
    <glyph glyph-name="Udieresis" unicode="&#xdc;" horiz-adv-x="832" 
d="M762 700v-425q0 -140 -71 -211q-51 -51 -118.5 -66.5t-158.5 -15.5t-158.5 15.5t-118.5 66.5q-71 71 -71 211v425h184v-406q0 -90 39 -129q36 -39 125 -39q86 0 125 39t39 129v406h184zM468 766v111h155v-111h-155zM205 766v111h154v-111h-154z" />
    <glyph glyph-name="Yacute" unicode="&#xdd;" 
d="M386 401l175 299h204l-295 -433v-267h-184v267l-295 433h218zM375 910h165l-127 -144h-118z" />
    <glyph glyph-name="Thorn" unicode="&#xde;" horiz-adv-x="778" 
d="M258 458v-189h166q80 0 109 29q26 24 26 71q0 45 -34 69q-26 20 -90 20h-177zM75 700h184v-102h191q84 0 138.5 -12t96.5 -51q65 -61 65 -167q0 -104 -57 -166q-43 -47 -102 -60t-153 -13h-179v-129h-184v700z" />
    <glyph glyph-name="germandbls" unicode="&#xdf;" horiz-adv-x="687" 
d="M61 0v431q0 43 2 70.5t16.5 68.5t41.5 69q70 72 215 72q120 0 183 -41q74 -49 74 -141q0 -58 -33 -92q-26 -29 -68 -37v-4q68 -12 113 -54q50 -49 50 -133q0 -106 -65 -163q-27 -25 -63 -37.5t-59 -14t-62 -1.5q-63 0 -103 11v114q26 -9 58 -9q54 0 83 31t29 79
q0 57 -42 82q-35 21 -109 21h-19v108h17q57 0 82 19q31 21 31 68q0 36 -26 58q-24 22 -68 22q-49 0 -76 -28q-26 -29 -26 -92v-477h-176z" />
    <glyph glyph-name="agrave" unicode="&#xe0;" horiz-adv-x="708" 
d="M457 226v8q-14 -12 -31.5 -16.5t-59.5 -8.5l-37 -4q-51 -5 -71 -18q-24 -19 -24 -43q0 -27 21 -43q20 -16 67 -16q64 0 99 35q36 36 36 106zM249 344h-178q0 70 49 119q39 38 94.5 51t136.5 13q177 0 241 -67q19 -20 29.5 -47t12 -45t1.5 -47v-226q0 -37 8 -61
q10 -17 28 -20v-14h-192l-11 50h-4q-29 -37 -79 -54q-46 -15 -121 -15q-111 0 -158 32q-59 42 -59 121q0 63 38 100q22 21 61 34t60.5 16t64.5 7l80 7q31 3 43.5 4t27.5 5.5t22 12.5q12 12 12 33q0 32 -32 50q-24 14 -70 14q-50 0 -76 -18q-28 -22 -29 -55zM355 712l80 -144
h-118l-127 144h165z" />
    <glyph glyph-name="aacute" unicode="&#xe1;" horiz-adv-x="708" 
d="M457 226v8q-14 -12 -31.5 -16.5t-59.5 -8.5l-37 -4q-51 -5 -71 -18q-24 -19 -24 -43q0 -27 21 -43q20 -16 67 -16q64 0 99 35q36 36 36 106zM249 344h-178q0 70 49 119q39 38 94.5 51t136.5 13q177 0 241 -67q19 -20 29.5 -47t12 -45t1.5 -47v-226q0 -37 8 -61
q10 -17 28 -20v-14h-192l-11 50h-4q-29 -37 -79 -54q-46 -15 -121 -15q-111 0 -158 32q-59 42 -59 121q0 63 38 100q22 21 61 34t60.5 16t64.5 7l80 7q31 3 43.5 4t27.5 5.5t22 12.5q12 12 12 33q0 32 -32 50q-24 14 -70 14q-50 0 -76 -18q-28 -22 -29 -55zM351 712h165
l-127 -144h-118z" />
    <glyph glyph-name="acircumflex" unicode="&#xe2;" horiz-adv-x="708" 
d="M457 226v8q-14 -12 -31.5 -16.5t-59.5 -8.5l-37 -4q-51 -5 -71 -18q-24 -19 -24 -43q0 -27 21 -43q20 -16 67 -16q64 0 99 35q36 36 36 106zM249 344h-178q0 70 49 119q39 38 94.5 51t136.5 13q177 0 241 -67q19 -20 29.5 -47t12 -45t1.5 -47v-226q0 -37 8 -61
q10 -17 28 -20v-14h-192l-11 50h-4q-29 -37 -79 -54q-46 -15 -121 -15q-111 0 -158 32q-59 42 -59 121q0 63 38 100q22 21 61 34t60.5 16t64.5 7l80 7q31 3 43.5 4t27.5 5.5t22 12.5q12 12 12 33q0 32 -32 50q-24 14 -70 14q-50 0 -76 -18q-28 -22 -29 -55zM355 658
l-107 -90h-142l142 132h212l142 -132h-141z" />
    <glyph glyph-name="atilde" unicode="&#xe3;" horiz-adv-x="708" 
d="M457 226v8q-14 -12 -31.5 -16.5t-59.5 -8.5l-37 -4q-51 -5 -71 -18q-24 -19 -24 -43q0 -27 21 -43q20 -16 67 -16q64 0 99 35q36 36 36 106zM249 344h-178q0 70 49 119q39 38 94.5 51t136.5 13q177 0 241 -67q19 -20 29.5 -47t12 -45t1.5 -47v-226q0 -37 8 -61
q10 -17 28 -20v-14h-192l-11 50h-4q-29 -37 -79 -54q-46 -15 -121 -15q-111 0 -158 32q-59 42 -59 121q0 63 38 100q22 21 61 34t60.5 16t64.5 7l80 7q31 3 43.5 4t27.5 5.5t22 12.5q12 12 12 33q0 32 -32 50q-24 14 -70 14q-50 0 -76 -18q-28 -22 -29 -55zM489 708h98
q-14 -81 -45 -110q-32 -28 -84 -28q-49 0 -95 22l-31 16q-48 25 -65 25q-24 0 -36 -17q-12 -16 -12 -34h-99q6 61 44 99q36 36 99 36q43 0 87 -22l33 -17q44 -23 63 -23q22 0 33 18q8 10 10 35z" />
    <glyph glyph-name="adieresis" unicode="&#xe4;" horiz-adv-x="708" 
d="M457 226v8q-14 -12 -31.5 -16.5t-59.5 -8.5l-37 -4q-51 -5 -71 -18q-24 -19 -24 -43q0 -27 21 -43q20 -16 67 -16q64 0 99 35q36 36 36 106zM249 344h-178q0 70 49 119q39 38 94.5 51t136.5 13q177 0 241 -67q19 -20 29.5 -47t12 -45t1.5 -47v-226q0 -37 8 -61
q10 -17 28 -20v-14h-192l-11 50h-4q-29 -37 -79 -54q-46 -15 -121 -15q-111 0 -158 32q-59 42 -59 121q0 63 38 100q22 21 61 34t60.5 16t64.5 7l80 7q31 3 43.5 4t27.5 5.5t22 12.5q12 12 12 33q0 32 -32 50q-24 14 -70 14q-50 0 -76 -18q-28 -22 -29 -55zM405 597v111h155
v-111h-155zM142 597v111h154v-111h-154z" />
    <glyph glyph-name="aring" unicode="&#xe5;" horiz-adv-x="708" 
d="M457 226v8q-14 -12 -31.5 -16.5t-59.5 -8.5l-37 -4q-51 -5 -71 -18q-24 -19 -24 -43q0 -27 21 -43q20 -16 67 -16q64 0 99 35q36 36 36 106zM249 344h-178q0 70 49 119q39 38 94.5 51t136.5 13q177 0 241 -67q19 -20 29.5 -47t12 -45t1.5 -47v-226q0 -37 8 -61
q10 -17 28 -20v-14h-192l-11 50h-4q-29 -37 -79 -54q-46 -15 -121 -15q-111 0 -158 32q-59 42 -59 121q0 63 38 100q22 21 61 34t60.5 16t64.5 7l80 7q31 3 43.5 4t27.5 5.5t22 12.5q12 12 12 33q0 32 -32 50q-24 14 -70 14q-50 0 -76 -18q-28 -22 -29 -55zM293 684
q0 -26 17.5 -43.5t43.5 -17.5t43.5 17.5t17.5 43.5t-17.5 43.5t-43.5 17.5t-43.5 -17.5t-17.5 -43.5zM236 684q0 48 35 83t83 35t83 -35t35 -83t-35 -83t-83 -35t-83 35t-35 83z" />
    <glyph glyph-name="ae" unicode="&#xe6;" horiz-adv-x="1133" 
d="M449 227v9q-14 -12 -32 -16.5t-60 -8.5l-37 -4q-56 -6 -73 -19q-22 -14 -22 -43q0 -28 21 -44q20 -16 68 -16q63 0 98 35q37 37 37 107zM633 308h279q-5 51 -38 81q-32 30 -100 30q-65 0 -102 -33q-32 -31 -39 -78zM910 170h171q-8 -115 -125 -167q-54 -22 -172 -22
q-97 0 -160 26q-65 28 -96 87q-35 -64 -101 -91q-54 -22 -157 -22q-124 0 -172 31q-61 41 -61 121q0 66 49 106q46 37 175 48l80 7q74 6 91 22q14 13 14 34q0 34 -32 52q-28 15 -75 15q-46 0 -74 -18q-28 -20 -28 -50v-5h-178q2 76 47 121q59 62 218 62q99 0 155 -20
q52 -20 77 -64q36 38 78 58q52 26 140 26q167 0 246 -76q70 -70 70 -222v-14h-457q5 -56 39 -87q36 -35 111 -35q55 0 83 17q37 22 44 60z" />
    <glyph glyph-name="ccedilla" unicode="&#xe7;" horiz-adv-x="690" 
d="M652 328h-169q-3 44 -38 66q-29 19 -83 19q-69 0 -105 -41q-38 -43 -38 -123q0 -79 41 -120q34 -34 103 -34q57 0 83 20q37 26 38 76h170v-3q0 -81 -54 -139q-41 -43 -100 -55.5t-144 -12.5q-52 0 -88.5 3.5t-83.5 20.5t-78 48q-69 69 -69 193q0 125 68 197q78 84 246 84
q136 0 209 -43q92 -52 92 -156zM222 -242l23 66q45 -14 90 -14q35 0 45 6q20 9 20 29q0 21 -28 30q-16 5 -53 5q-31 0 -51 -4l21 64q28 4 57 4q78 0 111 -20q47 -26 47 -82q0 -57 -47 -83q-35 -19 -109 -19q-78 0 -126 18z" />
    <glyph glyph-name="egrave" unicode="&#xe8;" horiz-adv-x="721" 
d="M220 311h281q-4 52 -36 78q-34 30 -104 30q-63 0 -99 -28q-38 -31 -42 -80zM498 166h177q-12 -114 -110 -158q-62 -27 -191 -27q-98 0 -160 15t-107 60q-70 70 -70 190q0 129 76 202q83 79 247 79q171 0 253 -82q69 -69 69 -206v-18h-465v-3q0 -58 33 -91q34 -34 112 -34
q62 0 91 14q36 17 45 59zM362 712l80 -144h-118l-127 144h165z" />
    <glyph glyph-name="eacute" unicode="&#xe9;" horiz-adv-x="721" 
d="M220 311h281q-4 52 -36 78q-34 30 -104 30q-63 0 -99 -28q-38 -31 -42 -80zM498 166h177q-12 -114 -110 -158q-62 -27 -191 -27q-98 0 -160 15t-107 60q-70 70 -70 190q0 129 76 202q83 79 247 79q171 0 253 -82q69 -69 69 -206v-18h-465v-3q0 -58 33 -91q34 -34 112 -34
q62 0 91 14q36 17 45 59zM358 712h165l-127 -144h-118z" />
    <glyph glyph-name="ecircumflex" unicode="&#xea;" horiz-adv-x="721" 
d="M220 311h281q-4 52 -36 78q-34 30 -104 30q-63 0 -99 -28q-38 -31 -42 -80zM498 166h177q-12 -114 -110 -158q-62 -27 -191 -27q-98 0 -160 15t-107 60q-70 70 -70 190q0 129 76 202q83 79 247 79q171 0 253 -82q69 -69 69 -206v-18h-465v-3q0 -58 33 -91q34 -34 112 -34
q62 0 91 14q36 17 45 59zM361 658l-107 -90h-142l142 132h212l142 -132h-141z" />
    <glyph glyph-name="edieresis" unicode="&#xeb;" horiz-adv-x="721" 
d="M220 311h281q-4 52 -36 78q-34 30 -104 30q-63 0 -99 -28q-38 -31 -42 -80zM498 166h177q-12 -114 -110 -158q-62 -27 -191 -27q-98 0 -160 15t-107 60q-70 70 -70 190q0 129 76 202q83 79 247 79q171 0 253 -82q69 -69 69 -206v-18h-465v-3q0 -58 33 -91q34 -34 112 -34
q62 0 91 14q36 17 45 59zM411 597v111h155v-111h-155zM148 597v111h154v-111h-154z" />
    <glyph glyph-name="igrave" unicode="&#xec;" horiz-adv-x="302" 
d="M61 508h176v-508h-176v508zM154 712l80 -144h-118l-127 144h165z" />
    <glyph glyph-name="iacute" unicode="&#xed;" horiz-adv-x="302" 
d="M61 508h176v-508h-176v508zM150 712h165l-127 -144h-118z" />
    <glyph glyph-name="icircumflex" unicode="&#xee;" horiz-adv-x="302" 
d="M61 508h176v-508h-176v508zM153 658l-107 -90h-142l142 132h212l142 -132h-141z" />
    <glyph glyph-name="idieresis" unicode="&#xef;" horiz-adv-x="302" 
d="M61 508h176v-508h-176v508zM203 597v111h155v-111h-155zM-60 597v111h154v-111h-154z" />
    <glyph glyph-name="eth" unicode="&#xf0;" horiz-adv-x="770" 
d="M369 406q-67 0 -106 -39q-44 -44 -44 -119q0 -72 42 -114q40 -40 107 -40t108 41q43 43 43 119q0 66 -42 111q-40 41 -108 41zM175 696l14 88q121 -10 222 -45l122 66l35 -62l-79 -45q95 -44 150 -122q41 -58 53.5 -115.5t12.5 -126.5q0 -180 -90 -270q-84 -82 -251 -82
q-177 0 -257 80q-70 70 -70 189t76 191q78 75 224 75q96 0 153 -30q52 -26 85 -82h7q-6 91 -68 153q-50 50 -121 74l-188 -96l-32 62l140 71q-69 18 -138 27z" />
    <glyph glyph-name="ntilde" unicode="&#xf1;" horiz-adv-x="709" 
d="M61 508h169v-62q32 35 71 56q46 23 113 23q101 0 159 -37q74 -47 74 -174v-314h-176v275q0 80 -30 108q-24 24 -71 24q-58 0 -92 -36q-41 -43 -41 -138v-233h-176v508zM490 708h98q-14 -81 -45 -110q-32 -28 -84 -28q-49 0 -95 22l-31 16q-48 25 -65 25q-24 0 -36 -17
q-12 -16 -12 -34h-99q6 61 44 99q36 36 99 36q43 0 87 -22l33 -17q44 -23 63 -23q22 0 33 18q8 10 10 35z" />
    <glyph glyph-name="ograve" unicode="&#xf2;" horiz-adv-x="740" 
d="M369 413q-70 0 -108 -38q-42 -42 -42 -121t42 -121q38 -38 108 -38t108 38q42 42 42 121t-42 121q-38 38 -108 38zM701 254q0 -135 -88 -206q-83 -67 -244 -67t-244 67q-88 71 -88 206t88 206q85 67 244 67t244 -67q88 -71 88 -206zM371 712l80 -144h-118l-127 144h165z
" />
    <glyph glyph-name="oacute" unicode="&#xf3;" horiz-adv-x="740" 
d="M369 413q-70 0 -108 -38q-42 -42 -42 -121t42 -121q38 -38 108 -38t108 38q42 42 42 121t-42 121q-38 38 -108 38zM701 254q0 -135 -88 -206q-83 -67 -244 -67t-244 67q-88 71 -88 206t88 206q85 67 244 67t244 -67q88 -71 88 -206zM367 712h165l-127 -144h-118z" />
    <glyph glyph-name="ocircumflex" unicode="&#xf4;" horiz-adv-x="740" 
d="M369 413q-70 0 -108 -38q-42 -42 -42 -121t42 -121q38 -38 108 -38t108 38q42 42 42 121t-42 121q-38 38 -108 38zM701 254q0 -135 -88 -206q-83 -67 -244 -67t-244 67q-88 71 -88 206t88 206q85 67 244 67t244 -67q88 -71 88 -206zM371 658l-107 -90h-142l142 132h212
l142 -132h-141z" />
    <glyph glyph-name="otilde" unicode="&#xf5;" horiz-adv-x="740" 
d="M369 413q-70 0 -108 -38q-42 -42 -42 -121t42 -121q38 -38 108 -38t108 38q42 42 42 121t-42 121q-38 38 -108 38zM701 254q0 -135 -88 -206q-83 -67 -244 -67t-244 67q-88 71 -88 206t88 206q85 67 244 67t244 -67q88 -71 88 -206zM505 708h98q-14 -81 -45 -110
q-32 -28 -84 -28q-49 0 -95 22l-31 16q-48 25 -65 25q-24 0 -36 -17q-12 -16 -12 -34h-99q6 61 44 99q36 36 99 36q43 0 87 -22l33 -17q44 -23 63 -23q22 0 33 18q8 10 10 35z" />
    <glyph glyph-name="odieresis" unicode="&#xf6;" horiz-adv-x="740" 
d="M369 413q-70 0 -108 -38q-42 -42 -42 -121t42 -121q38 -38 108 -38t108 38q42 42 42 121t-42 121q-38 38 -108 38zM701 254q0 -135 -88 -206q-83 -67 -244 -67t-244 67q-88 71 -88 206t88 206q85 67 244 67t244 -67q88 -71 88 -206zM421 597v111h155v-111h-155zM158 597
v111h154v-111h-154z" />
    <glyph glyph-name="divide" unicode="&#xf7;" horiz-adv-x="653" 
d="M254 149q0 29 21.5 50.5t50.5 21.5t50.5 -21.5t21.5 -50.5t-21.5 -50.5t-50.5 -21.5t-50.5 21.5t-21.5 50.5zM254 519q0 29 21.5 50.5t50.5 21.5t50.5 -21.5t21.5 -50.5t-21.5 -50.5t-50.5 -21.5t-50.5 21.5t-21.5 50.5zM50 287v94h553v-94h-553z" />
    <glyph glyph-name="oslash" unicode="&#xf8;" horiz-adv-x="740" 
d="M503 335l-224 -216q34 -24 90 -24q70 0 108 38q42 42 42 121q0 43 -16 81zM369 413q-70 0 -108 -38q-42 -42 -42 -121q0 -44 16 -82l226 216q-38 25 -92 25zM701 254q0 -135 -88 -206q-81 -67 -244 -67q-113 0 -195 37l-70 -67l-48 49l59 57q-78 75 -78 197q0 135 88 206
q86 67 244 67q117 0 197 -38l70 67l48 -48l-60 -58q43 -41 60 -87t17 -109z" />
    <glyph glyph-name="ugrave" unicode="&#xf9;" horiz-adv-x="706" 
d="M477 0v63h-4q-32 -42 -76 -61q-41 -18 -119 -18q-116 0 -167 49q-53 50 -53 162v313h176v-281q0 -72 29 -99q26 -26 78 -26q57 0 89 34q35 38 35 127v245h176v-508h-164zM354 712l80 -144h-118l-127 144h165z" />
    <glyph glyph-name="uacute" unicode="&#xfa;" horiz-adv-x="706" 
d="M477 0v63h-4q-32 -42 -76 -61q-41 -18 -119 -18q-116 0 -167 49q-53 50 -53 162v313h176v-281q0 -72 29 -99q26 -26 78 -26q57 0 89 34q35 38 35 127v245h176v-508h-164zM350 712h165l-127 -144h-118z" />
    <glyph glyph-name="ucircumflex" unicode="&#xfb;" horiz-adv-x="706" 
d="M477 0v63h-4q-32 -42 -76 -61q-41 -18 -119 -18q-116 0 -167 49q-53 50 -53 162v313h176v-281q0 -72 29 -99q26 -26 78 -26q57 0 89 34q35 38 35 127v245h176v-508h-164zM354 658l-107 -90h-142l142 132h212l142 -132h-141z" />
    <glyph glyph-name="udieresis" unicode="&#xfc;" horiz-adv-x="706" 
d="M477 0v63h-4q-32 -42 -76 -61q-41 -18 -119 -18q-116 0 -167 49q-53 50 -53 162v313h176v-281q0 -72 29 -99q26 -26 78 -26q57 0 89 34q35 38 35 127v245h176v-508h-164zM404 597v111h155v-111h-155zM141 597v111h154v-111h-154z" />
    <glyph glyph-name="yacute" unicode="&#xfd;" horiz-adv-x="599" 
d="M59 -177v109q28 -9 53 -9q39 0 60 17q23 19 38 61l10 30l-216 477h177l135 -339l118 339h165l-216 -517q-2 -5 -11 -25t-12 -26.5t-11 -22.5t-13 -24t-13.5 -18.5t-16.5 -18.5q-31 -29 -65 -38t-81 -9q-58 0 -101 14zM297 712h165l-127 -144h-118z" />
    <glyph glyph-name="thorn" unicode="&#xfe;" horiz-adv-x="735" 
d="M373 412q-60 0 -98 -39q-43 -48 -43 -121q0 -76 40 -117q39 -39 104 -39q66 0 101 41q37 42 37 118q0 72 -37 115q-39 42 -104 42zM61 700h168v-256h3q27 36 66 56q49 24 126 24q127 0 198 -64q74 -71 74 -202q0 -137 -74 -209q-41 -41 -89.5 -53t-110.5 -12
q-78 0 -117 17q-40 16 -68 53v-239h-176v885z" />
    <glyph glyph-name="ydieresis" unicode="&#xff;" horiz-adv-x="599" 
d="M59 -177v109q28 -9 53 -9q39 0 60 17q23 19 38 61l10 30l-216 477h177l135 -339l118 339h165l-216 -517q-2 -5 -11 -25t-12 -26.5t-11 -22.5t-13 -24t-13.5 -18.5t-16.5 -18.5q-31 -29 -65 -38t-81 -9q-58 0 -101 14zM350 597v111h155v-111h-155zM87 597v111h154v-111
h-154z" />
    <glyph glyph-name="Amacron" unicode="&#x100;" horiz-adv-x="790" 
d="M289 262h214l-108 262zM244 142l-61 -142h-192l314 700h181l314 -700h-192l-61 142h-303zM211 766v91h368v-91h-368z" />
    <glyph glyph-name="amacron" unicode="&#x101;" horiz-adv-x="708" 
d="M457 226v8q-14 -12 -31.5 -16.5t-59.5 -8.5l-37 -4q-51 -5 -71 -18q-24 -19 -24 -43q0 -27 21 -43q20 -16 67 -16q64 0 99 35q36 36 36 106zM249 344h-178q0 70 49 119q39 38 94.5 51t136.5 13q177 0 241 -67q19 -20 29.5 -47t12 -45t1.5 -47v-226q0 -37 8 -61
q10 -17 28 -20v-14h-192l-11 50h-4q-29 -37 -79 -54q-46 -15 -121 -15q-111 0 -158 32q-59 42 -59 121q0 63 38 100q22 21 61 34t60.5 16t64.5 7l80 7q31 3 43.5 4t27.5 5.5t22 12.5q12 12 12 33q0 32 -32 50q-24 14 -70 14q-50 0 -76 -18q-28 -22 -29 -55zM170 598v91h368
v-91h-368z" />
    <glyph glyph-name="Abreve" unicode="&#x102;" horiz-adv-x="790" 
d="M289 262h214l-108 262zM244 142l-61 -142h-192l314 700h181l314 -700h-192l-61 142h-303zM486 913h126q1 -62 -37 -100q-45 -47 -176 -47q-136 0 -186 50q-36 33 -36 97h127q-3 -35 27 -56q21 -13 64 -13q47 0 64 13q31 18 27 56z" />
    <glyph glyph-name="abreve" unicode="&#x103;" horiz-adv-x="708" 
d="M457 226v8q-14 -12 -31.5 -16.5t-59.5 -8.5l-37 -4q-51 -5 -71 -18q-24 -19 -24 -43q0 -27 21 -43q20 -16 67 -16q64 0 99 35q36 36 36 106zM249 344h-178q0 70 49 119q39 38 94.5 51t136.5 13q177 0 241 -67q19 -20 29.5 -47t12 -45t1.5 -47v-226q0 -37 8 -61
q10 -17 28 -20v-14h-192l-11 50h-4q-29 -37 -79 -54q-46 -15 -121 -15q-111 0 -158 32q-59 42 -59 121q0 63 38 100q22 21 61 34t60.5 16t64.5 7l80 7q31 3 43.5 4t27.5 5.5t22 12.5q12 12 12 33q0 32 -32 50q-24 14 -70 14q-50 0 -76 -18q-28 -22 -29 -55zM445 717h126
q1 -62 -37 -100q-45 -47 -176 -47q-136 0 -186 50q-36 33 -36 97h127q-3 -35 27 -56q21 -13 64 -13q47 0 64 13q31 18 27 56z" />
    <glyph glyph-name="Aogonek" unicode="&#x104;" horiz-adv-x="790" 
d="M289 262h214l-108 262zM244 142l-61 -142h-192l314 700h181l314 -700h-66q-52 -21 -88 -57q-29 -29 -29 -67q0 -19 12 -31q13 -13 42 -13q26 0 55 8q33 10 77 33l27 -72q-32 -20 -78 -34q-45 -13 -94 -13q-65 0 -102 24q-46 29 -46 87q0 48 31 84q27 32 67 51l-61 142
h-303z" />
    <glyph glyph-name="aogonek" unicode="&#x105;" horiz-adv-x="708" 
d="M457 226v8q-14 -12 -31.5 -16.5t-59.5 -8.5l-37 -4q-51 -5 -71 -18q-24 -19 -24 -43q0 -27 21 -43q20 -16 67 -16q64 0 99 35q36 36 36 106zM249 344h-178q0 70 49 119q39 38 94.5 51t136.5 13q177 0 241 -67q19 -20 29.5 -47t12 -45t1.5 -47v-226q0 -37 8 -61
q10 -17 28 -20v-14q-45 -19 -79 -55q-30 -30 -30 -69q0 -19 12 -31q13 -13 44 -13q33 0 56 8q39 13 75 32l26 -68q-27 -18 -77 -33q-44 -13 -93 -13q-63 0 -100 24q-46 31 -46 85q0 45 31 83q25 31 65 50h-76l-11 50h-4q-29 -37 -79 -54q-46 -15 -121 -15q-111 0 -158 32
q-59 42 -59 121q0 63 38 100q22 21 61 34t60.5 16t64.5 7l80 7q31 3 43.5 4t27.5 5.5t22 12.5q12 12 12 33q0 32 -32 50q-24 14 -70 14q-50 0 -76 -18q-28 -22 -29 -55z" />
    <glyph glyph-name="Cacute" unicode="&#x106;" horiz-adv-x="846" 
d="M626 245h192q-3 -74 -36 -128t-75 -83q-79 -55 -253 -55q-98 0 -174 19t-137 78q-101 94 -101 270q0 167 97 268q105 105 299 105q183 0 274 -62q37 -24 68 -72t33 -120h-192q-5 56 -52 86q-45 28 -118 28q-98 0 -151 -55q-58 -64 -58 -177q0 -117 60 -177
q53 -51 150 -51q83 0 122 27q48 33 52 99zM416 910h165l-127 -144h-118z" />
    <glyph glyph-name="cacute" unicode="&#x107;" horiz-adv-x="690" 
d="M652 328h-169q-3 44 -38 66q-29 19 -83 19q-69 0 -105 -41q-38 -43 -38 -123q0 -79 41 -120q34 -34 103 -34q57 0 83 20q37 26 38 76h170v-3q0 -81 -54 -139q-41 -43 -100 -55.5t-144 -12.5q-52 0 -88.5 3.5t-83.5 20.5t-78 48q-69 69 -69 193q0 125 68 197q78 84 246 84
q136 0 209 -43q92 -52 92 -156zM342 712h165l-127 -144h-118z" />
    <glyph glyph-name="Ccircumflex" unicode="&#x108;" horiz-adv-x="846" 
d="M626 245h192q-3 -74 -36 -128t-75 -83q-79 -55 -253 -55q-98 0 -174 19t-137 78q-101 94 -101 270q0 167 97 268q105 105 299 105q183 0 274 -62q37 -24 68 -72t33 -120h-192q-5 56 -52 86q-45 28 -118 28q-98 0 -151 -55q-58 -64 -58 -177q0 -117 60 -177
q53 -51 150 -51q83 0 122 27q48 33 52 99zM424 856l-107 -90h-142l142 132h212l142 -132h-141z" />
    <glyph glyph-name="ccircumflex" unicode="&#x109;" horiz-adv-x="690" 
d="M652 328h-169q-3 44 -38 66q-29 19 -83 19q-69 0 -105 -41q-38 -43 -38 -123q0 -79 41 -120q34 -34 103 -34q57 0 83 20q37 26 38 76h170v-3q0 -81 -54 -139q-41 -43 -100 -55.5t-144 -12.5q-52 0 -88.5 3.5t-83.5 20.5t-78 48q-69 69 -69 193q0 125 68 197q78 84 246 84
q136 0 209 -43q92 -52 92 -156zM346 658l-107 -90h-142l142 132h212l142 -132h-141z" />
    <glyph glyph-name="Ccaron" unicode="&#x10c;" horiz-adv-x="846" 
d="M626 245h192q-3 -74 -36 -128t-75 -83q-79 -55 -253 -55q-98 0 -174 19t-137 78q-101 94 -101 270q0 167 97 268q105 105 299 105q183 0 274 -62q37 -24 68 -72t33 -120h-192q-5 56 -52 86q-45 28 -118 28q-98 0 -151 -55q-58 -64 -58 -177q0 -117 60 -177
q53 -51 150 -51q83 0 122 27q48 33 52 99zM424 808l106 90h141l-142 -132h-211l-143 132h142z" />
    <glyph glyph-name="ccaron" unicode="&#x10d;" horiz-adv-x="690" 
d="M652 328h-169q-3 44 -38 66q-29 19 -83 19q-69 0 -105 -41q-38 -43 -38 -123q0 -79 41 -120q34 -34 103 -34q57 0 83 20q37 26 38 76h170v-3q0 -81 -54 -139q-41 -43 -100 -55.5t-144 -12.5q-52 0 -88.5 3.5t-83.5 20.5t-78 48q-69 69 -69 193q0 125 68 197q78 84 246 84
q136 0 209 -43q92 -52 92 -156zM346 610l106 90h141l-142 -132h-211l-143 132h142z" />
    <glyph glyph-name="Dcaron" unicode="&#x10e;" horiz-adv-x="853" 
d="M259 560v-420h106q125 0 183 48q66 55 66 163t-62 161q-56 48 -176 48h-117zM75 700h325q214 0 315 -98q93 -90 93 -249q0 -164 -93 -257q-43 -43 -109.5 -66t-112 -26.5t-110.5 -3.5h-308v700zM383 808l106 90h141l-142 -132h-211l-143 132h142z" />
    <glyph glyph-name="dcaron" unicode="&#x10f;" horiz-adv-x="846" 
d="M360 412q-66 0 -104 -43q-35 -41 -35 -115q0 -75 41 -120q36 -38 100 -38q61 0 96 35q45 45 45 124q0 67 -34 110q-38 47 -109 47zM506 60h-4q-22 -39 -67 -58q-42 -18 -125 -18q-66 0 -114.5 13t-90.5 56q-68 71 -68 199q0 133 79 206q69 66 200 66q72 0 118 -22
q41 -17 64 -52v250h176v-700h-168v60zM728 582v118h138v-93q0 -86 -39 -128q-34 -34 -99 -36v58q33 0 51 17q23 20 23 61v3h-74z" />
    <glyph glyph-name="Dcroat" unicode="&#x110;" horiz-adv-x="899" 
d="M305 560v-140h157v-106h-157v-174h103q125 0 183 49q30 25 47.5 69t17.5 94q0 103 -59 157q-57 51 -179 51h-113zM121 700h324q214 0 314 -98q95 -90 95 -251t-95 -254q-100 -97 -331 -97h-307v314h-121v106h121v280z" />
    <glyph glyph-name="dslash" unicode="&#x111;" 
d="M361 412q-69 0 -105 -43q-35 -41 -35 -111q0 -82 41 -124q34 -38 100 -38q61 0 96 35q45 45 45 124q0 67 -34 110q-38 47 -108 47zM506 60h-4q-21 -35 -61 -54q-48 -22 -131 -22q-66 0 -114.5 13t-90.5 56q-68 71 -68 201q0 125 79 204q69 66 202 66q72 0 118 -23
q35 -17 62 -51v114h-212v74h212v62h176v-62h101v-74h-101v-564h-168v60z" />
    <glyph glyph-name="Emacron" unicode="&#x112;" horiz-adv-x="748" 
d="M259 422h384v-132h-384v-150h465v-140h-649v700h638v-140h-454v-138zM190 766v91h368v-91h-368z" />
    <glyph glyph-name="emacron" unicode="&#x113;" horiz-adv-x="721" 
d="M220 311h281q-4 52 -36 78q-34 30 -104 30q-63 0 -99 -28q-38 -31 -42 -80zM498 166h177q-12 -114 -110 -158q-62 -27 -191 -27q-98 0 -160 15t-107 60q-70 70 -70 190q0 129 76 202q83 79 247 79q171 0 253 -82q69 -69 69 -206v-18h-465v-3q0 -58 33 -91q34 -34 112 -34
q62 0 91 14q36 17 45 59zM176 598v91h368v-91h-368z" />
    <glyph glyph-name="Edotaccent" unicode="&#x116;" horiz-adv-x="748" 
d="M259 422h384v-132h-384v-150h465v-140h-649v700h638v-140h-454v-138zM295 766v113h153v-113h-153z" />
    <glyph glyph-name="edotaccent" unicode="&#x117;" horiz-adv-x="721" 
d="M220 311h281q-4 52 -36 78q-34 30 -104 30q-63 0 -99 -28q-38 -31 -42 -80zM498 166h177q-12 -114 -110 -158q-62 -27 -191 -27q-98 0 -160 15t-107 60q-70 70 -70 190q0 129 76 202q83 79 247 79q171 0 253 -82q69 -69 69 -206v-18h-465v-3q0 -58 33 -91q34 -34 112 -34
q62 0 91 14q36 17 45 59zM283 597v113h153v-113h-153z" />
    <glyph glyph-name="Eogonek" unicode="&#x118;" horiz-adv-x="748" 
d="M259 422h384v-132h-384v-150h465v-140q-52 -21 -88 -57q-29 -29 -29 -67q0 -19 12 -31q13 -13 42 -13q26 0 55 8q33 10 77 33l27 -72q-32 -20 -78 -34q-45 -13 -94 -13q-65 0 -102 24q-46 29 -46 87q0 48 31 84q27 32 67 51h-523v700h638v-140h-454v-138z" />
    <glyph glyph-name="eogonek" unicode="&#x119;" horiz-adv-x="721" 
d="M220 311h281q-4 52 -36 78q-34 30 -104 30q-63 0 -99 -28q-38 -31 -42 -80zM498 166h177q-8 -107 -110 -158q-4 -2 -19 -8.5t-21.5 -9.5t-18.5 -10t-22 -15.5t-20 -19.5q-30 -32 -30 -69q0 -19 12 -31q13 -13 44 -13q33 0 56 8q39 13 75 32l26 -68q-27 -18 -77 -33
q-44 -13 -93 -13q-63 0 -100 24q-46 31 -46 85q0 45 31 83q17 20 33 31q-71 0 -112.5 3t-91.5 20.5t-84 51.5q-70 70 -70 190q0 129 76 202q83 79 247 79q171 0 253 -82q69 -69 69 -206v-18h-465v-3q0 -58 33 -91q34 -34 112 -34q62 0 91 14q36 17 45 59z" />
    <glyph glyph-name="Ecaron" unicode="&#x11a;" horiz-adv-x="748" 
d="M259 422h384v-132h-384v-150h465v-140h-649v700h638v-140h-454v-138zM375 808l106 90h141l-142 -132h-211l-143 132h142z" />
    <glyph glyph-name="ecaron" unicode="&#x11b;" horiz-adv-x="721" 
d="M220 311h281q-4 52 -36 78q-34 30 -104 30q-63 0 -99 -28q-38 -31 -42 -80zM498 166h177q-12 -114 -110 -158q-62 -27 -191 -27q-98 0 -160 15t-107 60q-70 70 -70 190q0 129 76 202q83 79 247 79q171 0 253 -82q69 -69 69 -206v-18h-465v-3q0 -58 33 -91q34 -34 112 -34
q62 0 91 14q36 17 45 59zM361 610l106 90h141l-142 -132h-211l-143 132h142z" />
    <glyph glyph-name="Gcircumflex" unicode="&#x11c;" horiz-adv-x="894" 
d="M484 375h345v-375h-130l-6 101q-39 -65 -98 -93q-58 -28 -176 -28q-89 0 -159 18.5t-126 78.5q-92 96 -92 266q0 178 107 280q100 98 296 98q164 0 263 -57q106 -68 113 -193h-192q-5 55 -56 85q-42 25 -115 25q-103 0 -156 -53q-60 -63 -60 -182q0 -116 62 -174
q53 -52 154 -52q89 0 134 37q44 37 54 104h-162v114zM448 856l-107 -90h-142l142 132h212l142 -132h-141z" />
    <glyph glyph-name="gcircumflex" unicode="&#x11d;" horiz-adv-x="724" 
d="M222 259q0 -68 37 -106q36 -37 100 -37q60 0 93 34q38 39 38 112q0 75 -38 114q-35 38 -98 38q-53 0 -88 -35q-44 -44 -44 -120zM76 -31h176q2 -30 33 -45q25 -12 72 -12q65 0 95 28q31 28 31 96v38h-4q-22 -30 -59 -47q-36 -17 -117 -17q-124 0 -195 64q-68 64 -68 177
q0 126 72 202q71 71 198 71q69 0 113 -20q37 -18 65 -55h5v59h166v-446q0 -131 -62 -193q-37 -37 -98.5 -51t-154.5 -14q-127 0 -191 34q-77 44 -77 131zM363 658l-107 -90h-142l142 132h212l142 -132h-141z" />
    <glyph glyph-name="Gbreve" unicode="&#x11e;" horiz-adv-x="894" 
d="M484 375h345v-375h-130l-6 101q-39 -65 -98 -93q-58 -28 -176 -28q-89 0 -159 18.5t-126 78.5q-92 96 -92 266q0 178 107 280q100 98 296 98q164 0 263 -57q106 -68 113 -193h-192q-5 55 -56 85q-42 25 -115 25q-103 0 -156 -53q-60 -63 -60 -182q0 -116 62 -174
q53 -52 154 -52q89 0 134 37q44 37 54 104h-162v114zM538 913h126q1 -62 -37 -100q-45 -47 -176 -47q-136 0 -186 50q-36 33 -36 97h127q-3 -35 27 -56q21 -13 64 -13q47 0 64 13q31 18 27 56z" />
    <glyph glyph-name="gbreve" unicode="&#x11f;" horiz-adv-x="724" 
d="M222 259q0 -68 37 -106q36 -37 100 -37q60 0 93 34q38 39 38 112q0 75 -38 114q-35 38 -98 38q-53 0 -88 -35q-44 -44 -44 -120zM76 -31h176q2 -30 33 -45q25 -12 72 -12q65 0 95 28q31 28 31 96v38h-4q-22 -30 -59 -47q-36 -17 -117 -17q-124 0 -195 64q-68 64 -68 177
q0 126 72 202q71 71 198 71q69 0 113 -20q37 -18 65 -55h5v59h166v-446q0 -131 -62 -193q-37 -37 -98.5 -51t-154.5 -14q-127 0 -191 34q-77 44 -77 131zM453 717h126q1 -62 -37 -100q-45 -47 -176 -47q-136 0 -186 50q-36 33 -36 97h127q-3 -35 27 -56q21 -13 64 -13
q47 0 64 13q31 18 27 56z" />
    <glyph glyph-name="Gcommaaccent" unicode="&#x122;" horiz-adv-x="894" 
d="M484 375h345v-375h-130l-6 101q-39 -65 -98 -93q-58 -28 -176 -28q-89 0 -159 18.5t-126 78.5q-92 96 -92 266q0 178 107 280q100 98 296 98q164 0 263 -57q106 -68 113 -193h-192q-5 55 -56 85q-42 25 -115 25q-103 0 -156 -53q-60 -63 -60 -182q0 -116 62 -174
q53 -52 154 -52q89 0 134 37q44 37 54 104h-162v114zM362 -61h163v-88q0 -64 -34 -100q-40 -43 -126 -43h-3v66h5q35 0 54 9q30 13 32 46h-91v110z" />
    <glyph glyph-name="gcommaaccent" unicode="&#x123;" horiz-adv-x="724" 
d="M222 259q0 -68 37 -106q36 -37 100 -37q60 0 93 34q38 39 38 112q0 75 -38 114q-35 38 -98 38q-53 0 -88 -35q-44 -44 -44 -120zM76 -31h176q2 -30 33 -45q25 -12 72 -12q65 0 95 28q31 28 31 96v38h-4q-22 -30 -59 -47q-36 -17 -117 -17q-124 0 -195 64q-68 64 -68 177
q0 126 72 202q71 71 198 71q69 0 113 -20q37 -18 65 -55h5v59h166v-446q0 -131 -62 -193q-37 -37 -98.5 -51t-154.5 -14q-127 0 -191 34q-77 44 -77 131zM415 564h-163v88q0 64 34 100q40 43 126 43h3v-66h-5q-35 0 -54 -9q-30 -13 -32 -46h91v-110z" />
    <glyph glyph-name="Hcircumflex" unicode="&#x124;" horiz-adv-x="854" 
d="M259 298v-298h-184v700h184v-262h332v262h184v-700h-184v298h-332zM428 856l-107 -90h-142l142 132h212l142 -132h-141z" />
    <glyph glyph-name="hcircumflex" unicode="&#x125;" horiz-adv-x="709" 
d="M61 700h176v-247q27 35 67 52q43 20 118 20q94 0 149 -34q35 -22 53 -58.5t20.5 -61.5t2.5 -65v-306h-176v275q0 74 -27 104q-28 28 -79 28q-58 0 -90 -36q-38 -45 -38 -141v-230h-176v700zM149 820l-107 -90h-142l142 132h212l142 -132h-141z" />
    <glyph glyph-name="Imacron" unicode="&#x12a;" horiz-adv-x="338" 
d="M75 700h184v-700h-184v700zM-14 766v91h368v-91h-368z" />
    <glyph glyph-name="imacron" unicode="&#x12b;" horiz-adv-x="302" 
d="M61 508h176v-508h-176v508zM-32 598v91h368v-91h-368z" />
    <glyph glyph-name="Iogonek" unicode="&#x12e;" horiz-adv-x="338" 
d="M75 700h184v-700q-52 -21 -88 -57q-29 -29 -29 -67q0 -19 12 -31q13 -13 42 -13q26 0 55 8q33 10 77 33l27 -72q-32 -20 -78 -34q-45 -13 -94 -13q-65 0 -102 24q-46 29 -46 87q0 48 31 84q27 32 67 51h-58v700z" />
    <glyph glyph-name="iogonek" unicode="&#x12f;" horiz-adv-x="302" 
d="M61 589v118h176v-118h-176zM61 508h176v-508q-44 -35 -57 -50q-28 -33 -28 -66q0 -24 15 -39t47 -15q33 0 47 15q15 15 13 44h98q0 -81 -55 -111q-33 -20 -101 -20q-84 0 -122 25q-48 32 -48 88q0 40 29 77q24 31 62 52h-76v508z" />
    <glyph glyph-name="Idot" unicode="&#x130;" horiz-adv-x="338" 
d="M75 700h184v-700h-184v700zM90 766v113h153v-113h-153z" />
    <glyph glyph-name="dotlessi" unicode="&#x131;" horiz-adv-x="302" 
d="M61 508h176v-508h-176v508z" />
    <glyph glyph-name="Jcircumflex" unicode="&#x134;" horiz-adv-x="673" 
d="M26 264h184v-21q0 -69 25 -96q24 -27 78 -27q52 0 79 29q27 33 27 103v448h184v-447q0 -142 -66 -208q-31 -31 -76.5 -46.5t-71 -17t-71.5 -1.5q-48 0 -77 2t-77 17.5t-77 46.5q-61 61 -61 194v24zM504 856l-107 -90h-142l142 132h212l142 -132h-141z" />
    <glyph glyph-name="jcircumflex" unicode="&#x135;" horiz-adv-x="310" 
d="M69 508h176v-510q0 -99 -46 -145q-41 -41 -135 -41q-53 0 -93 9v110q15 -3 30 -3q34 0 50 17q18 19 18 94v469zM157 658l-107 -90h-142l142 132h212l142 -132h-141z" />
    <glyph glyph-name="Kcommaaccent" unicode="&#x136;" horiz-adv-x="810" 
d="M259 407l314 293h228l-328 -293l347 -406l-226 -1l-244 304l-91 -82v-222h-184v700h184v-293zM320 -61h163v-88q0 -64 -34 -100q-40 -43 -126 -43h-3v66h5q35 0 54 9q30 13 32 46h-91v110z" />
    <glyph glyph-name="kcommaaccent" unicode="&#x137;" horiz-adv-x="652" 
d="M237 312l215 196h199l-236 -202l247 -306h-196l-161 216l-68 -59v-157h-176v700h176v-388zM241 -61h163v-88q0 -64 -34 -100q-40 -43 -126 -43h-3v66h5q35 0 54 9q30 13 32 46h-91v110z" />
    <glyph glyph-name="Lacute" unicode="&#x139;" horiz-adv-x="656" 
d="M642 142v-142h-567v700h184v-558h383zM176 910h165l-127 -144h-118z" />
    <glyph glyph-name="lacute" unicode="&#x13a;" horiz-adv-x="302" 
d="M61 700h176v-700h-176v700zM150 907h165l-127 -144h-118z" />
    <glyph glyph-name="Lcommaaccent" unicode="&#x13b;" horiz-adv-x="656" 
d="M642 142v-142h-567v700h184v-558h383zM243 -61h163v-88q0 -64 -34 -100q-40 -43 -126 -43h-3v66h5q35 0 54 9q30 13 32 46h-91v110z" />
    <glyph glyph-name="lcommaaccent" unicode="&#x13c;" horiz-adv-x="302" 
d="M61 700h176v-700h-176v700zM68 -61h163v-88q0 -64 -34 -100q-40 -43 -126 -43h-3v66h5q35 0 54 9q30 13 32 46h-91v110z" />
    <glyph glyph-name="Lcaron" unicode="&#x13d;" horiz-adv-x="656" 
d="M642 142v-142h-567v700h184v-558h383zM458 582v118h138v-93q0 -86 -39 -128q-34 -34 -99 -36v58q32 0 49 17q23 20 23 61v3h-72z" />
    <glyph glyph-name="lcaron" unicode="&#x13e;" horiz-adv-x="400" 
d="M61 700h176v-700h-176v700zM282 582v118h138v-93q0 -86 -39 -128q-34 -34 -99 -36v58q33 0 51 17q23 20 23 61v3h-74z" />
    <glyph glyph-name="Lslash" unicode="&#x141;" horiz-adv-x="703" 
d="M689 142v-142h-567v202l-122 -89v111l122 89v387h184v-279l180 142v-110l-180 -143v-168h383z" />
    <glyph glyph-name="lslash" unicode="&#x142;" horiz-adv-x="430" 
d="M127 700h176v-227l147 88v-85l-147 -89v-387h-176v310l-147 -83v84l147 85v304z" />
    <glyph glyph-name="Nacute" unicode="&#x143;" horiz-adv-x="870" 
d="M791 700v-700h-179l-353 470v-470h-184v700h180l352 -470v470h184zM392 910h165l-127 -144h-118z" />
    <glyph glyph-name="nacute" unicode="&#x144;" horiz-adv-x="709" 
d="M61 508h169v-62q32 35 71 56q46 23 113 23q101 0 159 -37q74 -47 74 -174v-314h-176v275q0 80 -30 108q-24 24 -71 24q-58 0 -92 -36q-41 -43 -41 -138v-233h-176v508zM352 712h165l-127 -144h-118z" />
    <glyph glyph-name="Ncommaaccent" unicode="&#x145;" horiz-adv-x="870" 
d="M791 700v-700h-179l-353 470v-470h-184v700h180l352 -470v470h184zM350 -61h163v-88q0 -64 -34 -100q-40 -43 -126 -43h-3v66h5q35 0 54 9q30 13 32 46h-91v110z" />
    <glyph glyph-name="ncommaaccent" unicode="&#x146;" horiz-adv-x="709" 
d="M61 508h169v-62q32 35 71 56q46 23 113 23q101 0 159 -37q74 -47 74 -174v-314h-176v275q0 80 -30 108q-24 24 -71 24q-58 0 -92 -36q-41 -43 -41 -138v-233h-176v508zM270 -61h163v-88q0 -64 -34 -100q-40 -43 -126 -43h-3v66h5q35 0 54 9q30 13 32 46h-91v110z" />
    <glyph glyph-name="Ncaron" unicode="&#x147;" horiz-adv-x="870" 
d="M791 700v-700h-179l-353 470v-470h-184v700h180l352 -470v470h184zM436 808l106 90h141l-142 -132h-211l-143 132h142z" />
    <glyph glyph-name="ncaron" unicode="&#x148;" horiz-adv-x="709" 
d="M61 508h169v-62q32 35 71 56q46 23 113 23q101 0 159 -37q74 -47 74 -174v-314h-176v275q0 80 -30 108q-24 24 -71 24q-58 0 -92 -36q-41 -43 -41 -138v-233h-176v508zM355 610l106 90h141l-142 -132h-211l-143 132h142z" />
    <glyph glyph-name="Omacron" unicode="&#x14c;" horiz-adv-x="919" 
d="M458 580q-97 0 -152 -54q-64 -61 -64 -176t64 -176q55 -54 152 -54t152 54q64 61 64 176t-64 176q-55 54 -152 54zM874 350q0 -171 -110 -268q-113 -102 -306 -102t-306 102q-110 97 -110 268q0 167 110 268q113 102 306 102t306 -102q110 -101 110 -268zM275 766v91h368
v-91h-368z" />
    <glyph glyph-name="omacron" unicode="&#x14d;" horiz-adv-x="740" 
d="M369 413q-70 0 -108 -38q-42 -42 -42 -121t42 -121q38 -38 108 -38t108 38q42 42 42 121t-42 121q-38 38 -108 38zM701 254q0 -135 -88 -206q-83 -67 -244 -67t-244 67q-88 71 -88 206t88 206q85 67 244 67t244 -67q88 -71 88 -206zM186 598v91h368v-91h-368z" />
    <glyph glyph-name="Obreve" unicode="&#x14e;" horiz-adv-x="919" 
d="M458 580q-97 0 -152 -54q-64 -61 -64 -176t64 -176q55 -54 152 -54t152 54q64 61 64 176t-64 176q-55 54 -152 54zM874 350q0 -171 -110 -268q-113 -102 -306 -102t-306 102q-110 97 -110 268q0 167 110 268q113 102 306 102t306 -102q110 -101 110 -268zM551 913h126
q1 -62 -37 -100q-45 -47 -176 -47q-136 0 -186 50q-36 33 -36 97h127q-3 -35 27 -56q21 -13 64 -13q47 0 64 13q31 18 27 56z" />
    <glyph glyph-name="obreve" unicode="&#x14f;" horiz-adv-x="740" 
d="M369 413q-70 0 -108 -38q-42 -42 -42 -121t42 -121q38 -38 108 -38t108 38q42 42 42 121t-42 121q-38 38 -108 38zM701 254q0 -135 -88 -206q-83 -67 -244 -67t-244 67q-88 71 -88 206t88 206q85 67 244 67t244 -67q88 -71 88 -206zM461 717h126q1 -62 -37 -100
q-45 -47 -176 -47q-136 0 -186 50q-36 33 -36 97h127q-3 -35 27 -56q21 -13 64 -13q47 0 64 13q31 18 27 56z" />
    <glyph glyph-name="Ohungarumlaut" unicode="&#x150;" horiz-adv-x="919" 
d="M458 580q-97 0 -152 -54q-64 -61 -64 -176t64 -176q55 -54 152 -54t152 54q64 61 64 176t-64 176q-55 54 -152 54zM874 350q0 -171 -110 -268q-113 -102 -306 -102t-306 102q-110 97 -110 268q0 167 110 268q113 102 306 102t306 -102q110 -101 110 -268zM569 904h163
l-116 -138h-121zM347 904h156l-115 -138h-115z" />
    <glyph glyph-name="ohungarumlaut" unicode="&#x151;" horiz-adv-x="740" 
d="M369 413q-70 0 -108 -38q-42 -42 -42 -121t42 -121q38 -38 108 -38t108 38q42 42 42 121t-42 121q-38 38 -108 38zM701 254q0 -135 -88 -206q-83 -67 -244 -67t-244 67q-88 71 -88 206t88 206q85 67 244 67t244 -67q88 -71 88 -206zM480 713h163l-116 -138h-121zM258 713
h156l-115 -138h-115z" />
    <glyph glyph-name="OE" unicode="&#x152;" horiz-adv-x="1378" 
d="M461 580q-97 0 -153 -54q-63 -63 -63 -176q0 -115 63 -176q56 -54 153 -54t153 54q30 30 46.5 78.5t16.5 97.5q0 115 -63 176q-58 54 -153 54zM712 616v84h637v-140h-453v-138h384v-132h-384v-150h465v-140h-649v80q-39 -53 -105 -78q-64 -22 -172 -22q-54 0 -93 4
t-94.5 26t-97.5 63q-105 98 -105 275q0 169 100 269q103 103 299 103q96 0 165 -26q69 -28 103 -78z" />
    <glyph glyph-name="oe" unicode="&#x153;" horiz-adv-x="1205" 
d="M372 413q-66 0 -104 -38q-43 -43 -43 -121t43 -121q38 -38 104 -38q65 0 105 38q43 43 43 121t-43 121q-40 38 -105 38zM706 307h279q-4 52 -38 82q-32 30 -99 30q-66 0 -103 -33q-32 -31 -39 -79zM982 170h171q-8 -115 -125 -167q-54 -22 -172 -22q-97 0 -160 26
q-59 26 -88 73q-41 -55 -99 -77q-57 -22 -159 -22q-143 0 -216 61q-91 74 -91 208t88 209q84 68 234 68q92 0 152 -27t97 -83q30 50 82 78q60 32 159 32q158 0 237 -76q70 -70 70 -222v-15h-457q5 -55 39 -86q36 -35 111 -35q55 0 83 17q37 22 44 60z" />
    <glyph glyph-name="Racute" unicode="&#x154;" horiz-adv-x="821" 
d="M259 560v-171h195q69 0 97 28q23 23 23 60q0 45 -34 68q-24 15 -88 15h-193zM75 0v700h414q164 0 227 -63q48 -48 48 -133q0 -78 -46 -124q-35 -35 -90 -49v-4q52 -9 82 -42q6 -6 11 -13t8 -13t5.5 -14t4 -12.5t3 -13.5t1.5 -13t1 -14t1 -13l5 -79q5 -62 29 -100h-195
q-11 15 -16.5 30.5t-7 25t-3.5 33.5l-3 58q-4 60 -33 85t-90 25h-172v-257h-184zM368 910h165l-127 -144h-118z" />
    <glyph glyph-name="racute" unicode="&#x155;" horiz-adv-x="472" 
d="M458 516v-121q-18 2 -37 2q-72 0 -112 -28q-72 -49 -72 -178v-191h-176v508h169v-83q25 45 77 72q45 23 105 23q25 0 46 -4zM233 712h165l-127 -144h-118z" />
    <glyph glyph-name="Rcommaaccent" unicode="&#x156;" horiz-adv-x="821" 
d="M259 560v-171h195q69 0 97 28q23 23 23 60q0 45 -34 68q-24 15 -88 15h-193zM75 0v700h414q164 0 227 -63q48 -48 48 -133q0 -78 -46 -124q-35 -35 -90 -49v-4q52 -9 82 -42q6 -6 11 -13t8 -13t5.5 -14t4 -12.5t3 -13.5t1.5 -13t1 -14t1 -13l5 -79q5 -62 29 -100h-195
q-11 15 -16.5 30.5t-7 25t-3.5 33.5l-3 58q-4 60 -33 85t-90 25h-172v-257h-184zM326 -61h163v-88q0 -64 -34 -100q-40 -43 -126 -43h-3v66h5q35 0 54 9q30 13 32 46h-91v110z" />
    <glyph glyph-name="rcommaaccent" unicode="&#x157;" horiz-adv-x="472" 
d="M458 516v-121q-18 2 -37 2q-72 0 -112 -28q-72 -49 -72 -178v-191h-176v508h169v-83q25 45 77 72q45 23 105 23q25 0 46 -4zM71 -61h163v-88q0 -64 -34 -100q-40 -43 -126 -43h-3v66h5q35 0 54 9q30 13 32 46h-91v110z" />
    <glyph glyph-name="Rcaron" unicode="&#x158;" horiz-adv-x="821" 
d="M259 560v-171h195q69 0 97 28q23 23 23 60q0 45 -34 68q-24 15 -88 15h-193zM75 0v700h414q164 0 227 -63q48 -48 48 -133q0 -78 -46 -124q-35 -35 -90 -49v-4q52 -9 82 -42q6 -6 11 -13t8 -13t5.5 -14t4 -12.5t3 -13.5t1.5 -13t1 -14t1 -13l5 -79q5 -62 29 -100h-195
q-11 15 -16.5 30.5t-7 25t-3.5 33.5l-3 58q-4 60 -33 85t-90 25h-172v-257h-184zM411 808l106 90h141l-142 -132h-211l-143 132h142z" />
    <glyph glyph-name="rcaron" unicode="&#x159;" horiz-adv-x="472" 
d="M458 516v-121q-18 2 -37 2q-72 0 -112 -28q-72 -49 -72 -178v-191h-176v508h169v-83q25 45 77 72q45 23 105 23q25 0 46 -4zM238 610l106 90h141l-142 -132h-211l-143 132h142z" />
    <glyph glyph-name="Sacute" unicode="&#x15a;" horiz-adv-x="767" 
d="M35 227h192v-4q0 -44 27 -67q38 -38 135 -38q72 0 100 16q46 24 46 70q0 41 -49 60q-20 8 -97 23l-101 16q-49 7 -80.5 13.5t-70 23t-59.5 39.5q-39 46 -39 112q0 119 96 179q81 50 229 50q165 0 244 -47q100 -58 94 -170h-186q-5 45 -42 64q-39 19 -112 19
q-66 0 -96 -19q-35 -23 -35 -61q0 -36 50 -53q26 -11 120 -25l80 -13q131 -23 178 -58q71 -53 71 -153q0 -110 -82 -170q-77 -54 -247 -54q-107 0 -184 16t-125 66q-57 60 -57 161v4zM341 910h165l-127 -144h-118z" />
    <glyph glyph-name="sacute" unicode="&#x15b;" horiz-adv-x="625" 
d="M30 160h172v-3q0 -34 33 -52q30 -13 79 -13q52 0 71 12q28 14 28 40q0 28 -38 45q-21 8 -86 17l-60 9q-106 15 -139 37q-55 34 -55 108q0 87 77 131q60 37 190 37q101 0 179 -27q86 -39 88 -133h-168v2q0 28 -29 42q-25 12 -69 12t-66 -11q-29 -16 -29 -41q0 -23 30 -37
q8 -4 19.5 -7t21 -4t29 -4t33.5 -5l68 -10q92 -13 135 -47q49 -38 49 -107q0 -64 -41 -108q-38 -39 -91.5 -51t-132.5 -12q-93 0 -152.5 12t-98.5 48q-47 47 -47 118v2zM310 712h165l-127 -144h-118z" />
    <glyph glyph-name="Scircumflex" unicode="&#x15c;" horiz-adv-x="767" 
d="M35 227h192v-4q0 -44 27 -67q38 -38 135 -38q72 0 100 16q46 24 46 70q0 41 -49 60q-20 8 -97 23l-101 16q-49 7 -80.5 13.5t-70 23t-59.5 39.5q-39 46 -39 112q0 119 96 179q81 50 229 50q165 0 244 -47q100 -58 94 -170h-186q-5 45 -42 64q-39 19 -112 19
q-66 0 -96 -19q-35 -23 -35 -61q0 -36 50 -53q26 -11 120 -25l80 -13q131 -23 178 -58q71 -53 71 -153q0 -110 -82 -170q-77 -54 -247 -54q-107 0 -184 16t-125 66q-57 60 -57 161v4zM384 856l-107 -90h-142l142 132h212l142 -132h-141z" />
    <glyph glyph-name="scircumflex" unicode="&#x15d;" horiz-adv-x="625" 
d="M30 160h172v-3q0 -34 33 -52q30 -13 79 -13q52 0 71 12q28 14 28 40q0 28 -38 45q-21 8 -86 17l-60 9q-106 15 -139 37q-55 34 -55 108q0 87 77 131q60 37 190 37q101 0 179 -27q86 -39 88 -133h-168v2q0 28 -29 42q-25 12 -69 12t-66 -11q-29 -16 -29 -41q0 -23 30 -37
q8 -4 19.5 -7t21 -4t29 -4t33.5 -5l68 -10q92 -13 135 -47q49 -38 49 -107q0 -64 -41 -108q-38 -39 -91.5 -51t-132.5 -12q-93 0 -152.5 12t-98.5 48q-47 47 -47 118v2zM313 658l-107 -90h-142l142 132h212l142 -132h-141z" />
    <glyph glyph-name="Scedilla" unicode="&#x15e;" horiz-adv-x="767" 
d="M35 227h192v-4q0 -44 27 -67q38 -38 135 -38q72 0 100 16q46 24 46 70q0 41 -49 60q-20 8 -97 23l-101 16q-49 7 -80.5 13.5t-70 23t-59.5 39.5q-39 46 -39 112q0 119 96 179q81 50 229 50q165 0 244 -47q100 -58 94 -170h-186q-5 45 -42 64q-39 19 -112 19
q-66 0 -96 -19q-35 -23 -35 -61q0 -36 50 -53q26 -11 120 -25l80 -13q131 -23 178 -58q71 -53 71 -153q0 -110 -82 -170q-77 -54 -247 -54q-107 0 -184 16t-125 66q-57 60 -57 161v4zM257 -249l25 69q50 -14 91 -14q34 0 44 6q19 8 19 28q0 24 -27 31q-19 5 -48 5
q-14 0 -58 -4l22 68q20 4 63 4q76 0 109 -21q47 -28 47 -86q0 -60 -48 -86q-34 -19 -110 -19q-80 0 -129 19z" />
    <glyph glyph-name="scedilla" unicode="&#x15f;" horiz-adv-x="625" 
d="M30 160h172v-3q0 -34 33 -52q30 -13 79 -13q52 0 71 12q28 14 28 40q0 28 -38 45q-21 8 -86 17l-60 9q-106 15 -139 37q-55 34 -55 108q0 87 77 131q60 37 190 37q101 0 179 -27q86 -39 88 -133h-168v2q0 28 -29 42q-25 12 -69 12t-66 -11q-29 -16 -29 -41q0 -23 30 -37
q8 -4 19.5 -7t21 -4t29 -4t33.5 -5l68 -10q92 -13 135 -47q49 -38 49 -107q0 -64 -41 -108q-38 -39 -91.5 -51t-132.5 -12q-93 0 -152.5 12t-98.5 48q-47 47 -47 118v2zM187 -242l23 66q45 -14 90 -14q35 0 45 6q20 9 20 29q0 21 -28 30q-16 5 -53 5q-31 0 -51 -4l21 64
q28 4 57 4q78 0 111 -20q47 -26 47 -82q0 -57 -47 -83q-35 -19 -109 -19q-78 0 -126 18z" />
    <glyph glyph-name="Scaron" unicode="&#x160;" horiz-adv-x="767" 
d="M35 227h192v-4q0 -44 27 -67q38 -38 135 -38q72 0 100 16q46 24 46 70q0 41 -49 60q-20 8 -97 23l-101 16q-49 7 -80.5 13.5t-70 23t-59.5 39.5q-39 46 -39 112q0 119 96 179q81 50 229 50q165 0 244 -47q100 -58 94 -170h-186q-5 45 -42 64q-39 19 -112 19
q-66 0 -96 -19q-35 -23 -35 -61q0 -36 50 -53q26 -11 120 -25l80 -13q131 -23 178 -58q71 -53 71 -153q0 -110 -82 -170q-77 -54 -247 -54q-107 0 -184 16t-125 66q-57 60 -57 161v4zM384 808l106 90h141l-142 -132h-211l-143 132h142z" />
    <glyph glyph-name="scaron" unicode="&#x161;" horiz-adv-x="625" 
d="M30 160h172v-3q0 -34 33 -52q30 -13 79 -13q52 0 71 12q28 14 28 40q0 28 -38 45q-21 8 -86 17l-60 9q-106 15 -139 37q-55 34 -55 108q0 87 77 131q60 37 190 37q101 0 179 -27q86 -39 88 -133h-168v2q0 28 -29 42q-25 12 -69 12t-66 -11q-29 -16 -29 -41q0 -23 30 -37
q8 -4 19.5 -7t21 -4t29 -4t33.5 -5l68 -10q92 -13 135 -47q49 -38 49 -107q0 -64 -41 -108q-38 -39 -91.5 -51t-132.5 -12q-93 0 -152.5 12t-98.5 48q-47 47 -47 118v2zM313 610l106 90h141l-142 -132h-211l-143 132h142z" />
    <glyph glyph-name="Tcedilla" unicode="&#x162;" horiz-adv-x="699" 
d="M257 560h-244v140h672v-140h-244v-560h-184v560zM205 -249l25 69q50 -14 91 -14q34 0 44 6q19 8 19 28q0 24 -27 31q-19 5 -48 5q-14 0 -58 -4l22 68q20 4 63 4q76 0 109 -21q47 -28 47 -86q0 -60 -48 -86q-34 -19 -110 -19q-80 0 -129 19z" />
    <glyph glyph-name="tcedilla" unicode="&#x163;" horiz-adv-x="438" 
d="M13 400v108h108v151h176v-151h118v-108h-118v-222q0 -44 14 -58q17 -17 54 -17q30 0 52 8v-110q-53 -16 -120 -16q-97 0 -139 39q-37 34 -37 110v266h-108zM132 -242l23 66q45 -14 90 -14q35 0 45 6q20 9 20 29q0 21 -28 30q-16 5 -53 5q-31 0 -51 -4l21 64q28 4 57 4
q78 0 111 -20q47 -26 47 -82q0 -57 -47 -83q-35 -19 -109 -19q-78 0 -126 18z" />
    <glyph glyph-name="Tcaron" unicode="&#x164;" horiz-adv-x="699" 
d="M257 560h-244v140h672v-140h-244v-560h-184v560zM350 808l106 90h141l-142 -132h-211l-143 132h142z" />
    <glyph glyph-name="tcaron" unicode="&#x165;" horiz-adv-x="566" 
d="M13 400v108h108v151h176v-151h118v-108h-118v-222q0 -44 14 -58q17 -17 54 -17q30 0 52 8v-110q-53 -16 -120 -16q-97 0 -139 39q-37 34 -37 110v266h-108zM448 582v118h138v-93q0 -86 -39 -128q-34 -34 -99 -36v58q33 0 51 17q23 20 23 61v3h-74z" />
    <glyph glyph-name="Umacron" unicode="&#x16a;" horiz-adv-x="832" 
d="M762 700v-425q0 -140 -71 -211q-51 -51 -118.5 -66.5t-158.5 -15.5t-158.5 15.5t-118.5 66.5q-71 71 -71 211v425h184v-406q0 -90 39 -129q36 -39 125 -39q86 0 125 39t39 129v406h184zM232 766v91h368v-91h-368z" />
    <glyph glyph-name="umacron" unicode="&#x16b;" horiz-adv-x="706" 
d="M477 0v63h-4q-32 -42 -76 -61q-41 -18 -119 -18q-116 0 -167 49q-53 50 -53 162v313h176v-281q0 -72 29 -99q26 -26 78 -26q57 0 89 34q35 38 35 127v245h176v-508h-164zM169 598v91h368v-91h-368z" />
    <glyph glyph-name="Ubreve" unicode="&#x16c;" horiz-adv-x="832" 
d="M762 700v-425q0 -140 -71 -211q-51 -51 -118.5 -66.5t-158.5 -15.5t-158.5 15.5t-118.5 66.5q-71 71 -71 211v425h184v-406q0 -90 39 -129q36 -39 125 -39q86 0 125 39t39 129v406h184zM507 913h126q1 -62 -37 -100q-45 -47 -176 -47q-136 0 -186 50q-36 33 -36 97h127
q-3 -35 27 -56q21 -13 64 -13q47 0 64 13q31 18 27 56z" />
    <glyph glyph-name="ubreve" unicode="&#x16d;" horiz-adv-x="706" 
d="M477 0v63h-4q-32 -42 -76 -61q-41 -18 -119 -18q-116 0 -167 49q-53 50 -53 162v313h176v-281q0 -72 29 -99q26 -26 78 -26q57 0 89 34q35 38 35 127v245h176v-508h-164zM444 717h126q1 -62 -37 -100q-45 -47 -176 -47q-136 0 -186 50q-36 33 -36 97h127q-3 -35 27 -56
q21 -13 64 -13q47 0 64 13q31 18 27 56z" />
    <glyph glyph-name="Uring" unicode="&#x16e;" horiz-adv-x="832" 
d="M762 700v-425q0 -140 -71 -211q-51 -51 -118.5 -66.5t-158.5 -15.5t-158.5 15.5t-118.5 66.5q-71 71 -71 211v425h184v-406q0 -90 39 -129q36 -39 125 -39q86 0 125 39t39 129v406h184zM355 883q0 -26 17.5 -43.5t43.5 -17.5t43.5 17.5t17.5 43.5t-17.5 43.5t-43.5 17.5
t-43.5 -17.5t-17.5 -43.5zM298 883q0 48 35 83t83 35t83 -35t35 -83t-35 -83t-83 -35t-83 35t-35 83z" />
    <glyph glyph-name="uring" unicode="&#x16f;" horiz-adv-x="706" 
d="M477 0v63h-4q-32 -42 -76 -61q-41 -18 -119 -18q-116 0 -167 49q-53 50 -53 162v313h176v-281q0 -72 29 -99q26 -26 78 -26q57 0 89 34q35 38 35 127v245h176v-508h-164zM292 684q0 -26 17.5 -43.5t43.5 -17.5t43.5 17.5t17.5 43.5t-17.5 43.5t-43.5 17.5t-43.5 -17.5
t-17.5 -43.5zM235 684q0 48 35 83t83 35t83 -35t35 -83t-35 -83t-83 -35t-83 35t-35 83z" />
    <glyph glyph-name="Uhungarumlaut" unicode="&#x170;" horiz-adv-x="832" 
d="M762 700v-425q0 -140 -71 -211q-51 -51 -118.5 -66.5t-158.5 -15.5t-158.5 15.5t-118.5 66.5q-71 71 -71 211v425h184v-406q0 -90 39 -129q36 -39 125 -39q86 0 125 39t39 129v406h184zM520 904h163l-116 -138h-121zM298 904h156l-115 -138h-115z" />
    <glyph glyph-name="uhungarumlaut" unicode="&#x171;" horiz-adv-x="706" 
d="M477 0v63h-4q-32 -42 -76 -61q-41 -18 -119 -18q-116 0 -167 49q-53 50 -53 162v313h176v-281q0 -72 29 -99q26 -26 78 -26q57 0 89 34q35 38 35 127v245h176v-508h-164zM468 713h163l-116 -138h-121zM246 713h156l-115 -138h-115z" />
    <glyph glyph-name="Uogonek" unicode="&#x172;" horiz-adv-x="832" 
d="M762 700v-425q0 -143 -71 -211q-16 -16 -36 -27.5t-50 -24t-38 -16.5q-53 -24 -80 -53q-29 -29 -29 -67q0 -19 12 -31q13 -13 42 -13q26 0 55 8q33 10 77 33l27 -72q-32 -20 -78 -34q-45 -13 -94 -13q-65 0 -102 24q-46 29 -46 87q0 46 31 84q10 13 36 33
q-95 0 -163.5 15.5t-117.5 66.5q-71 71 -71 211v425h184v-406q0 -90 39 -129q36 -39 125 -39q86 0 125 39t39 129v406h184z" />
    <glyph glyph-name="uogonek" unicode="&#x173;" horiz-adv-x="706" 
d="M477 0v63h-4q-32 -42 -76 -61q-41 -18 -119 -18q-116 0 -167 49q-53 50 -53 162v313h176v-281q0 -72 29 -99q26 -26 78 -26q57 0 89 34q35 38 35 127v245h176v-508q-45 -19 -79 -55q-30 -30 -30 -69q0 -19 12 -31q13 -13 44 -13q33 0 56 8q39 13 75 32l26 -68
q-27 -18 -77 -33q-44 -13 -93 -13q-63 0 -100 24q-46 31 -46 85q0 45 31 83q25 31 65 50h-48z" />
    <glyph glyph-name="Ydieresis" unicode="&#x178;" 
d="M386 401l175 299h204l-295 -433v-267h-184v267l-295 433h218zM429 766v111h155v-111h-155zM166 766v111h154v-111h-154z" />
    <glyph glyph-name="Zacute" unicode="&#x179;" horiz-adv-x="731" 
d="M55 700h637v-116l-446 -444h457v-140h-677v135l430 425h-401v140zM359 910h165l-127 -144h-118z" />
    <glyph glyph-name="zacute" unicode="&#x17a;" horiz-adv-x="575" 
d="M46 392v116h486v-109l-318 -283h333v-116h-521v106l325 286h-305zM285 712h165l-127 -144h-118z" />
    <glyph glyph-name="Zdotaccent" unicode="&#x17b;" horiz-adv-x="731" 
d="M55 700h637v-116l-446 -444h457v-140h-677v135l430 425h-401v140zM287 766v113h153v-113h-153z" />
    <glyph glyph-name="zdotaccent" unicode="&#x17c;" horiz-adv-x="575" 
d="M46 392v116h486v-109l-318 -283h333v-116h-521v106l325 286h-305zM210 597v113h153v-113h-153z" />
    <glyph glyph-name="uni018F" unicode="&#x18f;" horiz-adv-x="874" 
d="M624 270h-389q-4 -32 7 -66t44 -56q44 -31 145 -31q97 0 141 39q47 41 52 114zM238 476h-192q21 125 120 187q88 55 256 55q217 0 317 -98q90 -88 90 -263q0 -191 -91 -284q-39 -42 -95 -64.5t-97 -27t-98 -4.5q-195 0 -278 49q-128 78 -128 248v123h582q4 42 -10 77
t-27 48.5t-26 22.5q-48 33 -146 33q-79 0 -121 -27t-56 -75z" />
    <glyph glyph-name="florin" unicode="&#x192;" 
d="M629 508l-30 -114h-128l-105 -413q-22 -87 -59 -124q-30 -30 -67.5 -39t-89.5 -9q-62 0 -110 13l25 101q24 -6 45 -6q39 0 56 17q18 18 29 61l102 398h-113l30 115h112l8 29q22 78 55 111q52 52 165 52q52 0 121 -13l-26 -102q-25 7 -54 7q-39 0 -59 -15q-23 -20 -31 -50
l-5 -19h129z" />
    <glyph glyph-name="uni019F" unicode="&#x19f;" horiz-adv-x="919" 
d="M874 350q0 -171 -110 -268q-113 -102 -306 -102t-306 102q-110 97 -110 268q0 167 110 268q113 102 306 102t306 -102q110 -101 110 -268zM667 299h-418q1 -33 13.5 -63t23.5 -44t22 -23q54 -49 153 -49q95 0 147 47q55 49 59 132zM250 413h416q-6 74 -56 119
q-53 48 -152 48q-102 0 -155 -53q-46 -44 -53 -114z" />
    <glyph glyph-name="uni01CF" unicode="&#x1cf;" horiz-adv-x="338" 
d="M75 700h184v-700h-184v700zM171 808l106 90h141l-142 -132h-211l-143 132h142z" />
    <glyph glyph-name="uni01D0" unicode="&#x1d0;" horiz-adv-x="302" 
d="M61 508h176v-508h-176v508zM153 610l106 90h141l-142 -132h-211l-143 132h142z" />
    <glyph glyph-name="uni01DD" unicode="&#x1dd;" horiz-adv-x="721" 
d="M499 197h-281q4 -52 36 -78q34 -30 104 -30q63 0 99 28q38 31 42 80zM221 342h-177q12 114 110 158q62 27 191 27q98 0 160 -15t107 -60q70 -70 70 -190q0 -129 -76 -202q-79 -79 -247 -79q-171 0 -253 82q-69 69 -69 206v18h465v3q0 58 -33 91q-34 34 -112 34
q-62 0 -91 -14q-36 -17 -45 -59z" />
    <glyph glyph-name="Gcaron" unicode="&#x1e6;" horiz-adv-x="894" 
d="M484 375h345v-375h-130l-6 101q-39 -65 -98 -93q-58 -28 -176 -28q-89 0 -159 18.5t-126 78.5q-92 96 -92 266q0 178 107 280q100 98 296 98q164 0 263 -57q106 -68 113 -193h-192q-5 55 -56 85q-42 25 -115 25q-103 0 -156 -53q-60 -63 -60 -182q0 -116 62 -174
q53 -52 154 -52q89 0 134 37q44 37 54 104h-162v114zM448 808l106 90h141l-142 -132h-211l-143 132h142z" />
    <glyph glyph-name="gcaron" unicode="&#x1e7;" horiz-adv-x="724" 
d="M222 259q0 -68 37 -106q36 -37 100 -37q60 0 93 34q38 39 38 112q0 75 -38 114q-35 38 -98 38q-53 0 -88 -35q-44 -44 -44 -120zM76 -31h176q2 -30 33 -45q25 -12 72 -12q65 0 95 28q31 28 31 96v38h-4q-22 -30 -59 -47q-36 -17 -117 -17q-124 0 -195 64q-68 64 -68 177
q0 126 72 202q71 71 198 71q69 0 113 -20q37 -18 65 -55h5v59h166v-446q0 -131 -62 -193q-37 -37 -98.5 -51t-154.5 -14q-127 0 -191 34q-77 44 -77 131zM363 610l106 90h141l-142 -132h-211l-143 132h142z" />
    <glyph glyph-name="Scommaaccent" unicode="&#x218;" horiz-adv-x="767" 
d="M35 227h192v-4q0 -44 27 -67q38 -38 135 -38q72 0 100 16q46 24 46 70q0 41 -49 60q-20 8 -97 23l-101 16q-49 7 -80.5 13.5t-70 23t-59.5 39.5q-39 46 -39 112q0 119 96 179q81 50 229 50q165 0 244 -47q100 -58 94 -170h-186q-5 45 -42 64q-39 19 -112 19
q-66 0 -96 -19q-35 -23 -35 -61q0 -36 50 -53q26 -11 120 -25l80 -13q131 -23 178 -58q71 -53 71 -153q0 -110 -82 -170q-77 -54 -247 -54q-107 0 -184 16t-125 66q-57 60 -57 161v4zM299 -61h163v-88q0 -64 -34 -100q-40 -43 -126 -43h-3v66h5q35 0 54 9q30 13 32 46h-91
v110z" />
    <glyph glyph-name="scommaaccent" unicode="&#x219;" horiz-adv-x="625" 
d="M30 160h172v-3q0 -34 33 -52q30 -13 79 -13q52 0 71 12q28 14 28 40q0 28 -38 45q-21 8 -86 17l-60 9q-106 15 -139 37q-55 34 -55 108q0 87 77 131q60 37 190 37q101 0 179 -27q86 -39 88 -133h-168v2q0 28 -29 42q-25 12 -69 12t-66 -11q-29 -16 -29 -41q0 -23 30 -37
q8 -4 19.5 -7t21 -4t29 -4t33.5 -5l68 -10q92 -13 135 -47q49 -38 49 -107q0 -64 -41 -108q-38 -39 -91.5 -51t-132.5 -12q-93 0 -152.5 12t-98.5 48q-47 47 -47 118v2zM228 -61h163v-88q0 -64 -34 -100q-40 -43 -126 -43h-3v66h5q35 0 54 9q30 13 32 46h-91v110z" />
    <glyph glyph-name="Tcommaaccent" unicode="&#x21a;" horiz-adv-x="699" 
d="M257 560h-244v140h672v-140h-244v-560h-184v560zM265 -61h163v-88q0 -64 -34 -100q-40 -43 -126 -43h-3v66h5q35 0 54 9q30 13 32 46h-91v110z" />
    <glyph glyph-name="tcommaaccent" unicode="&#x21b;" horiz-adv-x="438" 
d="M13 400v108h108v151h176v-151h118v-108h-118v-222q0 -44 14 -58q17 -17 54 -17q30 0 52 8v-110q-53 -16 -120 -16q-97 0 -139 39q-37 34 -37 110v266h-108zM181 -61h163v-88q0 -64 -34 -100q-40 -43 -126 -43h-3v66h5q35 0 54 9q30 13 32 46h-91v110z" />
    <glyph glyph-name="uni0228" unicode="&#x228;" horiz-adv-x="748" 
d="M259 422h384v-132h-384v-150h465v-140h-649v700h638v-140h-454v-138zM267 -249l25 69q50 -14 91 -14q34 0 44 6q19 8 19 28q0 24 -27 31q-19 5 -48 5q-14 0 -58 -4l22 68q20 4 63 4q76 0 109 -21q47 -28 47 -86q0 -60 -48 -86q-34 -19 -110 -19q-80 0 -129 19z" />
    <glyph glyph-name="uni0229" unicode="&#x229;" horiz-adv-x="721" 
d="M220 311h281q-4 52 -36 78q-34 30 -104 30q-63 0 -99 -28q-38 -31 -42 -80zM498 166h177q-12 -114 -110 -158q-62 -27 -191 -27q-98 0 -160 15t-107 60q-70 70 -70 190q0 129 76 202q83 79 247 79q171 0 253 -82q69 -69 69 -206v-18h-465v-3q0 -58 33 -91q34 -34 112 -34
q62 0 91 14q36 17 45 59zM247 -242l23 66q45 -14 90 -14q35 0 45 6q20 9 20 29q0 21 -28 30q-16 5 -53 5q-31 0 -51 -4l21 64q28 4 57 4q78 0 111 -20q47 -26 47 -82q0 -57 -47 -83q-35 -19 -109 -19q-78 0 -126 18z" />
    <glyph glyph-name="uni0237" unicode="&#x237;" horiz-adv-x="310" 
d="M69 508h176v-510q0 -99 -46 -145q-41 -41 -135 -41q-53 0 -93 9v110q15 -3 30 -3q34 0 50 17q18 19 18 94v469z" />
    <glyph glyph-name="uni0259" unicode="&#x259;" horiz-adv-x="721" 
d="M499 197h-281q4 -52 36 -78q34 -30 104 -30q63 0 99 28q38 31 42 80zM221 342h-177q12 114 110 158q62 27 191 27q98 0 160 -15t107 -60q70 -70 70 -190q0 -129 -76 -202q-79 -79 -247 -79q-171 0 -253 82q-69 69 -69 206v18h465v3q0 58 -33 91q-34 34 -112 34
q-62 0 -91 -14q-36 -17 -45 -59z" />
    <glyph glyph-name="uni0275" unicode="&#x275;" horiz-adv-x="740" 
d="M701 254q0 -135 -88 -206q-83 -67 -244 -67t-244 67q-88 71 -88 206t88 206q85 67 244 67t244 -67q88 -71 88 -206zM517 213h-298q5 -55 39 -84q39 -38 109 -38q68 0 106 32q11 7 26 30.5t18 59.5zM220 299h295q-4 51 -35 82q-36 36 -113 36q-73 0 -111 -38
q-32 -32 -36 -80z" />
    <glyph glyph-name="afii57929" unicode="&#x2bc;" horiz-adv-x="356" 
d="M106 582v118h138v-93q0 -86 -39 -128q-34 -34 -99 -36v58q33 0 51 17q23 20 23 61v3h-74z" />
    <glyph glyph-name="circumflex" unicode="&#x2c6;" horiz-adv-x="596" 
d="M299 658l-107 -90h-142l142 132h212l142 -132h-141z" />
    <glyph glyph-name="caron" unicode="&#x2c7;" horiz-adv-x="596" 
d="M299 610l106 90h141l-142 -132h-211l-143 132h142z" />
    <glyph glyph-name="breve" unicode="&#x2d8;" horiz-adv-x="535" 
d="M359 717h126q1 -62 -37 -100q-45 -47 -176 -47q-136 0 -186 50q-36 33 -36 97h127q-3 -35 27 -56q21 -13 64 -13q47 0 64 13q31 18 27 56z" />
    <glyph glyph-name="dotaccent" unicode="&#x2d9;" horiz-adv-x="207" 
d="M26 597v113h153v-113h-153z" />
    <glyph glyph-name="ring" unicode="&#x2da;" horiz-adv-x="336" 
d="M107 684q0 -26 17.5 -43.5t43.5 -17.5t43.5 17.5t17.5 43.5t-17.5 43.5t-43.5 17.5t-43.5 -17.5t-17.5 -43.5zM50 684q0 48 35 83t83 35t83 -35t35 -83t-35 -83t-83 -35t-83 35t-35 83z" />
    <glyph glyph-name="ogonek" unicode="&#x2db;" horiz-adv-x="415" 
d="M365 -128l26 -68q-27 -18 -77 -33q-44 -13 -93 -13q-63 0 -100 24q-46 31 -46 85q0 45 31 83q25 31 65 50h116q-45 -19 -79 -55q-30 -30 -30 -69q0 -19 12 -31q13 -13 44 -13q33 0 56 8q39 13 75 32z" />
    <glyph glyph-name="tilde" unicode="&#x2dc;" horiz-adv-x="567" 
d="M419 708h98q-14 -81 -45 -110q-32 -28 -84 -28q-49 0 -95 22l-31 16q-48 25 -65 25q-24 0 -36 -17q-12 -16 -12 -34h-99q6 61 44 99q36 36 99 36q43 0 87 -22l33 -17q44 -23 63 -23q22 0 33 18q8 10 10 35z" />
    <glyph glyph-name="hungarumlaut" unicode="&#x2dd;" horiz-adv-x="535" 
d="M333 713h163l-116 -138h-121zM111 713h156l-115 -138h-115z" />
    <glyph glyph-name="acutecomb" unicode="&#x301;" horiz-adv-x="2" 
d="M-338 710h167l-127 -142h-120z" />
    <glyph glyph-name="uni0313" unicode="&#x313;" horiz-adv-x="356" 
d="M106 582v118h138v-93q0 -86 -39 -128q-34 -34 -99 -36v58q33 0 51 17q23 20 23 61v3h-74z" />
    <glyph glyph-name="uni0315" unicode="&#x315;" horiz-adv-x="356" 
d="M106 582v118h138v-93q0 -86 -39 -128q-34 -34 -99 -36v58q33 0 51 17q23 20 23 61v3h-74z" />
    <glyph glyph-name="uni0326" unicode="&#x326;" horiz-adv-x="381" 
d="M106 -61h163v-88q0 -64 -34 -100q-40 -43 -126 -43h-3v66h5q35 0 54 9q30 13 32 46h-91v110z" />
    <glyph glyph-name="tonos" unicode="&#x384;" horiz-adv-x="361" 
d="M178 712h165l-127 -144h-118z" />
    <glyph glyph-name="dieresistonos" unicode="&#x385;" horiz-adv-x="635" 
d="M446 734l-138 -158h-104l69 158h173zM20 597v111h154v-111h-154zM460 597v111h155v-111h-155z" />
    <glyph glyph-name="Alphatonos" unicode="&#x386;" horiz-adv-x="790" 
d="M289 262h214l-108 262zM244 142l-61 -142h-192l314 700h181l314 -700h-192l-61 142h-303zM24 700h194l-130 -192h-98z" />
    <glyph glyph-name="anoteleia" unicode="&#x387;" horiz-adv-x="306" 
d="M59 251v162h188v-162h-188z" />
    <glyph glyph-name="Epsilontonos" unicode="&#x388;" horiz-adv-x="969" 
d="M480 422h384v-132h-384v-150h465v-140h-649v700h638v-140h-454v-138zM71 700h194l-130 -192h-98z" />
    <glyph glyph-name="Etatonos" unicode="&#x389;" horiz-adv-x="1082" 
d="M487 298v-298h-184v700h184v-262h332v262h184v-700h-184v298h-332zM68 700h194l-130 -192h-98z" />
    <glyph glyph-name="Iotatonos" unicode="&#x38a;" horiz-adv-x="580" 
d="M317 700h184v-700h-184v700zM82 700h194l-130 -192h-98z" />
    <glyph glyph-name="Omicrontonos" unicode="&#x38c;" horiz-adv-x="1085" 
d="M624 580q-97 0 -152 -54q-64 -61 -64 -176t64 -176q55 -54 152 -54t152 54q64 61 64 176t-64 176q-55 54 -152 54zM1040 350q0 -171 -110 -268q-113 -102 -306 -102t-306 102q-110 97 -110 268q0 167 110 268q113 102 306 102t306 -102q110 -101 110 -268zM76 700h194
l-130 -192h-98z" />
    <glyph glyph-name="Upsilontonos" unicode="&#x38e;" horiz-adv-x="1031" 
d="M662 401l175 299h204l-295 -433v-267h-184v267l-295 433h218zM57 700h194l-130 -192h-98z" />
    <glyph glyph-name="Omegatonos" unicode="&#x38f;" horiz-adv-x="1059" 
d="M680 0v240q60 7 96 43q44 44 44 115q0 83 -55 132q-51 51 -147 51q-93 0 -147 -51q-55 -51 -55 -132q0 -71 44 -115q38 -36 96 -43v-240h-308v130h181v34q-89 12 -143 66q-26 24 -45.5 70.5t-19.5 110.5q0 152 107 232q103 78 290 78t290 -78q107 -80 107 -232
q0 -116 -65 -181q-54 -54 -143 -66v-34h181v-130h-308zM64 700h194l-130 -192h-98z" />
    <glyph glyph-name="iotadieresistonos" unicode="&#x390;" horiz-adv-x="311" 
d="M61 508h176v-347q0 -36 13 -47q10 -9 35 -9h11v-105q-32 -4 -73 -4q-82 0 -111 22q-51 35 -51 111v379zM285 734l-138 -158h-104l69 158h173zM-141 597v111h154v-111h-154zM299 597v111h155v-111h-155z" />
    <glyph glyph-name="Alpha" unicode="&#x391;" horiz-adv-x="790" 
d="M289 262h214l-108 262zM244 142l-61 -142h-192l314 700h181l314 -700h-192l-61 142h-303z" />
    <glyph glyph-name="Beta" unicode="&#x392;" horiz-adv-x="823" 
d="M259 296v-166h196q69 0 84 15q35 23 35 68q0 48 -35 68q-27 15 -87 15h-193zM259 570v-148h165q74 0 99 21q23 19 23 56q0 35 -28 56q-21 15 -84 15h-175zM75 700h404q135 0 188 -36q68 -47 68 -141q0 -70 -42 -110q-17 -15 -40 -26t-37 -14t-19 -3v-4q85 -8 132 -55
q43 -43 43 -119q0 -89 -52 -137q-60 -55 -234 -55h-411v700z" />
    <glyph glyph-name="Gamma" unicode="&#x393;" horiz-adv-x="641" 
d="M259 556v-556h-184v700h552v-144h-368z" />
    <glyph glyph-name="uni0394" unicode="&#x394;" horiz-adv-x="809" 
d="M222 132h340l-168 397zM813 0h-817l331 700h157z" />
    <glyph glyph-name="uni0394" unicode="&#x2206;" horiz-adv-x="809" 
d="M222 132h340l-168 397zM813 0h-817l331 700h157z" />
    <glyph glyph-name="Epsilon" unicode="&#x395;" horiz-adv-x="748" 
d="M259 422h384v-132h-384v-150h465v-140h-649v700h638v-140h-454v-138z" />
    <glyph glyph-name="Zeta" unicode="&#x396;" horiz-adv-x="731" 
d="M55 700h637v-116l-446 -444h457v-140h-677v135l430 425h-401v140z" />
    <glyph glyph-name="Eta" unicode="&#x397;" horiz-adv-x="854" 
d="M259 298v-298h-184v700h184v-262h332v262h184v-700h-184v298h-332z" />
    <glyph glyph-name="Theta" unicode="&#x398;" horiz-adv-x="916" 
d="M313 419h290v-132h-290v132zM874 350q0 -171 -110 -268q-113 -102 -306 -102t-306 102q-110 97 -110 268q0 167 110 268q59 53 139 78q78 24 167 24q193 0 306 -102q110 -101 110 -268zM458 580q-97 0 -152 -54q-64 -61 -64 -176t64 -176q29 -29 71 -43q33 -11 81 -11
q97 0 152 54q64 61 64 176t-64 176q-55 54 -152 54z" />
    <glyph glyph-name="Iota" unicode="&#x399;" horiz-adv-x="338" 
d="M75 700h184v-700h-184v700z" />
    <glyph glyph-name="Kappa" unicode="&#x39a;" horiz-adv-x="775" 
d="M259 399l286 301h220l-331 -326l351 -374h-231l-295 349v-349h-184v700h184v-301z" />
    <glyph glyph-name="Lambda" unicode="&#x39b;" horiz-adv-x="751" 
d="M365 517l-177 -517h-198l282 700h201l281 -700h-207l-176 517h-6z" />
    <glyph glyph-name="Mu" unicode="&#x39c;" horiz-adv-x="1075" 
d="M469 0l-210 521h-7l7 -59v-462h-184v700h260l198 -508h5l198 508h260v-700h-184v462l7 59h-7l-210 -521h-133z" />
    <glyph glyph-name="Nu" unicode="&#x39d;" horiz-adv-x="870" 
d="M791 700v-700h-179l-353 470v-470h-184v700h180l352 -470v470h184z" />
    <glyph glyph-name="Xi" unicode="&#x39e;" horiz-adv-x="667" 
d="M24 140h615v-140h-615v140zM95 426h473v-136h-473v136zM43 700h575v-142h-575v142z" />
    <glyph glyph-name="Omicron" unicode="&#x39f;" horiz-adv-x="919" 
d="M458 580q-97 0 -152 -54q-64 -61 -64 -176t64 -176q55 -54 152 -54t152 54q64 61 64 176t-64 176q-55 54 -152 54zM874 350q0 -171 -110 -268q-113 -102 -306 -102t-306 102q-110 97 -110 268q0 167 110 268q113 102 306 102t306 -102q110 -101 110 -268z" />
    <glyph glyph-name="Pi" unicode="&#x3a0;" horiz-adv-x="840" 
d="M259 560v-560h-184v700h686v-700h-184v560h-318z" />
    <glyph glyph-name="Rho" unicode="&#x3a1;" horiz-adv-x="778" 
d="M259 560v-193h166q80 0 109 29q26 26 26 72t-34 72q-28 20 -90 20h-177zM75 700h375q84 0 138.5 -12t96.5 -51q65 -61 65 -167q0 -104 -57 -166q-43 -47 -102 -60t-153 -13h-179v-231h-184v700z" />
    <glyph glyph-name="Sigma" unicode="&#x3a3;" horiz-adv-x="704" 
d="M660 700v-140h-395l223 -192l-251 -228h439v-140h-644v136l248 231l-233 197v136h613z" />
    <glyph glyph-name="Tau" unicode="&#x3a4;" horiz-adv-x="699" 
d="M257 560h-244v140h672v-140h-244v-560h-184v560z" />
    <glyph glyph-name="Upsilon" unicode="&#x3a5;" 
d="M386 401l175 299h204l-295 -433v-267h-184v267l-295 433h218z" />
    <glyph glyph-name="Phi" unicode="&#x3a6;" horiz-adv-x="1041" 
d="M437 200v313h-23q-89 0 -139 -33q-61 -39 -61 -122q0 -52 21 -83.5t43 -44.5q48 -30 134 -30h25zM602 200h23q89 0 134 28q67 46 67 130q0 46 -20 79t-47 49q-47 27 -135 27h-22v-313zM428 -26v103h-27q-103 0 -175 18t-121 67q-75 73 -75 196q0 118 71 190q89 89 301 89
h26v102h184v-102h25q214 0 303 -89q70 -70 70 -190q0 -125 -74 -196q-50 -50 -122.5 -67.5t-175.5 -17.5h-26v-103h-184z" />
    <glyph glyph-name="Chi" unicode="&#x3a7;" horiz-adv-x="799" 
d="M411 468l172 232h211l-279 -337l284 -363h-235l-167 239l-173 -239h-224l287 363l-273 337h225z" />
    <glyph glyph-name="Psi" unicode="&#x3a8;" horiz-adv-x="976" 
d="M394 0v197q-81 2 -151 22q-125 38 -172 126q-7 13 -12 26t-8 28.5t-5 24t-3 27t-1 23v24.5v21v181h184v-174q0 -71 15.5 -111.5t60.5 -63.5q42 -20 92 -18v367h184v-367q50 -2 92 18q45 23 60.5 63.5t15.5 111.5v174h184v-181v-18v-21t-0.5 -20.5t-1.5 -22.5t-3 -22
t-5.5 -24t-8 -22.5t-10.5 -23.5q-46 -87 -172 -126q-70 -20 -151 -22v-197h-184z" />
    <glyph glyph-name="uni03A9" unicode="&#x3a9;" horiz-adv-x="878" 
d="M501 0v240q60 7 96 43q44 44 44 115q0 83 -55 132q-51 51 -147 51q-93 0 -147 -51q-55 -51 -55 -132q0 -71 44 -115q38 -36 96 -43v-240h-308v130h181v34q-89 12 -143 66q-26 24 -45.5 70.5t-19.5 110.5q0 152 107 232q103 78 290 78t290 -78q107 -80 107 -232
q0 -116 -65 -181q-54 -54 -143 -66v-34h181v-130h-308z" />
    <glyph glyph-name="uni03A9" unicode="&#x2126;" horiz-adv-x="878" 
d="M501 0v240q60 7 96 43q44 44 44 115q0 83 -55 132q-51 51 -147 51q-93 0 -147 -51q-55 -51 -55 -132q0 -71 44 -115q38 -36 96 -43v-240h-308v130h181v34q-89 12 -143 66q-26 24 -45.5 70.5t-19.5 110.5q0 152 107 232q103 78 290 78t290 -78q107 -80 107 -232
q0 -116 -65 -181q-54 -54 -143 -66v-34h181v-130h-308z" />
    <glyph glyph-name="Iotadieresis" unicode="&#x3aa;" horiz-adv-x="338" 
d="M75 700h184v-700h-184v700zM225 767v111h155v-111h-155zM-38 767v111h154v-111h-154z" />
    <glyph glyph-name="Upsilondieresis" unicode="&#x3ab;" 
d="M386 401l175 299h204l-295 -433v-267h-184v267l-295 433h218zM442 767v111h155v-111h-155zM179 767v111h154v-111h-154z" />
    <glyph glyph-name="alphatonos" unicode="&#x3ac;" horiz-adv-x="789" 
d="M745 508l-66 -268q11 -49 29 -116q20 -72 44 -124h-189q-14 45 -21 86h-2q-29 -47 -74 -73q-56 -32 -154 -32q-127 0 -203 76q-72 76 -72 192q0 74 28 130.5t71 89.5q76 58 203 58q97 0 151 -35q34 -22 58 -62h2l18 78h177zM510 262l-12 43q-14 54 -53 85q-34 29 -88 29
q-53 0 -90 -33q-48 -44 -48 -130q0 -80 40 -127q35 -40 92 -40q61 0 101 45q32 37 46 86zM392 712h165l-127 -144h-118z" />
    <glyph glyph-name="epsilontonos" unicode="&#x3ad;" horiz-adv-x="644" 
d="M622 173v-7q0 -92 -74 -142q-64 -43 -230 -43q-141 0 -195 28q-87 39 -87 137q0 26 9 50q7 20 24 36q29 29 79 37v3q-43 6 -66 29q-28 28 -28 71q0 88 92 127q65 28 190 28q46 0 93 -6q96 -13 144 -62q45 -46 43 -109h-170q-3 35 -30 51q-15 9 -33 12q-17 4 -45 4
q-45 0 -68 -10q-39 -14 -39 -50q0 -29 31 -41q15 -9 75 -9h53v-98h-46q-25 0 -38 -1q-40 -1 -62 -13q-24 -14 -24 -41q0 -33 32 -48q24 -13 71 -13q67 0 97 19q32 19 32 54v7h170zM345 712h165l-127 -144h-118z" />
    <glyph glyph-name="etatonos" unicode="&#x3ae;" horiz-adv-x="702" 
d="M465 -185v459q0 67 -23 94q-24 31 -75 31q-21 0 -45 -8q-22 -7 -37 -24q-34 -34 -34 -107v-260h-176v347q0 36 -14 47q-11 9 -34 9h-12v105q32 4 82 4q35 0 45 -2q67 -9 101 -62q24 24 32 30q29 22 62 33q42 16 114 16q89 0 135 -44q55 -50 55 -164v-504h-176zM348 712
h165l-127 -144h-118z" />
    <glyph glyph-name="iotatonos" unicode="&#x3af;" horiz-adv-x="311" 
d="M61 508h176v-347q0 -36 13 -47q10 -9 35 -9h11v-105q-32 -4 -73 -4q-82 0 -111 22q-51 35 -51 111v379zM154 712h165l-127 -144h-118z" />
    <glyph glyph-name="upsilondieresistonos" unicode="&#x3b0;" horiz-adv-x="721" 
d="M232 508v-179q0 -91 10 -130q13 -48 43 -76t76 -28q62 0 96 49q31 42 31 129q0 90 -21 159q-15 49 -34 76l176 12q20 -26 38 -69q24 -59 24 -154q0 -140 -60 -217q-76 -99 -250 -99q-189 0 -260 110q-21 31 -31.5 72.5t-12 71.5t-1.5 82v191h176zM489 734l-138 -158h-104
l69 158h173zM63 597v111h154v-111h-154zM503 597v111h155v-111h-155z" />
    <glyph glyph-name="alpha" unicode="&#x3b1;" horiz-adv-x="789" 
d="M745 508l-66 -268q11 -49 29 -116q20 -72 44 -124h-189q-14 45 -21 86h-2q-29 -47 -74 -73q-56 -32 -154 -32q-127 0 -203 76q-72 76 -72 192q0 74 28 130.5t71 89.5q76 58 203 58q97 0 151 -35q34 -22 58 -62h2l18 78h177zM510 262l-12 43q-14 54 -53 85q-34 29 -88 29
q-53 0 -90 -33q-48 -44 -48 -130q0 -80 40 -127q35 -40 92 -40q61 0 101 45q32 37 46 86z" />
    <glyph glyph-name="beta" unicode="&#x3b2;" horiz-adv-x="726" 
d="M61 -185v652q0 113 55 173q74 80 261 80q109 0 172 -28q103 -50 103 -152q0 -64 -48 -107q-36 -30 -88 -37v-6q67 -6 106 -35q68 -50 68 -143q0 -121 -105 -190q-70 -41 -171 -41q-106 0 -177 44v-210h-176zM237 479v-337q32 -27 79 -39q24 -7 56 -7q59 0 97 31
q39 34 39 81q0 62 -39 92q-36 28 -122 28h-46v114h46q64 0 94 25q26 23 26 60q0 42 -26 63q-25 19 -74 19q-66 0 -98 -28l-9.5 -9.5t-7.5 -8.5t-5.5 -10t-4 -9.5t-2.5 -10.5t-1.5 -9.5t-1 -11t-0.5 -10.5v-11.5v-11.5z" />
    <glyph glyph-name="gamma" unicode="&#x3b3;" horiz-adv-x="644" 
d="M329 199l128 309h187l-230 -468v-225h-176v225l-148 317q-10 21 -23 33q-16 13 -42 13h-21v105q34 6 66 6q67 0 108 -21q18 -10 31 -25t18 -24.5t14 -31.5z" />
    <glyph glyph-name="delta" unicode="&#x3b4;" horiz-adv-x="740" 
d="M369 95q71 0 112 41q38 38 38 107q0 31 -7 53q-8 28 -27 48q-36 38 -115 38q-78 0 -116 -40q-35 -35 -35 -101q0 -68 37 -105q41 -41 113 -41zM643 559h-179q0 20 -18 33q-22 15 -77 15q-45 0 -65 -14q-23 -14 -23 -39q0 -42 67 -52q32 -5 66 -8.5t66 -9.5
q117 -20 167 -75q33 -34 46 -87q8 -31 8 -79q0 -131 -99 -202q-82 -60 -233 -60q-150 0 -233 61q-99 72 -99 196q0 93 54 149q45 48 123 68v4q-22 3 -42.5 11t-40.5 32t-20 59q0 39 17 70q19 34 56 55q55 34 185 34q47 0 95 -6q66 -9 101 -31q74 -44 78 -124z" />
    <glyph glyph-name="epsilon" unicode="&#x3b5;" horiz-adv-x="644" 
d="M622 173v-7q0 -92 -74 -142q-64 -43 -230 -43q-141 0 -195 28q-87 39 -87 137q0 26 9 50q7 20 24 36q29 29 79 37v3q-43 6 -66 29q-28 28 -28 71q0 88 92 127q65 28 190 28q46 0 93 -6q96 -13 144 -62q45 -46 43 -109h-170q-3 35 -30 51q-15 9 -33 12q-17 4 -45 4
q-45 0 -68 -10q-39 -14 -39 -50q0 -29 31 -41q15 -9 75 -9h53v-98h-46q-25 0 -38 -1q-40 -1 -62 -13q-24 -14 -24 -41q0 -33 32 -48q24 -13 71 -13q67 0 97 19q32 19 32 54v7h170z" />
    <glyph glyph-name="zeta" unicode="&#x3b6;" horiz-adv-x="574" 
d="M82 700h476v-118q-131 -16 -224 -91q-114 -93 -114 -241q0 -77 52 -114q37 -24 112 -24h54q74 0 116 -35q44 -38 44 -114q0 -61 -36 -97q-31 -31 -78.5 -41t-119.5 -10h-70v110h49q38 0 59 9q21 10 21 31q0 18 -16 27q-19 8 -58 8h-60q-124 0 -186 60q-65 62 -65 180
q0 141 83 235q53 60 141 102v5h-180v118z" />
    <glyph glyph-name="eta" unicode="&#x3b7;" horiz-adv-x="702" 
d="M465 -185v459q0 67 -23 94q-24 31 -75 31q-21 0 -45 -8q-22 -7 -37 -24q-34 -34 -34 -107v-260h-176v347q0 36 -14 47q-11 9 -34 9h-12v105q32 4 82 4q35 0 45 -2q67 -9 101 -62q24 24 32 30q29 22 62 33q42 16 114 16q89 0 135 -44q55 -50 55 -164v-504h-176z" />
    <glyph glyph-name="theta" unicode="&#x3b8;" horiz-adv-x="716" 
d="M357 -19q-141 0 -224 87q-96 107 -96 282q0 180 96 282q81 88 224 88t224 -88q96 -102 96 -282q0 -175 -96 -282q-83 -87 -224 -87zM497 297h-279q0 -73 33 -132q39 -70 106 -70q64 0 105 70q0 1 5.5 13.5t11 27t11 39.5t7.5 52zM217 411h280q-7 76 -34 126
q-39 69 -106 69t-106 -71q-28 -49 -34 -124z" />
    <glyph glyph-name="iota" unicode="&#x3b9;" horiz-adv-x="311" 
d="M61 508h176v-347q0 -36 13 -47q10 -9 35 -9h11v-105q-32 -4 -73 -4q-82 0 -111 22q-51 35 -51 111v379z" />
    <glyph glyph-name="kappa" unicode="&#x3ba;" horiz-adv-x="637" 
d="M237 286l195 222h200l-235 -237l250 -271h-210l-200 236v-236h-176v508h176v-222z" />
    <glyph glyph-name="lambda" unicode="&#x3bb;" horiz-adv-x="666" 
d="M200 0h-200l254 502l-15 47q-7 24 -23 34q-14 8 -41 8q-25 0 -42 -4v113q42 6 73 6q93 0 130 -22q53 -30 81 -106l163 -427q8 -22 20 -34q13 -12 43 -12h19v-105q-33 -6 -74 -6q-70 0 -106 20q-45 24 -65 82l-82 228z" />
    <glyph glyph-name="nu" unicode="&#x3bd;" horiz-adv-x="598" 
d="M314 152l87 264q11 35 11 58q0 4 -2 18q-2 9 -6 16l179 12q11 -23 11 -47q0 -14 -5 -36q-7 -25 -25 -67l-155 -370h-194l-215 508h190l120 -356h4z" />
    <glyph glyph-name="xi" unicode="&#x3be;" horiz-adv-x="550" 
d="M20 700h509v-118h-157q-67 0 -102 -25q-36 -25 -36 -72q0 -29 28 -48q38 -27 115 -27h112v-118h-112q-85 0 -125 -28q-37 -28 -37 -73q0 -42 38 -63q29 -16 97 -16h44q77 0 115 -33q45 -37 45 -111q0 -65 -36 -101q-32 -32 -79 -42t-119 -10h-70v110h50q40 0 59 9
q20 9 20 28t-17 29q-14 9 -57 9h-31q-39 0 -64.5 2t-59 12.5t-57.5 30.5q-60 52 -60 134q0 71 42 113q43 46 118 55v5q-53 9 -88 38q-41 38 -41 84q0 49 31 76q14 14 46 28v4h-121v118z" />
    <glyph glyph-name="omicron" unicode="&#x3bf;" horiz-adv-x="740" 
d="M369 413q-70 0 -108 -38q-42 -42 -42 -121t42 -121q38 -38 108 -38t108 38q42 42 42 121t-42 121q-38 38 -108 38zM701 254q0 -135 -88 -206q-83 -67 -244 -67t-244 67q-88 71 -88 206t88 206q85 67 244 67t244 -67q88 -71 88 -206z" />
    <glyph glyph-name="pi" unicode="&#x3c0;" horiz-adv-x="766" 
d="M124 0v397q-36 0 -56 -5q-20 -4 -42 -15v110q26 12 47 16q29 5 70 5h597v-112h-80v-229q0 -38 15 -50q14 -10 44 -10h6v-105q-40 -7 -98 -7q-80 0 -112 29q-31 25 -31 96v276h-184v-396h-176z" />
    <glyph glyph-name="rho" unicode="&#x3c1;" horiz-adv-x="724" 
d="M61 -185v418q0 72 17 129.5t69 100.5q75 64 230 64q158 0 235 -77q73 -70 73 -197q0 -107 -57 -180q-42 -54 -97.5 -73t-126.5 -19q-65 0 -108 20q-36 16 -59 42v-228h-176zM229 255q0 -69 30 -108q39 -52 111 -52q63 0 101 48q32 42 32 112q0 72 -32 112q-35 46 -105 46
q-68 0 -107 -48q-30 -39 -30 -110z" />
    <glyph glyph-name="sigma1" unicode="&#x3c2;" horiz-adv-x="679" 
d="M652 327h-169q0 29 -23 52q-17 18 -40 26q-22 8 -58 8q-71 0 -109 -42q-21 -27 -27 -48q-7 -19 -7 -58q0 -68 31 -104q40 -49 129 -49h113q74 0 116 -35q25 -22 36 -55q8 -22 8 -59q0 -61 -36 -97q-31 -31 -78.5 -41t-119.5 -10h-70v110h49q38 0 59 9q11 5 17 15
q4 7 4 16q0 18 -16 27q-7 4 -21 6q-8 2 -37 2h-64q-132 0 -207 53q-49 35 -76 100q-19 45 -19 100q0 58 25 114t70 94q52 42 121 56q46 10 112 10q134 0 203 -53q73 -57 84 -147z" />
    <glyph glyph-name="sigma" unicode="&#x3c3;" horiz-adv-x="760" 
d="M701 254q0 -135 -88 -206q-83 -67 -244 -67t-244 67q-88 71 -88 206t88 206q85 67 244 67q90 0 150 -19h236v-118h-84q30 -58 30 -136zM369 413q-70 0 -108 -38q-42 -42 -42 -121t42 -121q38 -38 108 -38t108 38q42 42 42 121t-42 121q-38 38 -108 38z" />
    <glyph glyph-name="tau" unicode="&#x3c4;" horiz-adv-x="572" 
d="M204 390h-59q-46 0 -76 -5q-32 -5 -59 -17v118q54 22 140 22h412v-118h-182v-232q0 -34 14 -47q10 -9 35 -9h11v-102q-32 -4 -79 -4q-74 0 -106 22q-51 35 -51 111v261z" />
    <glyph glyph-name="upsilon" unicode="&#x3c5;" horiz-adv-x="721" 
d="M232 508v-179q0 -91 10 -130q13 -48 43 -76t76 -28q62 0 96 49q31 42 31 129q0 90 -21 159q-15 49 -34 76l176 12q20 -26 38 -69q24 -59 24 -154q0 -140 -60 -217q-76 -99 -250 -99q-189 0 -260 110q-21 31 -31.5 72.5t-12 71.5t-1.5 82v191h176z" />
    <glyph glyph-name="phi" unicode="&#x3c6;" horiz-adv-x="934" 
d="M378 -185v185q-53 -3 -116 8.5t-107 38.5q-72 43 -101 117q-17 44 -17 96q0 96 54 158q79 90 229 90v-114q-42 -7 -69 -39q-18 -20 -26 -54q-6 -21 -6 -44q0 -60 36 -99q19 -21 52 -33.5t71 -10.5v394h179q96 0 164.5 -18.5t117.5 -74.5q56 -62 56 -159q0 -99 -62 -166
q-90 -96 -279 -90v-185h-176zM554 394v-280q38 -2 72.5 11.5t55.5 37.5q31 35 31 93q0 64 -36 100q-17 17 -44 28q-26 10 -61 10h-18z" />
    <glyph glyph-name="chi" unicode="&#x3c7;" horiz-adv-x="612" 
d="M310 302l112 206h180l-205 -326l130 -221q23 -40 71 -40h20v-106q-16 -6 -60 -6q-67 0 -106 21q-16 9 -30.5 24.5t-20 24t-19.5 32.5l-85 153l-139 -249h-178l227 377l-103 175q-20 36 -68 36h-21l-1 105q38 6 70 6q64 0 97 -20q29 -16 51 -56z" />
    <glyph glyph-name="psi" unicode="&#x3c8;" horiz-adv-x="951" 
d="M388 -185v185q-65 -2 -118.5 9.5t-86.5 30.5t-50 34t-28 30q-24 31 -35.5 71.5t-12.5 65t-1 76.5v191h176v-167q0 -52 1 -73t12 -57t35 -58q42 -42 108 -39v586h176v-586q75 -5 116 46q38 42 38 144q0 64 -20 129q-14 41 -34 75l175 12q23 -29 38 -71q24 -64 24 -149
q0 -134 -64 -207q-85 -97 -273 -93v-185h-176z" />
    <glyph glyph-name="omega" unicode="&#x3c9;" horiz-adv-x="908" 
d="M554 406v114q165 1 251 -94q37 -43 52 -89q12 -41 12 -95q0 -144 -89 -212q-62 -49 -160 -49q-78 0 -118 31q-20 14 -34 39q-9 17 -13 33h-4q-11 -45 -47 -72q-40 -31 -118 -31q-98 0 -160 49q-89 68 -89 212q0 58 13.5 101t50.5 83q89 94 251 94v-114q-72 -6 -110 -64
q-23 -38 -23 -109q0 -70 22 -105q23 -33 61 -33q31 0 49 23q16 22 16 76v103h172v-103q0 -54 16 -76q18 -23 49 -23q38 0 61 33q22 35 22 105q0 71 -23 109q-38 58 -110 64z" />
    <glyph glyph-name="iotadieresis" unicode="&#x3ca;" horiz-adv-x="311" 
d="M61 508h176v-347q0 -36 13 -47q10 -9 35 -9h11v-105q-32 -4 -73 -4q-82 0 -111 22q-51 35 -51 111v379zM207 597v111h155v-111h-155zM-56 597v111h154v-111h-154z" />
    <glyph glyph-name="upsilondieresis" unicode="&#x3cb;" horiz-adv-x="721" 
d="M232 508v-179q0 -91 10 -130q13 -48 43 -76t76 -28q62 0 96 49q31 42 31 129q0 90 -21 159q-15 49 -34 76l176 12q20 -26 38 -69q24 -59 24 -154q0 -140 -60 -217q-76 -99 -250 -99q-189 0 -260 110q-21 31 -31.5 72.5t-12 71.5t-1.5 82v191h176zM405 597v111h155v-111
h-155zM142 597v111h154v-111h-154z" />
    <glyph glyph-name="omicrontonos" unicode="&#x3cc;" horiz-adv-x="740" 
d="M369 413q-70 0 -108 -38q-42 -42 -42 -121t42 -121q38 -38 108 -38t108 38q42 42 42 121t-42 121q-38 38 -108 38zM701 254q0 -135 -88 -206q-83 -67 -244 -67t-244 67q-88 71 -88 206t88 206q85 67 244 67t244 -67q88 -71 88 -206zM367 712h165l-127 -144h-118z" />
    <glyph glyph-name="upsilontonos" unicode="&#x3cd;" horiz-adv-x="721" 
d="M232 508v-179q0 -91 10 -130q13 -48 43 -76t76 -28q62 0 96 49q31 42 31 129q0 90 -21 159q-15 49 -34 76l176 12q20 -26 38 -69q24 -59 24 -154q0 -140 -60 -217q-76 -99 -250 -99q-189 0 -260 110q-21 31 -31.5 72.5t-12 71.5t-1.5 82v191h176zM358 712h165l-127 -144
h-118z" />
    <glyph glyph-name="omegatonos" unicode="&#x3ce;" horiz-adv-x="908" 
d="M554 406v114q165 1 251 -94q37 -43 52 -89q12 -41 12 -95q0 -144 -89 -212q-62 -49 -160 -49q-78 0 -118 31q-20 14 -34 39q-9 17 -13 33h-4q-11 -45 -47 -72q-40 -31 -118 -31q-98 0 -160 49q-89 68 -89 212q0 58 13.5 101t50.5 83q89 94 251 94v-114q-72 -6 -110 -64
q-23 -38 -23 -109q0 -70 22 -105q23 -33 61 -33q31 0 49 23q16 22 16 76v103h172v-103q0 -54 16 -76q18 -23 49 -23q38 0 61 33q22 35 22 105q0 71 -23 109q-38 58 -110 64zM452 712h165l-127 -144h-118z" />
    <glyph glyph-name="afii10023" unicode="&#x401;" horiz-adv-x="748" 
d="M259 422h384v-132h-384v-150h465v-140h-649v700h638v-140h-454v-138zM456 773v108h150v-108h-150zM180 773v108h150v-108h-150z" />
    <glyph glyph-name="afii10051" unicode="&#x402;" horiz-adv-x="984" 
d="M235 0v558h-222v142h643v-142h-237v-143q76 14 167 14q154 0 228 -49q91 -58 91 -180q0 -103 -63 -160q-28 -26 -66.5 -39.5t-63.5 -15.5t-64 -2q-72 0 -142 15v124q39 -13 77 -13q63 0 91 21q33 24 33 71q0 52 -42 78q-38 22 -123 22q-66 0 -123 -16v-285h-184z" />
    <glyph glyph-name="afii10052" unicode="&#x403;" horiz-adv-x="641" 
d="M259 556v-556h-184v700h552v-144h-368zM329 910h165l-127 -144h-118z" />
    <glyph glyph-name="afii10053" unicode="&#x404;" horiz-adv-x="876" 
d="M829 467h-196q-7 55 -54 84q-46 26 -128 26q-103 0 -153 -49q-43 -41 -51 -110h304v-125h-306q6 -84 54 -128q48 -46 157 -46q82 0 124 29q50 32 57 96h197q0 -105 -72 -177q-55 -55 -129.5 -71.5t-196.5 -16.5q-91 0 -164.5 18t-130.5 72q-99 99 -99 280q0 173 96 269
q103 99 311 99q173 0 273 -60q100 -67 107 -190z" />
    <glyph glyph-name="afii10054" unicode="&#x405;" horiz-adv-x="767" 
d="M35 227h192v-4q0 -44 27 -67q38 -38 135 -38q72 0 100 16q46 24 46 70q0 41 -49 60q-20 8 -97 23l-101 16q-49 7 -80.5 13.5t-70 23t-59.5 39.5q-39 46 -39 112q0 119 96 179q81 50 229 50q165 0 244 -47q100 -58 94 -170h-186q-5 45 -42 64q-39 19 -112 19
q-66 0 -96 -19q-35 -23 -35 -61q0 -36 50 -53q26 -11 120 -25l80 -13q131 -23 178 -58q71 -53 71 -153q0 -110 -82 -170q-77 -54 -247 -54q-107 0 -184 16t-125 66q-57 60 -57 161v4z" />
    <glyph glyph-name="afii10055" unicode="&#x406;" horiz-adv-x="338" 
d="M75 700h184v-700h-184v700z" />
    <glyph glyph-name="afii10056" unicode="&#x407;" horiz-adv-x="338" 
d="M191 766v111h135v-111h-135zM11 766v111h135v-111h-135zM77 700h184v-700h-184v700z" />
    <glyph glyph-name="afii10057" unicode="&#x408;" horiz-adv-x="673" 
d="M26 264h184v-21q0 -69 25 -96q24 -27 78 -27q52 0 79 29q27 33 27 103v448h184v-447q0 -142 -66 -208q-31 -31 -76.5 -46.5t-71 -17t-71.5 -1.5q-48 0 -77 2t-77 17.5t-77 46.5q-61 61 -61 194v24z" />
    <glyph glyph-name="afii10058" unicode="&#x409;" horiz-adv-x="1280" 
d="M757 310v-180h177q64 0 93 23q30 26 30 70t-31 67q-25 20 -89 20h-180zM956 0h-383v560h-238l-1 -160q0 -103 -11 -191q-13 -113 -70 -165q-56 -51 -158 -51q-46 0 -82 9v135q12 -4 36 -4q44 0 69 23q36 33 42 117q7 74 7 157l1 270h589v-260h204q86 0 140.5 -12
t96.5 -54q57 -57 57 -150q0 -99 -55 -157q-30 -31 -76 -47t-78 -18t-90 -2z" />
    <glyph glyph-name="afii10059" unicode="&#x40a;" horiz-adv-x="1294" 
d="M771 310v-180h178q65 0 93 23q29 24 29 70t-30 67q-26 20 -89 20h-181zM970 0h-383v310h-328v-310h-184v700h184v-260h328v260h184v-260h204q86 0 140.5 -12t96.5 -54q57 -57 57 -150q0 -99 -55 -157q-30 -31 -76 -47t-78 -18t-90 -2z" />
    <glyph glyph-name="afii10060" unicode="&#x40b;" horiz-adv-x="978" 
d="M899 0h-184v194q0 56 -28 83q-38 35 -142 35q-75 0 -126 -11v-301h-184v558h-222v142h643v-142h-237v-120q82 14 163 14q198 0 268 -74q49 -49 49 -140v-238z" />
    <glyph glyph-name="afii10061" unicode="&#x40c;" horiz-adv-x="775" 
d="M259 399l286 301h220l-331 -326l351 -374h-231l-295 349v-349h-184v700h184v-301zM378 910h165l-127 -144h-118z" />
    <glyph glyph-name="afii10062" unicode="&#x40e;" horiz-adv-x="689" 
d="M367 343l148 357h184l-255 -536q-45 -96 -77 -124q-35 -33 -72.5 -43t-91.5 -10q-71 0 -119 17v137q31 -14 70 -14t60 13q6 3 10.5 7.5l7.5 7.5t6.5 9t5 8.5t4.5 9t3 7.5l8 19l-255 492h201zM445 897h127q1 -62 -43 -100q-55 -48 -184 -48q-134 0 -184 48q-44 40 -44 100
h128q-1 -37 25 -54q19 -16 75 -16q55 0 74 16q26 21 26 54z" />
    <glyph glyph-name="afii10145" unicode="&#x40f;" horiz-adv-x="844" 
d="M259 142h322v558h184v-700h-264v-211h-162v211h-264v700h184v-558z" />
    <glyph glyph-name="afii10017" unicode="&#x410;" horiz-adv-x="790" 
d="M289 262h214l-108 262zM244 142l-61 -142h-192l314 700h181l314 -700h-192l-61 142h-303z" />
    <glyph glyph-name="afii10018" unicode="&#x411;" horiz-adv-x="805" 
d="M259 298v-168h175q82 0 109 27q22 22 22 59q0 36 -23 58q-28 24 -109 24h-174zM259 560v-132h238q45 0 75.5 -2.5t71.5 -17.5t67 -42q52 -53 52 -146q0 -102 -60 -160q-41 -38 -98 -49t-137 -11h-393v700h641v-140h-457z" />
    <glyph glyph-name="afii10019" unicode="&#x412;" horiz-adv-x="823" 
d="M259 296v-166h196q69 0 84 15q35 23 35 68q0 48 -35 68q-27 15 -87 15h-193zM259 570v-148h165q74 0 99 21q23 19 23 56q0 35 -28 56q-21 15 -84 15h-175zM75 700h404q135 0 188 -36q68 -47 68 -141q0 -70 -42 -110q-17 -15 -40 -26t-37 -14t-19 -3v-4q85 -8 132 -55
q43 -43 43 -119q0 -89 -52 -137q-60 -55 -234 -55h-411v700z" />
    <glyph glyph-name="afii10020" unicode="&#x413;" horiz-adv-x="641" 
d="M259 556v-556h-184v700h552v-144h-368z" />
    <glyph glyph-name="afii10021" unicode="&#x414;" horiz-adv-x="918" 
d="M601 560h-229v-53q0 -114 -16 -184q-17 -83 -75 -183h320v420zM785 140h119l-10 -290h-154v150h-576v-150h-153l-11 290h103q56 101 79 186q5 19 9 36t6.5 36.5t4 30t2 33.5t0.5 27.5v30.5v27v153h581v-560z" />
    <glyph glyph-name="afii10022" unicode="&#x415;" horiz-adv-x="748" 
d="M259 422h384v-132h-384v-150h465v-140h-649v700h638v-140h-454v-138z" />
    <glyph glyph-name="afii10024" unicode="&#x416;" horiz-adv-x="1143" 
d="M480 0v323l-266 -323h-223l332 378l-318 322h217l258 -284v284h184v-284l258 284h217l-317 -322l331 -378h-222l-267 323v-323h-184z" />
    <glyph glyph-name="afii10025" unicode="&#x417;" horiz-adv-x="802" 
d="M35 232h192q-4 -58 45 -90q38 -25 116 -25q71 0 108 18q47 25 47 75t-50 67q-33 12 -109 12h-71v126h67q77 0 108 15q40 21 40 65q0 45 -51 69q-36 16 -99 16q-72 0 -108 -21q-45 -26 -45 -75h-190q0 117 100 180q79 54 243 54q203 0 288 -73q59 -52 59 -137
q0 -67 -39 -105q-37 -33 -91 -38v-5q66 -6 107 -44q49 -44 49 -116q0 -129 -108 -184q-68 -35 -246 -35q-183 0 -262 50q-106 68 -100 201z" />
    <glyph glyph-name="afii10026" unicode="&#x418;" horiz-adv-x="868" 
d="M259 231l345 469h185v-700h-184v473l-344 -473h-186v700h184v-469z" />
    <glyph glyph-name="afii10027" unicode="&#x419;" horiz-adv-x="868" 
d="M259 231l345 469h185v-700h-184v473l-344 -473h-186v700h184v-469zM530 897h127q1 -62 -43 -100q-55 -48 -184 -48q-134 0 -184 48q-44 40 -44 100h128q-1 -37 25 -54q19 -16 75 -16q55 0 74 16q26 21 26 54z" />
    <glyph glyph-name="afii10028" unicode="&#x41a;" horiz-adv-x="775" 
d="M259 399l286 301h220l-331 -326l351 -374h-231l-295 349v-349h-184v700h184v-301z" />
    <glyph glyph-name="afii10029" unicode="&#x41b;" horiz-adv-x="840" 
d="M13 2v135q12 -4 36 -4q44 0 69 23q36 33 42 117q7 74 7 157l1 270h593v-700h-184v560h-242l-1 -160q0 -103 -11 -191q-13 -113 -70 -165q-56 -51 -158 -51q-46 0 -82 9z" />
    <glyph glyph-name="afii10030" unicode="&#x41c;" horiz-adv-x="1075" 
d="M469 0l-210 521h-7l7 -59v-462h-184v700h260l198 -508h5l198 508h260v-700h-184v462l7 59h-7l-210 -521h-133z" />
    <glyph glyph-name="afii10031" unicode="&#x41d;" horiz-adv-x="854" 
d="M259 298v-298h-184v700h184v-262h332v262h184v-700h-184v298h-332z" />
    <glyph glyph-name="afii10032" unicode="&#x41e;" horiz-adv-x="919" 
d="M458 580q-97 0 -152 -54q-64 -61 -64 -176t64 -176q55 -54 152 -54t152 54q64 61 64 176t-64 176q-55 54 -152 54zM874 350q0 -171 -110 -268q-113 -102 -306 -102t-306 102q-110 97 -110 268q0 167 110 268q113 102 306 102t306 -102q110 -101 110 -268z" />
    <glyph glyph-name="afii10033" unicode="&#x41f;" horiz-adv-x="840" 
d="M259 560v-560h-184v700h686v-700h-184v560h-318z" />
    <glyph glyph-name="afii10034" unicode="&#x420;" horiz-adv-x="778" 
d="M259 560v-193h166q80 0 109 29q26 26 26 72t-34 72q-28 20 -90 20h-177zM75 700h375q84 0 138.5 -12t96.5 -51q65 -61 65 -167q0 -104 -57 -166q-43 -47 -102 -60t-153 -13h-179v-231h-184v700z" />
    <glyph glyph-name="afii10035" unicode="&#x421;" horiz-adv-x="846" 
d="M626 245h192q-3 -74 -36 -128t-75 -83q-79 -55 -253 -55q-98 0 -174 19t-137 78q-101 94 -101 270q0 167 97 268q105 105 299 105q183 0 274 -62q37 -24 68 -72t33 -120h-192q-5 56 -52 86q-45 28 -118 28q-98 0 -151 -55q-58 -64 -58 -177q0 -117 60 -177
q53 -51 150 -51q83 0 122 27q48 33 52 99z" />
    <glyph glyph-name="afii10036" unicode="&#x422;" horiz-adv-x="699" 
d="M257 560h-244v140h672v-140h-244v-560h-184v560z" />
    <glyph glyph-name="afii10037" unicode="&#x423;" horiz-adv-x="689" 
d="M367 343l148 357h184l-255 -536q-45 -96 -77 -124q-35 -33 -72.5 -43t-91.5 -10q-71 0 -119 17v137q31 -14 70 -14t60 13q6 3 10.5 7.5l7.5 7.5t6.5 9t5 8.5t4.5 9t3 7.5l8 19l-255 492h201z" />
    <glyph glyph-name="afii10038" unicode="&#x424;" horiz-adv-x="1041" 
d="M437 200v313h-23q-89 0 -139 -33q-61 -39 -61 -122q0 -52 21 -83.5t43 -44.5q48 -30 134 -30h25zM602 200h23q89 0 134 28q67 46 67 130q0 46 -20 79t-47 49q-47 27 -135 27h-22v-313zM428 -26v103h-27q-103 0 -175 18t-121 67q-75 73 -75 196q0 118 71 190q89 89 301 89
h26v102h184v-102h25q214 0 303 -89q70 -70 70 -190q0 -125 -74 -196q-50 -50 -122.5 -67.5t-175.5 -17.5h-26v-103h-184z" />
    <glyph glyph-name="afii10039" unicode="&#x425;" horiz-adv-x="799" 
d="M411 468l172 232h211l-279 -337l284 -363h-235l-167 239l-173 -239h-224l287 363l-273 337h225z" />
    <glyph glyph-name="afii10040" unicode="&#x426;" horiz-adv-x="902" 
d="M259 144h325v556h184v-556h120l-10 -294h-161v150h-642v700h184v-556z" />
    <glyph glyph-name="afii10041" unicode="&#x427;" horiz-adv-x="780" 
d="M48 700h184v-175q0 -59 27 -85q32 -30 131 -30q74 0 127 11v279h184v-700h-184v281q-67 -11 -152 -11q-204 0 -267 61q-32 30 -41 67.5t-9 87.5v214z" />
    <glyph glyph-name="afii10042" unicode="&#x428;" horiz-adv-x="1244" 
d="M259 144h269v556h184v-556h269v556h184v-700h-1090v700h184v-556z" />
    <glyph glyph-name="afii10043" unicode="&#x429;" horiz-adv-x="1299" 
d="M259 144h269v556h184v-556h269v556h184v-556h120l-10 -294h-161v150h-1039v700h184v-556z" />
    <glyph glyph-name="afii10044" unicode="&#x42a;" horiz-adv-x="917" 
d="M390 310v-180h181q64 0 93 23q30 26 30 70t-31 67q-25 20 -89 20h-184zM390 700v-260h208q86 0 140.5 -12t96.5 -54q57 -57 57 -150q0 -99 -55 -157q-30 -31 -76 -47t-78 -18t-90 -2h-387v556h-193v144h377z" />
    <glyph glyph-name="afii10045" unicode="&#x42b;" horiz-adv-x="1079" 
d="M259 310v-176h181q64 0 93 23q30 26 30 70q0 41 -31 63q-25 20 -89 20h-184zM259 700v-260h209q137 0 208 -55q70 -54 70 -160q0 -128 -91 -185q-62 -40 -210 -40h-370v700h184zM816 700h184v-700h-184v700z" />
    <glyph glyph-name="afii10046" unicode="&#x42c;" horiz-adv-x="786" 
d="M259 310v-176h181q64 0 93 23q30 26 30 70q0 41 -31 63q-26 20 -89 20h-184zM259 700v-260h208q86 0 140.5 -12t96.5 -54q57 -57 57 -150q0 -99 -55 -157q-30 -31 -76 -47t-78 -18t-90 -2h-387v700h184z" />
    <glyph glyph-name="afii10047" unicode="&#x42d;" horiz-adv-x="872" 
d="M236 467h-192q14 129 120 196q88 55 256 55q217 0 317 -98q90 -88 90 -263q0 -190 -91 -284q-39 -42 -95 -64.5t-97 -27t-98 -4.5q-192 0 -278 49q-121 70 -128 218h192q4 -65 52 -96q44 -31 145 -31q97 0 141 39q56 48 52 130h-303v130h303q2 48 -18.5 80.5t-44.5 48.5
q-48 33 -146 33q-78 0 -121 -27q-47 -30 -56 -84z" />
    <glyph glyph-name="afii10048" unicode="&#x42e;" horiz-adv-x="1254" 
d="M797 580q-97 0 -150 -53q-63 -63 -63 -177q0 -113 63 -176q54 -54 152 -54q92 0 146 52q64 61 64 178q0 114 -63 177q-53 53 -149 53zM259 438h138q27 130 124 204q103 78 269 78q211 0 321 -110q98 -98 98 -257q0 -167 -104 -271q-62 -62 -139 -82t-170 -20
q-89 0 -160.5 18t-131.5 71q-101 88 -110 229h-135v-298h-184v700h184v-262z" />
    <glyph glyph-name="afii10049" unicode="&#x42f;" horiz-adv-x="825" 
d="M562 560h-193q-65 0 -93 -23q-29 -23 -29 -68q0 -47 35 -71q28 -19 94 -19h186v181zM562 243h-125l-171 -243h-231l217 263q-42 4 -82 22t-65 44q-48 50 -48 141q0 103 60 161q71 69 219 69h410v-700h-184v243z" />
    <glyph glyph-name="afii10065" unicode="&#x430;" horiz-adv-x="708" 
d="M457 226v8q-14 -12 -31.5 -16.5t-59.5 -8.5l-37 -4q-51 -5 -71 -18q-24 -19 -24 -43q0 -27 21 -43q20 -16 67 -16q64 0 99 35q36 36 36 106zM249 344h-178q0 70 49 119q39 38 94.5 51t136.5 13q177 0 241 -67q19 -20 29.5 -47t12 -45t1.5 -47v-226q0 -37 8 -61
q10 -17 28 -20v-14h-192l-11 50h-4q-29 -37 -79 -54q-46 -15 -121 -15q-111 0 -158 32q-59 42 -59 121q0 63 38 100q22 21 61 34t60.5 16t64.5 7l80 7q31 3 43.5 4t27.5 5.5t22 12.5q12 12 12 33q0 32 -32 50q-24 14 -70 14q-50 0 -76 -18q-28 -22 -29 -55z" />
    <glyph glyph-name="afii10066" unicode="&#x431;" horiz-adv-x="745" 
d="M378 400q-66 0 -103 -37q-42 -42 -42 -115q0 -72 42 -117q37 -38 103 -38t103 38q43 43 43 117q0 73 -42 115q-37 37 -104 37zM537 743h130q2 -65 -38 -106q-19 -19 -51.5 -31.5t-56.5 -16.5t-70 -9l-71 -8q-117 -15 -166 -54q-63 -53 -66 -136h8q27 58 80 87
q59 33 156 33q141 0 219 -53q95 -66 95 -201q0 -121 -72 -193q-26 -26 -56.5 -42t-66 -22.5t-60.5 -8t-63 -1.5q-55 0 -90 3t-86.5 21.5t-87.5 54.5q-87 85 -87 258q0 190 95 285q64 62 170 83q49 9 128 16q46 3 65 7t31 14q9 8 11 20z" />
    <glyph glyph-name="afii10067" unicode="&#x432;" horiz-adv-x="676" 
d="M237 213v-113h127q42 0 69 11q28 18 28 49q0 32 -33 45q-18 8 -66 8h-125zM237 410v-105h102q61 0 79 12q22 13 22 40q0 29 -23 43q-30 10 -58 10h-122zM61 508h357q101 0 141 -23q55 -32 55 -100q0 -53 -30 -83q-25 -25 -72 -33v-5q57 -5 92 -36q36 -32 36 -86
q0 -64 -37 -99q-21 -20 -54 -30t-56 -11.5t-65 -1.5h-367v508z" />
    <glyph glyph-name="afii10068" unicode="&#x433;" horiz-adv-x="511" 
d="M237 390v-390h-176v508h436v-118h-260z" />
    <glyph glyph-name="afii10069" unicode="&#x434;" horiz-adv-x="742" 
d="M477 396h-174v-34q0 -73 -14 -129q-13 -57 -52 -121h240v284zM0 112h71q49 67 70 152q16 64 16 163v81h490v-396h85l-10 -244h-135v132h-442v-132h-135z" />
    <glyph glyph-name="afii10070" unicode="&#x435;" horiz-adv-x="721" 
d="M220 311h281q-4 52 -36 78q-34 30 -104 30q-63 0 -99 -28q-38 -31 -42 -80zM498 166h177q-12 -114 -110 -158q-62 -27 -191 -27q-98 0 -160 15t-107 60q-70 70 -70 190q0 129 76 202q83 79 247 79q171 0 253 -82q69 -69 69 -206v-18h-465v-3q0 -58 33 -91q34 -34 112 -34
q62 0 91 14q36 17 45 59z" />
    <glyph glyph-name="afii10072" unicode="&#x436;" horiz-adv-x="919" 
d="M373 508h174v-212l174 212h186l-216 -241l238 -267h-197l-185 229v-229h-174v229l-185 -229h-198l237 266l-214 242h186l174 -212v212z" />
    <glyph glyph-name="afii10073" unicode="&#x437;" horiz-adv-x="644" 
d="M22 173h170v-4q0 -35 32 -57q30 -19 97 -19q47 0 71 13q32 15 32 48q0 27 -24 41t-100 14h-46v98h53q60 0 75 9q31 12 31 41q0 37 -39 50q-27 10 -73 10t-73 -16t-30 -51h-170q-2 63 43 109q66 68 237 68q117 0 190 -30q92 -39 92 -123q0 -45 -28 -73q-23 -23 -66 -29v-3
q14 -2 26.5 -6.5t21.5 -9.5t15 -9t10.5 -8t5.5 -4q33 -33 33 -86q0 -98 -87 -137q-54 -28 -195 -28q-166 0 -230 43q-74 50 -74 145v4z" />
    <glyph glyph-name="afii10074" unicode="&#x438;" horiz-adv-x="746" 
d="M237 168l259 340h185v-508h-176v340l-260 -340h-184v508h176v-340z" />
    <glyph glyph-name="afii10075" unicode="&#x439;" horiz-adv-x="746" 
d="M237 168l259 340h185v-508h-176v340l-260 -340h-184v508h176v-340zM456 721h128q3 -54 -37 -99q-21 -21 -55 -32.5t-59.5 -13.5t-64.5 -2t-64.5 2t-59.5 13.5t-55 32.5q-40 45 -37 99h128q-1 -36 21 -54q20 -17 67 -17t67 17q22 18 21 54z" />
    <glyph glyph-name="afii10076" unicode="&#x43a;" horiz-adv-x="637" 
d="M237 286l195 222h200l-235 -237l250 -271h-210l-200 236v-236h-176v508h176v-222z" />
    <glyph glyph-name="afii10077" unicode="&#x43b;" horiz-adv-x="697" 
d="M13 1v115q11 -4 29 -4q31 0 50 19q25 25 31 87q4 43 4 131v159h505v-508h-176v390h-172v-76q0 -65 -7 -144q-13 -89 -56 -132q-46 -44 -137 -44q-44 0 -71 7z" />
    <glyph glyph-name="afii10078" unicode="&#x43c;" horiz-adv-x="879" 
d="M382 0l-152 356h-8l5 -51v-305h-166v508h222l155 -361l154 361h222v-508h-166v305l5 51h-7l-153 -356h-111z" />
    <glyph glyph-name="afii10079" unicode="&#x43d;" horiz-adv-x="719" 
d="M237 207v-207h-176v508h176v-183h241v183h176v-508h-176v207h-241z" />
    <glyph glyph-name="afii10080" unicode="&#x43e;" horiz-adv-x="740" 
d="M369 413q-70 0 -108 -38q-42 -42 -42 -121t42 -121q38 -38 108 -38t108 38q42 42 42 121t-42 121q-38 38 -108 38zM701 254q0 -135 -88 -206q-83 -67 -244 -67t-244 67q-88 71 -88 206t88 206q85 67 244 67t244 -67q88 -71 88 -206z" />
    <glyph glyph-name="afii10081" unicode="&#x43f;" horiz-adv-x="705" 
d="M237 390v-390h-176v508h579v-508h-176v390h-227z" />
    <glyph glyph-name="afii10082" unicode="&#x440;" horiz-adv-x="735" 
d="M373 412q-60 0 -98 -39q-43 -48 -43 -121q0 -76 40 -117q39 -39 104 -39q66 0 101 41q37 42 37 118q0 72 -37 115q-39 42 -104 42zM61 508h168v-64h3q27 36 66 56q49 24 126 24q127 0 198 -64q74 -71 74 -202q0 -137 -74 -209q-41 -41 -89.5 -53t-110.5 -12
q-78 0 -117 17q-40 16 -68 53v-239h-176v693z" />
    <glyph glyph-name="afii10083" unicode="&#x441;" horiz-adv-x="690" 
d="M652 328h-169q-3 44 -38 66q-29 19 -83 19q-69 0 -105 -41q-38 -43 -38 -123q0 -79 41 -120q34 -34 103 -34q57 0 83 20q37 26 38 76h170v-3q0 -81 -54 -139q-41 -43 -100 -55.5t-144 -12.5q-52 0 -88.5 3.5t-83.5 20.5t-78 48q-69 69 -69 193q0 125 68 197q78 84 246 84
q136 0 209 -43q92 -52 92 -156z" />
    <glyph glyph-name="afii10084" unicode="&#x442;" horiz-adv-x="575" 
d="M199 390h-186v118h548v-118h-186v-390h-176v390z" />
    <glyph glyph-name="afii10085" unicode="&#x443;" horiz-adv-x="599" 
d="M59 -177v109q28 -9 53 -9q39 0 60 17q23 19 38 61l10 30l-216 477h177l135 -339l118 339h165l-216 -517q-2 -5 -11 -25t-12 -26.5t-11 -22.5t-13 -24t-13.5 -18.5t-16.5 -18.5q-31 -29 -65 -38t-81 -9q-58 0 -101 14z" />
    <glyph glyph-name="afii10086" unicode="&#x444;" horiz-adv-x="942" 
d="M393 413h-5q-81 0 -127 -33q-54 -40 -54 -127q0 -84 54 -126q49 -34 127 -34h5v320zM547 413v-320h5q78 0 127 34q54 40 54 126q0 87 -54 127q-46 33 -127 33h-5zM386 -185v171h-11q-154 0 -237 57q-101 69 -101 210q0 139 101 208q86 59 237 59h11v180h168v-180h11
q152 0 237 -59q101 -69 101 -208q0 -141 -101 -210q-83 -57 -237 -57h-11v-171h-168z" />
    <glyph glyph-name="afii10087" unicode="&#x445;" horiz-adv-x="655" 
d="M337 342l116 166h194l-213 -245l221 -263h-209l-127 167l-124 -167h-195l222 261l-214 247h208z" />
    <glyph glyph-name="afii10088" unicode="&#x446;" horiz-adv-x="740" 
d="M237 118h223v390h176v-390h94l-7 -249h-138v131h-524v508h176v-390z" />
    <glyph glyph-name="afii10089" unicode="&#x447;" horiz-adv-x="645" 
d="M40 508h168v-133q0 -43 18 -61q20 -20 89 -20q46 0 89 8v206h176v-508h-176v191q-59 -11 -125 -11q-151 0 -202 49q-37 37 -37 109v170z" />
    <glyph glyph-name="afii10090" unicode="&#x448;" horiz-adv-x="1053" 
d="M237 118h200v390h176v-390h200v390h176v-508h-928v508h176v-390z" />
    <glyph glyph-name="afii10091" unicode="&#x449;" horiz-adv-x="1092" 
d="M237 118h200v390h176v-390h200v390h176v-390h94l-6 -248h-138v130h-878v508h176v-390z" />
    <glyph glyph-name="afii10092" unicode="&#x44a;" horiz-adv-x="746" 
d="M340 224v-122h120q47 0 67 14q23 17 23 50t-27 47q-24 11 -66 11h-117zM13 390v118h327v-182h171q115 0 164 -41q51 -42 51 -122q0 -86 -62 -129q-51 -34 -157 -34h-343v390h-151z" />
    <glyph glyph-name="afii10093" unicode="&#x44b;" horiz-adv-x="921" 
d="M237 222v-118h120q47 0 67 13q23 15 23 48q0 36 -27 48q-18 9 -66 9h-117zM237 508v-182h166q115 0 164 -41q51 -42 51 -122q0 -86 -62 -129q-51 -34 -157 -34h-338v508h176zM680 508h176v-508h-176v508z" />
    <glyph glyph-name="afii10094" unicode="&#x44c;" horiz-adv-x="643" 
d="M237 222v-118h120q47 0 67 13q23 15 23 48q0 36 -27 48q-18 9 -66 9h-117zM237 508v-182h171q115 0 164 -41q51 -42 51 -122q0 -86 -62 -129q-51 -34 -157 -34h-343v508h176z" />
    <glyph glyph-name="afii10095" unicode="&#x44d;" horiz-adv-x="696" 
d="M263 206v102h212q-1 52 -41 82q-33 24 -99 24q-61 0 -93 -23q-29 -20 -37 -59h-170q6 94 89 149q67 45 206 45q174 0 257 -80q70 -70 70 -196q0 -134 -70 -201q-45 -44 -101 -56.5t-134 -12.5q-159 0 -226 39q-92 55 -92 163v2h170q3 -43 40 -70q32 -22 98 -22
q67 0 97 28q34 30 36 86h-212z" />
    <glyph glyph-name="afii10096" unicode="&#x44e;" horiz-adv-x="1020" 
d="M649 418q-66 0 -105 -39q-45 -45 -45 -129q0 -80 45 -123q36 -36 107 -36q65 0 103 38q45 45 45 129q0 80 -45 123q-37 37 -105 37zM237 321h99q18 85 80 137q80 70 228 70q171 0 261 -83q76 -72 76 -191q0 -115 -70 -189q-50 -52 -112.5 -68t-141.5 -16
q-89 0 -149.5 14.5t-109.5 63.5q-62 62 -70 152h-91v-211h-176v508h176v-187z" />
    <glyph glyph-name="afii10097" unicode="&#x44f;" horiz-adv-x="678" 
d="M437 406h-103q-71 0 -95 -22q-17 -17 -17 -43q0 -29 18 -45q20 -20 86 -20h111v130zM355 174l-127 -174h-191l159 188q-69 7 -106 46q-36 36 -36 105q0 87 63 132q53 37 152 37h344v-508h-176v174h-82z" />
    <glyph glyph-name="afii10071" unicode="&#x451;" horiz-adv-x="721" 
d="M220 311h281q-4 52 -36 78q-34 30 -104 30q-63 0 -99 -28q-38 -31 -42 -80zM498 166h177q-12 -114 -110 -158q-62 -27 -191 -27q-98 0 -160 15t-107 60q-70 70 -70 190q0 129 76 202q83 79 247 79q171 0 253 -82q69 -69 69 -206v-18h-465v-3q0 -58 33 -91q34 -34 112 -34
q62 0 91 14q36 17 45 59zM410 597v111h171v-111h-171zM125 597v111h171v-111h-171z" />
    <glyph glyph-name="afii10099" unicode="&#x452;" horiz-adv-x="757" 
d="M103 700h177v-62h253v-74h-253v-120q25 29 64 51q44 22 116 22q114 0 165 -49q70 -63 70 -272q0 -114 -14.5 -191t-60.5 -125q-30 -32 -77 -48.5t-76.5 -18.5t-77.5 -2h-14v114h6q53 0 85 27q47 43 47 220q0 149 -28 193q-25 34 -77 34t-85 -34q-43 -47 -43 -129v-236
h-177v564h-103v74h103v62z" />
    <glyph glyph-name="afii10100" unicode="&#x453;" horiz-adv-x="511" 
d="M237 390v-390h-176v508h436v-118h-260zM253 712h165l-127 -144h-118z" />
    <glyph glyph-name="afii10101" unicode="&#x454;" horiz-adv-x="697" 
d="M431 209h-212q-1 -51 38 -88q34 -29 96 -29q68 0 98 22q32 22 38 72h172q-4 -110 -94 -167q-66 -39 -217 -39q-51 0 -85 3t-77 19t-74 46q-77 71 -77 201q0 125 69 196q78 81 243 81q150 0 225 -47q84 -52 84 -151h-172q-7 46 -44 68q-30 18 -87 18q-58 0 -93 -26
q-38 -29 -43 -81h212v-98z" />
    <glyph glyph-name="afii10102" unicode="&#x455;" horiz-adv-x="625" 
d="M30 160h172v-3q0 -34 33 -52q30 -13 79 -13q52 0 71 12q28 14 28 40q0 28 -38 45q-21 8 -86 17l-60 9q-106 15 -139 37q-55 34 -55 108q0 87 77 131q60 37 190 37q101 0 179 -27q86 -39 88 -133h-168v2q0 28 -29 42q-25 12 -69 12t-66 -11q-29 -16 -29 -41q0 -23 30 -37
q8 -4 19.5 -7t21 -4t29 -4t33.5 -5l68 -10q92 -13 135 -47q49 -38 49 -107q0 -64 -41 -108q-38 -39 -91.5 -51t-132.5 -12q-93 0 -152.5 12t-98.5 48q-47 47 -47 118v2z" />
    <glyph glyph-name="afii10103" unicode="&#x456;" horiz-adv-x="302" 
d="M61 589v118h176v-118h-176zM61 508h176v-508h-176v508z" />
    <glyph glyph-name="afii10104" unicode="&#x457;" horiz-adv-x="302" 
d="M169 589v118h120v-118h-120zM13 589v118h120v-118h-120zM63 508h176v-508h-176v508z" />
    <glyph glyph-name="afii10105" unicode="&#x458;" horiz-adv-x="310" 
d="M69 589v118h176v-118h-176zM69 508h176v-510q0 -99 -46 -145q-41 -41 -135 -41q-53 0 -93 9v110q15 -3 30 -3q34 0 50 17q18 19 18 94v469z" />
    <glyph glyph-name="afii10106" unicode="&#x459;" horiz-adv-x="1030" 
d="M628 222v-118h120q47 0 67 13q23 15 23 48q0 36 -27 48q-18 9 -66 9h-117zM791 0h-339v390h-168v-76q0 -65 -7 -144q-13 -89 -56 -132q-46 -44 -137 -44q-44 0 -71 7v115q11 -4 29 -4q31 0 50 19q25 25 31 87q4 43 4 131v159h501v-182h167q115 0 164 -41q51 -42 51 -122
q0 -86 -62 -129q-51 -34 -157 -34z" />
    <glyph glyph-name="afii10107" unicode="&#x45a;" horiz-adv-x="1052" 
d="M650 220v-116h118q47 0 67 13q23 14 23 46q0 33 -27 48q-18 9 -66 9h-115zM813 0h-339v220h-237v-220h-176v508h176v-182h237v182h176v-182h167q115 0 164 -41q51 -42 51 -122q0 -86 -62 -129q-51 -34 -157 -34z" />
    <glyph glyph-name="afii10108" unicode="&#x45b;" horiz-adv-x="752" 
d="M104 638v62h176v-62h252v-74h-252v-111q27 35 67 52q43 20 118 20q94 0 149 -34q76 -50 76 -173v-318h-176v275q0 75 -27 104q-28 28 -78 28q-59 0 -91 -36q-38 -45 -38 -141v-230h-176v564h-104v74h104z" />
    <glyph glyph-name="afii10109" unicode="&#x45c;" horiz-adv-x="637" 
d="M237 286l195 222h200l-235 -237l250 -271h-210l-200 236v-236h-176v508h176v-222zM325 712h165l-127 -144h-118z" />
    <glyph glyph-name="afii10110" unicode="&#x45e;" horiz-adv-x="599" 
d="M59 -177v109q28 -9 53 -9q39 0 60 17q23 19 38 61l10 30l-216 477h177l135 -339l118 339h165l-216 -517q-2 -5 -11 -25t-12 -26.5t-11 -22.5t-13 -24t-13.5 -18.5t-16.5 -18.5q-31 -29 -65 -38t-81 -9q-58 0 -101 14zM387 721h128q3 -54 -37 -99q-21 -21 -55 -32.5
t-59.5 -13.5t-64.5 -2t-64.5 2t-59.5 13.5t-55 32.5q-40 45 -37 99h128q-1 -36 21 -54q20 -17 67 -17t67 17q22 18 21 54z" />
    <glyph glyph-name="afii10193" unicode="&#x45f;" horiz-adv-x="706" 
d="M237 118h228v390h176v-508h-221v-171h-138v171h-221v508h176v-390z" />
    <glyph glyph-name="afii10146" unicode="&#x462;" horiz-adv-x="892" 
d="M367 310v-176h179q24 0 36 0.5t31.5 7t31.5 18.5q24 24 24 63q0 46 -33 69q-30 18 -87 18h-182zM367 700v-67h233v-106h-233v-87h191q160 0 227 -47q82 -57 82 -167q0 -119 -74 -174q-67 -52 -227 -52h-383v527h-170v106h170v67h184z" />
    <glyph glyph-name="afii10194" unicode="&#x463;" horiz-adv-x="736" 
d="M330 222v-118h120q47 0 67 13q23 15 23 48q0 36 -27 48q-18 9 -66 9h-117zM330 700v-192h189v-100h-189v-82h165q116 0 164 -35q57 -42 57 -122q0 -97 -61 -137q-49 -32 -159 -32h-342v408h-141v100h141v192h176z" />
    <glyph glyph-name="afii10147" unicode="&#x472;" horiz-adv-x="919" 
d="M874 350q0 -171 -110 -268q-113 -102 -306 -102t-306 102q-110 97 -110 268q0 167 110 268q113 102 306 102t306 -102q110 -101 110 -268zM667 299h-418q1 -33 13.5 -63t23.5 -44t22 -23q54 -49 153 -49q95 0 147 47q55 49 59 132zM250 413h416q-6 74 -56 119
q-53 48 -152 48q-102 0 -155 -53q-46 -44 -53 -114z" />
    <glyph glyph-name="afii10195" unicode="&#x473;" horiz-adv-x="740" 
d="M701 254q0 -135 -88 -206q-83 -67 -244 -67t-244 67q-88 71 -88 206t88 206q85 67 244 67t244 -67q88 -71 88 -206zM517 213h-298q5 -55 39 -84q39 -38 109 -38q68 0 106 32q11 7 26 30.5t18 59.5zM220 299h295q-4 51 -35 82q-36 36 -113 36q-73 0 -111 -38
q-32 -32 -36 -80z" />
    <glyph glyph-name="afii10148" unicode="&#x474;" horiz-adv-x="793" 
d="M377 183l113 347q27 85 72 130q54 52 156 52q50 0 85 -9v-138q-26 7 -42 7q-37 0 -61 -24q-25 -25 -42 -74l-177 -474h-207l-283 700h207l176 -517h3z" />
    <glyph glyph-name="afii10196" unicode="&#x475;" horiz-adv-x="611" 
d="M286 146l80 220q30 78 55 104q43 45 122 45q46 0 78 -8v-112q-15 4 -37 4q-31 0 -50 -19q-19 -18 -36 -61l-127 -319h-172l-208 508h179z" />
    <glyph glyph-name="afii10050" unicode="&#x490;" horiz-adv-x="647" 
d="M259 556v-556h-184v700h399v158h151l8 -302h-374z" />
    <glyph glyph-name="afii10098" unicode="&#x491;" horiz-adv-x="542" 
d="M237 394v-394h-176v508h338v133h121l8 -247h-291z" />
    <glyph glyph-name="uni0492" unicode="&#x492;" horiz-adv-x="716" 
d="M334 556v-156h215v-128h-215v-272h-184v272h-109v128h109v300h552v-144h-368z" />
    <glyph glyph-name="uni0493" unicode="&#x493;" horiz-adv-x="580" 
d="M306 390v-101h145v-105h-145v-184h-176v184h-83v105h83v219h436v-118h-260z" />
    <glyph glyph-name="uni0496" unicode="&#x496;" horiz-adv-x="1201" 
d="M480 0v323l-266 -323h-223l332 378l-318 322h217l258 -284v284h184v-284l258 284h217l-317 -322l205 -234h156l-10 -294h-150v150h-92l-267 323v-323h-184z" />
    <glyph glyph-name="uni0497" unicode="&#x497;" horiz-adv-x="952" 
d="M373 508h174v-212l174 212h186l-216 -241l133 -149h128l-7 -249h-138v131h-75l-185 229v-229h-174v229l-185 -229h-198l237 266l-214 242h186l174 -212v212z" />
    <glyph glyph-name="uni0498" unicode="&#x498;" horiz-adv-x="802" 
d="M35 232h192q-4 -58 45 -90q38 -25 116 -25q71 0 108 18q47 25 47 75t-50 67q-33 12 -109 12h-71v126h67q77 0 108 15q40 21 40 65q0 45 -51 69q-36 16 -99 16q-72 0 -108 -21q-45 -26 -45 -75h-190q0 117 100 180q79 54 243 54q203 0 288 -73q59 -52 59 -137
q0 -67 -39 -105q-37 -33 -91 -38v-5q66 -6 107 -44q49 -44 49 -116q0 -129 -108 -184q-64 -32 -156 -32v-195h-162v194q-40 0 -95.5 11.5t-94.5 36.5q-106 68 -100 201z" />
    <glyph glyph-name="uni0499" unicode="&#x499;" horiz-adv-x="644" 
d="M22 173h170v-4q0 -35 32 -57q30 -19 97 -19q47 0 71 13q32 15 32 48q0 27 -24 41t-100 14h-46v98h53q60 0 75 9q31 12 31 41q0 37 -39 50q-27 10 -73 10t-73 -16t-30 -51h-170q-2 63 43 109q66 68 237 68q117 0 190 -30q92 -39 92 -123q0 -45 -28 -73q-23 -23 -66 -29v-3
q14 -2 26.5 -6.5t21.5 -9.5t15 -9t10.5 -8t5.5 -4q33 -33 33 -86q0 -98 -87 -137q-56 -26 -131 -26v-154h-138v154q-107 8 -156 41q-74 50 -74 145v4z" />
    <glyph glyph-name="uni049A" unicode="&#x49a;" horiz-adv-x="810" 
d="M259 399l286 301h220l-331 -326l216 -230h140l-10 -294h-150v150h-76l-295 349v-349h-184v700h184v-301z" />
    <glyph glyph-name="uni049B" unicode="&#x49b;" horiz-adv-x="670" 
d="M237 286l195 222h200l-235 -237l141 -153h122l-7 -249h-138v131h-78l-200 236v-236h-176v508h176v-222z" />
    <glyph glyph-name="uni049C" unicode="&#x49c;" horiz-adv-x="922" 
d="M259 438h76v172h108v-172l249 262h220l-331 -326l351 -374h-231l-252 298h-6v-134h-108v134h-76v-298h-184v700h184v-262z" />
    <glyph glyph-name="uni049D" unicode="&#x49d;" horiz-adv-x="769" 
d="M237 325h65v132h101v-132l161 183h200l-235 -237l250 -271h-210l-166 196v-123h-101v134h-65v-207h-176v508h176v-183z" />
    <glyph glyph-name="uni04A0" unicode="&#x4a0;" horiz-adv-x="934" 
d="M418 399l286 301h220l-331 -326l351 -374h-231l-295 349v-349h-184v565h-221v135h405v-301z" />
    <glyph glyph-name="uni04A1" unicode="&#x4a1;" horiz-adv-x="726" 
d="M6 390v118h320v-222l195 222h200l-235 -237l250 -271h-210l-200 236v-236h-176v390h-144z" />
    <glyph glyph-name="uni04A2" unicode="&#x4a2;" horiz-adv-x="907" 
d="M885 -150h-160v150h-134v298h-332v-298h-184v700h184v-262h332v262h184v-556h120z" />
    <glyph glyph-name="uni04A3" unicode="&#x4a3;" horiz-adv-x="758" 
d="M237 208v-208h-176v508h176v-184h241v184h176v-394h94l-8 -245h-134v131h-128v208h-241z" />
    <glyph glyph-name="uni04AA" unicode="&#x4aa;" horiz-adv-x="846" 
d="M626 245h192q-3 -73 -36 -128.5t-75 -82.5q-70 -48 -191 -54v-191h-162v195q-124 10 -211 92q-101 95 -101 270q0 167 97 268q105 105 299 105q183 0 274 -62q37 -24 68 -72t33 -120h-192q-5 56 -52 86q-45 28 -118 28q-98 0 -151 -55q-58 -64 -58 -177q0 -117 60 -177
q53 -51 150 -51q83 0 122 27q48 33 52 99z" />
    <glyph glyph-name="uni04AB" unicode="&#x4ab;" horiz-adv-x="690" 
d="M652 328h-169q-3 44 -38 66q-29 19 -83 19q-69 0 -105 -41q-38 -43 -38 -123q0 -79 41 -120q34 -34 103 -34q57 0 83 20q37 26 38 76h170v-3q0 -81 -54 -139q-62 -62 -184 -66v-154h-138v155q-107 6 -172 69q-69 69 -69 193q0 125 68 197q78 84 246 84q136 0 209 -43
q92 -52 92 -156z" />
    <glyph glyph-name="uni04AE" unicode="&#x4ae;" 
d="M386 401l175 299h204l-295 -433v-267h-184v267l-295 433h218z" />
    <glyph glyph-name="uni04AF" unicode="&#x4af;" horiz-adv-x="610" 
d="M456 508h164l-226 -494v-217h-176v217l-227 494h178l144 -363z" />
    <glyph glyph-name="uni04B0" unicode="&#x4b0;" 
d="M386 401l175 299h204l-285 -418h152v-106h-162v-176h-184v176h-162v106h152l-285 418h218z" />
    <glyph glyph-name="uni04B1" unicode="&#x4b1;" horiz-adv-x="610" 
d="M456 508h164l-199 -434h151v-74h-178v-203h-176v203h-178v74h150l-199 434h178l144 -363z" />
    <glyph glyph-name="uni04B2" unicode="&#x4b2;" horiz-adv-x="855" 
d="M411 468l172 232h211l-279 -337l171 -219h159l-10 -294h-158v150h-113l-167 239l-173 -239h-224l287 363l-273 337h225z" />
    <glyph glyph-name="uni04B3" unicode="&#x4b3;" horiz-adv-x="687" 
d="M337 342l116 166h194l-213 -245l122 -145h131l-7 -249h-138v131h-96l-127 167l-124 -167h-195l222 261l-214 247h208z" />
    <glyph glyph-name="uni04B6" unicode="&#x4b6;" horiz-adv-x="882" 
d="M48 700h184v-175q0 -59 27 -85q32 -30 131 -30q74 0 127 11v279h184v-556h139l-10 -294h-161v150h-152v281q-67 -11 -152 -11q-204 0 -267 61q-32 30 -41 67.5t-9 87.5v214z" />
    <glyph glyph-name="uni04B7" unicode="&#x4b7;" horiz-adv-x="716" 
d="M40 508h168v-133q0 -43 18 -61q20 -20 89 -20q46 0 89 8v206h176v-390h103l-7 -249h-138v131h-134v191q-59 -11 -125 -11q-151 0 -202 49q-37 37 -37 109v170z" />
    <glyph glyph-name="uni04B8" unicode="&#x4b8;" horiz-adv-x="805" 
d="M48 700h184v-175q0 -59 27 -85q24 -23 74 -26v171h108v-175q49 0 101 11v279h184v-700h-184v281q-42 -8 -101 -10v-132h-108v132q-172 0 -235 60q-32 30 -41 67.5t-9 87.5v214z" />
    <glyph glyph-name="uni04B9" unicode="&#x4b9;" horiz-adv-x="686" 
d="M40 508h168v-133q0 -43 18 -61q21 -21 50 -16v159h101v-162q39 0 68 7v206h176v-508h-176v191q-34 -8 -68 -8v-110h-101v107q-54 -3 -111.5 8t-87.5 41q-37 37 -37 109v170z" />
    <glyph glyph-name="uni04BA" unicode="&#x4ba;" horiz-adv-x="791" 
d="M743 0h-184v194q0 56 -28 83q-38 35 -142 35q-75 0 -126 -11v-301h-184v700h184v-262q82 14 163 14q198 0 268 -74q49 -49 49 -140v-238z" />
    <glyph glyph-name="uni04BB" unicode="&#x4bb;" horiz-adv-x="709" 
d="M61 700h176v-247q27 35 67 52q43 20 118 20q94 0 149 -34q35 -22 53 -58.5t20.5 -61.5t2.5 -65v-306h-176v275q0 74 -27 104q-28 28 -79 28q-58 0 -90 -36q-38 -45 -38 -141v-230h-176v700z" />
    <glyph glyph-name="uni04C0" unicode="&#x4c0;" horiz-adv-x="302" 
d="M61 700h176v-700h-176v700z" />
    <glyph glyph-name="uni04D0" unicode="&#x4d0;" horiz-adv-x="790" 
d="M289 262h214l-108 262zM244 142l-61 -142h-192l314 700h181l314 -700h-192l-61 142h-303zM495 897h127q1 -62 -43 -100q-55 -48 -184 -48q-134 0 -184 48q-44 40 -44 100h128q-1 -37 25 -54q19 -16 75 -16q55 0 74 16q26 21 26 54z" />
    <glyph glyph-name="uni04D1" unicode="&#x4d1;" horiz-adv-x="708" 
d="M457 226v8q-14 -12 -31.5 -16.5t-59.5 -8.5l-37 -4q-51 -5 -71 -18q-24 -19 -24 -43q0 -27 21 -43q20 -16 67 -16q64 0 99 35q36 36 36 106zM249 344h-178q0 70 49 119q39 38 94.5 51t136.5 13q177 0 241 -67q19 -20 29.5 -47t12 -45t1.5 -47v-226q0 -37 8 -61
q10 -17 28 -20v-14h-192l-11 50h-4q-29 -37 -79 -54q-46 -15 -121 -15q-111 0 -158 32q-59 42 -59 121q0 63 38 100q22 21 61 34t60.5 16t64.5 7l80 7q31 3 43.5 4t27.5 5.5t22 12.5q12 12 12 33q0 32 -32 50q-24 14 -70 14q-50 0 -76 -18q-28 -22 -29 -55zM442 721h128
q3 -54 -37 -99q-21 -21 -55 -32.5t-59.5 -13.5t-64.5 -2t-64.5 2t-59.5 13.5t-55 32.5q-40 45 -37 99h128q-1 -36 21 -54q20 -17 67 -17t67 17q22 18 21 54z" />
    <glyph glyph-name="uni04D2" unicode="&#x4d2;" horiz-adv-x="790" 
d="M289 262h214l-108 262zM244 142l-61 -142h-192l314 700h181l314 -700h-192l-61 142h-303zM447 766v111h155v-111h-155zM184 766v111h154v-111h-154z" />
    <glyph glyph-name="uni04D3" unicode="&#x4d3;" horiz-adv-x="708" 
d="M457 226v8q-14 -12 -31.5 -16.5t-59.5 -8.5l-37 -4q-51 -5 -71 -18q-24 -19 -24 -43q0 -27 21 -43q20 -16 67 -16q64 0 99 35q36 36 36 106zM249 344h-178q0 70 49 119q39 38 94.5 51t136.5 13q177 0 241 -67q19 -20 29.5 -47t12 -45t1.5 -47v-226q0 -37 8 -61
q10 -17 28 -20v-14h-192l-11 50h-4q-29 -37 -79 -54q-46 -15 -121 -15q-111 0 -158 32q-59 42 -59 121q0 63 38 100q22 21 61 34t60.5 16t64.5 7l80 7q31 3 43.5 4t27.5 5.5t22 12.5q12 12 12 33q0 32 -32 50q-24 14 -70 14q-50 0 -76 -18q-28 -22 -29 -55zM405 597v111h155
v-111h-155zM142 597v111h154v-111h-154z" />
    <glyph glyph-name="uni04D4" unicode="&#x4d4;" horiz-adv-x="1253" 
d="M586 260v276h-23l-189 -276h212zM296 140l-93 -140h-208l493 700h737v-140h-454v-138h384v-132h-384v-150h465v-140h-650v140h-290z" />
    <glyph glyph-name="uni04D5" unicode="&#x4d5;" horiz-adv-x="1133" 
d="M449 227v9q-14 -12 -32 -16.5t-60 -8.5l-37 -4q-56 -6 -73 -19q-22 -14 -22 -43q0 -28 21 -44q20 -16 68 -16q63 0 98 35q37 37 37 107zM633 308h279q-5 51 -38 81q-32 30 -100 30q-65 0 -102 -33q-32 -31 -39 -78zM910 170h171q-8 -115 -125 -167q-54 -22 -172 -22
q-97 0 -160 26q-65 28 -96 87q-35 -64 -101 -91q-54 -22 -157 -22q-124 0 -172 31q-61 41 -61 121q0 66 49 106q46 37 175 48l80 7q74 6 91 22q14 13 14 34q0 34 -32 52q-28 15 -75 15q-46 0 -74 -18q-28 -20 -28 -50v-5h-178q2 76 47 121q59 62 218 62q99 0 155 -20
q52 -20 77 -64q36 38 78 58q52 26 140 26q167 0 246 -76q70 -70 70 -222v-14h-457q5 -56 39 -87q36 -35 111 -35q55 0 83 17q37 22 44 60z" />
    <glyph glyph-name="uni04D6" unicode="&#x4d6;" horiz-adv-x="748" 
d="M259 422h384v-132h-384v-150h465v-140h-649v700h638v-140h-454v-138zM474 897h127q1 -62 -43 -100q-55 -48 -184 -48q-134 0 -184 48q-44 40 -44 100h128q-1 -37 25 -54q19 -16 75 -16q55 0 74 16q26 21 26 54z" />
    <glyph glyph-name="uni04D7" unicode="&#x4d7;" horiz-adv-x="721" 
d="M220 311h281q-4 52 -36 78q-34 30 -104 30q-63 0 -99 -28q-38 -31 -42 -80zM498 166h177q-12 -114 -110 -158q-62 -27 -191 -27q-98 0 -160 15t-107 60q-70 70 -70 190q0 129 76 202q83 79 247 79q171 0 253 -82q69 -69 69 -206v-18h-465v-3q0 -58 33 -91q34 -34 112 -34
q62 0 91 14q36 17 45 59zM448 721h128q3 -54 -37 -99q-21 -21 -55 -32.5t-59.5 -13.5t-64.5 -2t-64.5 2t-59.5 13.5t-55 32.5q-40 45 -37 99h128q-1 -36 21 -54q20 -17 67 -17t67 17q22 18 21 54z" />
    <glyph glyph-name="uni04D8" unicode="&#x4d8;" horiz-adv-x="874" 
d="M624 270h-389q-4 -32 7 -66t44 -56q44 -31 145 -31q97 0 141 39q47 41 52 114zM238 476h-192q21 125 120 187q88 55 256 55q217 0 317 -98q90 -88 90 -263q0 -191 -91 -284q-39 -42 -95 -64.5t-97 -27t-98 -4.5q-195 0 -278 49q-128 78 -128 248v123h582q4 42 -10 77
t-27 48.5t-26 22.5q-48 33 -146 33q-79 0 -121 -27t-56 -75z" />
    <glyph glyph-name="afii10846" unicode="&#x4d9;" horiz-adv-x="721" 
d="M499 197h-281q4 -52 36 -78q34 -30 104 -30q63 0 99 28q38 31 42 80zM221 342h-177q12 114 110 158q62 27 191 27q98 0 160 -15t107 -60q70 -70 70 -190q0 -129 -76 -202q-79 -79 -247 -79q-171 0 -253 82q-69 69 -69 206v18h465v3q0 58 -33 91q-34 34 -112 34
q-62 0 -91 -14q-36 -17 -45 -59z" />
    <glyph glyph-name="uni04DA" unicode="&#x4da;" horiz-adv-x="874" 
d="M624 270h-389q-4 -32 7 -66t44 -56q44 -31 145 -31q97 0 141 39q47 41 52 114zM238 476h-192q21 125 120 187q88 55 256 55q217 0 317 -98q90 -88 90 -263q0 -191 -91 -284q-39 -42 -95 -64.5t-97 -27t-98 -4.5q-195 0 -278 49q-128 78 -128 248v123h582q4 42 -10 77
t-27 48.5t-26 22.5q-48 33 -146 33q-79 0 -121 -27t-56 -75zM489 766v111h155v-111h-155zM226 766v111h154v-111h-154z" />
    <glyph glyph-name="uni04DB" unicode="&#x4db;" horiz-adv-x="721" 
d="M499 197h-281q4 -52 36 -78q34 -30 104 -30q63 0 99 28q38 31 42 80zM221 342h-177q12 114 110 158q62 27 191 27q98 0 160 -15t107 -60q70 -70 70 -190q0 -129 -76 -202q-79 -79 -247 -79q-171 0 -253 82q-69 69 -69 206v18h465v3q0 58 -33 91q-34 34 -112 34
q-62 0 -91 -14q-36 -17 -45 -59zM411 597v111h155v-111h-155zM148 597v111h154v-111h-154z" />
    <glyph glyph-name="uni04DC" unicode="&#x4dc;" horiz-adv-x="1143" 
d="M480 0v323l-266 -323h-223l332 378l-318 322h217l258 -284v284h184v-284l258 284h217l-317 -322l331 -378h-222l-267 323v-323h-184zM623 766v111h155v-111h-155zM360 766v111h154v-111h-154z" />
    <glyph glyph-name="uni04DD" unicode="&#x4dd;" horiz-adv-x="919" 
d="M373 508h174v-212l174 212h186l-216 -241l238 -267h-197l-185 229v-229h-174v229l-185 -229h-198l237 266l-214 242h186l174 -212v212zM510 597v111h155v-111h-155zM247 597v111h154v-111h-154z" />
    <glyph glyph-name="uni04DE" unicode="&#x4de;" horiz-adv-x="802" 
d="M35 232h192q-4 -58 45 -90q38 -25 116 -25q71 0 108 18q47 25 47 75t-50 67q-33 12 -109 12h-71v126h67q77 0 108 15q40 21 40 65q0 45 -51 69q-36 16 -99 16q-72 0 -108 -21q-45 -26 -45 -75h-190q0 117 100 180q79 54 243 54q203 0 288 -73q59 -52 59 -137
q0 -67 -39 -105q-37 -33 -91 -38v-5q66 -6 107 -44q49 -44 49 -116q0 -129 -108 -184q-68 -35 -246 -35q-183 0 -262 50q-106 68 -100 201zM453 766v111h155v-111h-155zM190 766v111h154v-111h-154z" />
    <glyph glyph-name="uni04DF" unicode="&#x4df;" horiz-adv-x="644" 
d="M22 173h170v-4q0 -35 32 -57q30 -19 97 -19q47 0 71 13q32 15 32 48q0 27 -24 41t-100 14h-46v98h53q60 0 75 9q31 12 31 41q0 37 -39 50q-27 10 -73 10t-73 -16t-30 -51h-170q-2 63 43 109q66 68 237 68q117 0 190 -30q92 -39 92 -123q0 -45 -28 -73q-23 -23 -66 -29v-3
q14 -2 26.5 -6.5t21.5 -9.5t15 -9t10.5 -8t5.5 -4q33 -33 33 -86q0 -98 -87 -137q-54 -28 -195 -28q-166 0 -230 43q-74 50 -74 145v4zM373 597v111h155v-111h-155zM110 597v111h154v-111h-154z" />
    <glyph glyph-name="uni04E2" unicode="&#x4e2;" horiz-adv-x="868" 
d="M259 231l345 469h185v-700h-184v473l-344 -473h-186v700h184v-469zM250 766v91h368v-91h-368z" />
    <glyph glyph-name="uni04E3" unicode="&#x4e3;" horiz-adv-x="746" 
d="M237 168l259 340h185v-508h-176v340l-260 -340h-184v508h176v-340zM189 598v91h368v-91h-368z" />
    <glyph glyph-name="uni04E4" unicode="&#x4e4;" horiz-adv-x="868" 
d="M259 231l345 469h185v-700h-184v473l-344 -473h-186v700h184v-469zM486 766v111h155v-111h-155zM223 766v111h154v-111h-154z" />
    <glyph glyph-name="uni04E5" unicode="&#x4e5;" horiz-adv-x="746" 
d="M237 168l259 340h185v-508h-176v340l-260 -340h-184v508h176v-340zM424 597v111h155v-111h-155zM161 597v111h154v-111h-154z" />
    <glyph glyph-name="uni04E6" unicode="&#x4e6;" horiz-adv-x="919" 
d="M458 580q-97 0 -152 -54q-64 -61 -64 -176t64 -176q55 -54 152 -54t152 54q64 61 64 176t-64 176q-55 54 -152 54zM874 350q0 -171 -110 -268q-113 -102 -306 -102t-306 102q-110 97 -110 268q0 167 110 268q113 102 306 102t306 -102q110 -101 110 -268zM511 766v111
h155v-111h-155zM248 766v111h154v-111h-154z" />
    <glyph glyph-name="uni04E7" unicode="&#x4e7;" horiz-adv-x="740" 
d="M369 413q-70 0 -108 -38q-42 -42 -42 -121t42 -121q38 -38 108 -38t108 38q42 42 42 121t-42 121q-38 38 -108 38zM701 254q0 -135 -88 -206q-83 -67 -244 -67t-244 67q-88 71 -88 206t88 206q85 67 244 67t244 -67q88 -71 88 -206zM421 597v111h155v-111h-155zM158 597
v111h154v-111h-154z" />
    <glyph glyph-name="uni04E8" unicode="&#x4e8;" horiz-adv-x="919" 
d="M874 350q0 -171 -110 -268q-113 -102 -306 -102t-306 102q-110 97 -110 268q0 167 110 268q113 102 306 102t306 -102q110 -101 110 -268zM667 299h-418q1 -33 13.5 -63t23.5 -44t22 -23q54 -49 153 -49q95 0 147 47q55 49 59 132zM250 413h416q-6 74 -56 119
q-53 48 -152 48q-102 0 -155 -53q-46 -44 -53 -114z" />
    <glyph glyph-name="uni04E9" unicode="&#x4e9;" horiz-adv-x="740" 
d="M701 254q0 -135 -88 -206q-83 -67 -244 -67t-244 67q-88 71 -88 206t88 206q85 67 244 67t244 -67q88 -71 88 -206zM517 213h-298q5 -55 39 -84q39 -38 109 -38q68 0 106 32q11 7 26 30.5t18 59.5zM220 299h295q-4 51 -35 82q-36 36 -113 36q-73 0 -111 -38
q-32 -32 -36 -80z" />
    <glyph glyph-name="uni04EA" unicode="&#x4ea;" horiz-adv-x="919" 
d="M874 350q0 -171 -110 -268q-113 -102 -306 -102t-306 102q-110 97 -110 268q0 167 110 268q113 102 306 102t306 -102q110 -101 110 -268zM667 299h-418q1 -33 13.5 -63t23.5 -44t22 -23q54 -49 153 -49q95 0 147 47q55 49 59 132zM250 413h416q-6 74 -56 119
q-53 48 -152 48q-102 0 -155 -53q-46 -44 -53 -114zM511 766v111h155v-111h-155zM248 766v111h154v-111h-154z" />
    <glyph glyph-name="uni04EB" unicode="&#x4eb;" horiz-adv-x="740" 
d="M701 254q0 -135 -88 -206q-83 -67 -244 -67t-244 67q-88 71 -88 206t88 206q85 67 244 67t244 -67q88 -71 88 -206zM517 213h-298q5 -55 39 -84q39 -38 109 -38q68 0 106 32q11 7 26 30.5t18 59.5zM220 299h295q-4 51 -35 82q-36 36 -113 36q-73 0 -111 -38
q-32 -32 -36 -80zM421 597v111h155v-111h-155zM158 597v111h154v-111h-154z" />
    <glyph glyph-name="uni04EE" unicode="&#x4ee;" horiz-adv-x="689" 
d="M367 343l148 357h184l-255 -536q-45 -96 -77 -124q-35 -33 -72.5 -43t-91.5 -10q-71 0 -119 17v137q31 -14 70 -14t60 13q6 3 10.5 7.5l7.5 7.5t6.5 9t5 8.5t4.5 9t3 7.5l8 19l-255 492h201zM160 766v91h368v-91h-368z" />
    <glyph glyph-name="uni04EF" unicode="&#x4ef;" horiz-adv-x="599" 
d="M59 -177v109q28 -9 53 -9q39 0 60 17q23 19 38 61l10 30l-216 477h177l135 -339l118 339h165l-216 -517q-2 -5 -11 -25t-12 -26.5t-11 -22.5t-13 -24t-13.5 -18.5t-16.5 -18.5q-31 -29 -65 -38t-81 -9q-58 0 -101 14zM115 598v91h368v-91h-368z" />
    <glyph glyph-name="uni04F0" unicode="&#x4f0;" horiz-adv-x="689" 
d="M367 343l148 357h184l-255 -536q-45 -96 -77 -124q-35 -33 -72.5 -43t-91.5 -10q-71 0 -119 17v137q31 -14 70 -14t60 13q6 3 10.5 7.5l7.5 7.5t6.5 9t5 8.5t4.5 9t3 7.5l8 19l-255 492h201zM409 766v111h155v-111h-155zM146 766v111h154v-111h-154z" />
    <glyph glyph-name="uni04F1" unicode="&#x4f1;" horiz-adv-x="599" 
d="M59 -177v109q28 -9 53 -9q39 0 60 17q23 19 38 61l10 30l-216 477h177l135 -339l118 339h165l-216 -517q-2 -5 -11 -25t-12 -26.5t-11 -22.5t-13 -24t-13.5 -18.5t-16.5 -18.5q-31 -29 -65 -38t-81 -9q-58 0 -101 14zM350 597v111h155v-111h-155zM87 597v111h154v-111
h-154z" />
    <glyph glyph-name="uni04F2" unicode="&#x4f2;" horiz-adv-x="689" 
d="M367 343l148 357h184l-255 -536q-45 -96 -77 -124q-35 -33 -72.5 -43t-91.5 -10q-71 0 -119 17v137q31 -14 70 -14t60 13q6 3 10.5 7.5l7.5 7.5t6.5 9t5 8.5t4.5 9t3 7.5l8 19l-255 492h201zM471 904h163l-116 -138h-121zM249 904h156l-115 -138h-115z" />
    <glyph glyph-name="uni04F3" unicode="&#x4f3;" horiz-adv-x="599" 
d="M59 -177v109q28 -9 53 -9q39 0 60 17q23 19 38 61l10 30l-216 477h177l135 -339l118 339h165l-216 -517q-2 -5 -11 -25t-12 -26.5t-11 -22.5t-13 -24t-13.5 -18.5t-16.5 -18.5q-31 -29 -65 -38t-81 -9q-58 0 -101 14zM411 713h163l-116 -138h-121zM189 713h156l-115 -138
h-115z" />
    <glyph glyph-name="uni04F4" unicode="&#x4f4;" horiz-adv-x="780" 
d="M48 700h184v-175q0 -59 27 -85q32 -30 131 -30q74 0 127 11v279h184v-700h-184v281q-67 -11 -152 -11q-204 0 -267 61q-32 30 -41 67.5t-9 87.5v214zM442 766v111h155v-111h-155zM179 766v111h154v-111h-154z" />
    <glyph glyph-name="uni04F5" unicode="&#x4f5;" horiz-adv-x="645" 
d="M40 508h168v-133q0 -43 18 -61q20 -20 89 -20q46 0 89 8v206h176v-508h-176v191q-59 -11 -125 -11q-151 0 -202 49q-37 37 -37 109v170zM373 597v111h155v-111h-155zM110 597v111h154v-111h-154z" />
    <glyph glyph-name="uni04F8" unicode="&#x4f8;" horiz-adv-x="1079" 
d="M259 310v-176h181q64 0 93 23q30 26 30 70q0 41 -31 63q-25 20 -89 20h-184zM259 700v-260h209q137 0 208 -55q70 -54 70 -160q0 -128 -91 -185q-62 -40 -210 -40h-370v700h184zM816 700h184v-700h-184v700zM591 766v111h155v-111h-155zM328 766v111h154v-111h-154z" />
    <glyph glyph-name="uni04F9" unicode="&#x4f9;" horiz-adv-x="921" 
d="M237 222v-118h120q47 0 67 13q23 15 23 48q0 36 -27 48q-18 9 -66 9h-117zM237 508v-182h166q115 0 164 -41q51 -42 51 -122q0 -86 -62 -129q-51 -34 -157 -34h-338v508h176zM680 508h176v-508h-176v508zM511 597v111h155v-111h-155zM248 597v111h154v-111h-154z" />
    <glyph glyph-name="uni1E9E" unicode="&#x1e9e;" horiz-adv-x="1526" 
d="M794 227h192v-4q0 -44 27 -67q38 -38 135 -38q72 0 100 16q46 24 46 70q0 41 -49 60q-20 8 -97 23l-101 16q-49 7 -80.5 13.5t-70 23t-59.5 39.5q-39 46 -39 112q0 119 96 179q81 50 229 50q165 0 244 -47q100 -58 94 -170h-186q-5 45 -42 64q-39 19 -112 19
q-66 0 -96 -19q-35 -23 -35 -61q0 -36 50 -53q26 -11 120 -25l80 -13q131 -23 178 -58q71 -53 71 -153q0 -110 -82 -170q-77 -54 -247 -54q-107 0 -184 16t-125 66q-57 60 -57 161v4zM35 227h192v-4q0 -44 27 -67q38 -38 135 -38q72 0 100 16q46 24 46 70q0 41 -49 60
q-20 8 -97 23l-101 16q-49 7 -80.5 13.5t-70 23t-59.5 39.5q-39 46 -39 112q0 119 96 179q81 50 229 50q165 0 244 -47q100 -58 94 -170h-186q-5 45 -42 64q-39 19 -112 19q-66 0 -96 -19q-35 -23 -35 -61q0 -36 50 -53q26 -11 120 -25l80 -13q131 -23 178 -58
q71 -53 71 -153q0 -110 -82 -170q-77 -54 -247 -54q-107 0 -184 16t-125 66q-57 60 -57 161v4z" />
    <glyph glyph-name="uni2010" unicode="&#x2010;" horiz-adv-x="569" 
d="M80 231v125h409v-125h-409z" />
    <glyph glyph-name="uni2011" unicode="&#x2011;" horiz-adv-x="569" 
d="M80 231v125h409v-125h-409z" />
    <glyph glyph-name="figuredash" unicode="&#x2012;" horiz-adv-x="713" 
d="M50 392h613v-68h-613v68z" />
    <glyph glyph-name="endash" unicode="&#x2013;" horiz-adv-x="713" 
d="M50 301h613v-68h-613v68z" />
    <glyph glyph-name="emdash" unicode="&#x2014;" horiz-adv-x="921" 
d="M50 233v68h821v-68h-821z" />
    <glyph glyph-name="afii00208" unicode="&#x2015;" horiz-adv-x="1450" 
d="M50 207v118h1350v-118h-1350z" />
    <glyph glyph-name="quoteleft" unicode="&#x2018;" horiz-adv-x="390" 
d="M278 557v-150h-172v133q0 90 39 132q45 47 130 47h3v-72h-3q-39 0 -63 -19q-24 -21 -24 -63v-8h90z" />
    <glyph glyph-name="quoteright" unicode="&#x2019;" horiz-adv-x="390" 
d="M106 570v150h172v-133q0 -90 -39 -132q-45 -47 -130 -47h-3v72h3q39 0 63 19q24 21 24 63v8h-90z" />
    <glyph glyph-name="quotesinglbase" unicode="&#x201a;" horiz-adv-x="384" 
d="M106 0v150h172v-133q0 -90 -39 -132q-45 -47 -130 -47h-3v72h3q39 0 63 19q24 21 24 63v8h-90z" />
    <glyph glyph-name="quotedblleft" unicode="&#x201c;" horiz-adv-x="568" 
d="M252 558v-149h-172v120q0 113 51 155q42 36 118 36h3v-72h-3q-46 0 -66 -20q-21 -21 -21 -66v-4h90zM484 558v-149h-172v120q0 113 51 155q42 36 118 36h3v-72h-3q-46 0 -66 -20q-21 -21 -21 -66v-4h90z" />
    <glyph glyph-name="quotedblright" unicode="&#x201d;" horiz-adv-x="568" 
d="M312 571v149h172v-120q0 -112 -51 -155q-42 -36 -118 -36h-3v72h3q46 0 66 20q21 21 21 66v4h-90zM80 571v149h172v-120q0 -112 -51 -155q-42 -36 -118 -36h-3v72h3q46 0 66 20q21 21 21 66v4h-90z" />
    <glyph glyph-name="quotedblbase" unicode="&#x201e;" horiz-adv-x="558" 
d="M309 0v149h172v-120q0 -113 -51 -155q-42 -36 -118 -36h-3v72h3q46 0 66 20q21 21 21 66v4h-90zM77 0v149h172v-120q0 -113 -51 -155q-42 -36 -118 -36h-3v72h3q46 0 66 20q21 21 21 66v4h-90z" />
    <glyph glyph-name="dagger" unicode="&#x2020;" horiz-adv-x="684" 
d="M250 700h184v-185h225v-139h-225v-561h-184v561h-225v139h225v185z" />
    <glyph glyph-name="daggerdbl" unicode="&#x2021;" horiz-adv-x="680" 
d="M248 699h184v-186h223v-140h-223v-162h223v-140h-223v-258h-184v258h-223v140h223v162h-223v140h223v186z" />
    <glyph glyph-name="bullet" unicode="&#x2022;" horiz-adv-x="733" 
d="M185 360q0 73 55 118q48 40 126 40q81 0 127 -40q55 -47 55 -118q0 -34 -15.5 -66t-39.5 -51q-46 -40 -127 -40q-78 0 -126 40q-55 45 -55 117z" />
    <glyph glyph-name="ellipsis" unicode="&#x2026;" horiz-adv-x="1208" 
d="M918 0v164h183v-164h-183zM512 0v164h184v-164h-184zM106 0v164h184v-164h-184z" />
    <glyph glyph-name="perthousand" unicode="&#x2030;" horiz-adv-x="1594" 
d="M490 517q0 -100 -63 -154q-54 -46 -155 -46t-155 46q-63 54 -63 154t63 154q54 46 155 46q100 0 155 -46q63 -52 63 -154zM272 625q-43 0 -66 -26q-26 -29 -26 -82t26 -82q23 -26 66 -26t66 26q26 29 26 82t-26 82q-23 26 -66 26zM217 0l575 709h96l-572 -709h-99z
M1042 183q0 -100 -63 -154q-54 -46 -155 -46t-155 46q-63 54 -63 154t63 154q54 46 155 46q100 0 155 -46q63 -52 63 -154zM824 291q-43 0 -66 -26q-26 -29 -26 -82t26 -82q23 -26 66 -26t66 26q26 29 26 82t-26 82q-23 26 -66 26zM1540 183q0 -100 -63 -154
q-54 -46 -155 -46t-155 46q-63 54 -63 154t63 154q54 46 155 46q100 0 155 -46q63 -52 63 -154zM1322 291q-43 0 -66 -26q-26 -29 -26 -82t26 -82q23 -26 66 -26t66 26q26 29 26 82t-26 82q-23 26 -66 26z" />
    <glyph glyph-name="guilsinglleft" unicode="&#x2039;" horiz-adv-x="316" 
d="M62 336l179 136v-133l-102 -71l102 -72v-133l-179 137v136z" />
    <glyph glyph-name="guilsinglright" unicode="&#x203a;" horiz-adv-x="310" 
d="M253 336v-136l-179 -137v133l102 72l-102 71v133z" />
    <glyph glyph-name="fraction" unicode="&#x2044;" horiz-adv-x="459" 
d="M-150 0l661 700h98l-661 -700h-98z" />
    <glyph glyph-name="Euro" unicode="&#x20ac;" 
d="M557 260h-266q1 -68 48 -108q41 -32 120 -32q67 0 129 21q71 24 135 75v-179q-47 -20 -121 -39q-82 -18 -174 -18q-45 0 -78 3t-83 22.5t-87 54.5q-79 76 -85 202h-105l32 64h70v48h-99l31 66h75q15 113 95 193q93 86 272 86q110 0 177 -26q60 -23 111 -65l-76 -130
q-39 35 -80 55q-50 26 -124 26q-89 0 -133 -44q-37 -37 -44 -95h346l-31 -65h-324v-50h300z" />
    <glyph glyph-name="afii61352" unicode="&#x2116;" horiz-adv-x="1395" 
d="M801 700v-700h-179l-353 470v-470h-184v700h180l352 -470v470h184zM1337 505q0 -90 -54 -140q-60 -55 -165 -55t-165 55q-54 50 -54 140t54 140q60 55 165 55t165 -55q54 -50 54 -140zM1118 614q-43 0 -66 -23q-29 -29 -29 -86t29 -86q23 -23 66 -23t66 23q29 29 29 86
t-29 86q-23 23 -66 23zM909 117v106h418v-106h-418z" />
    <glyph glyph-name="uni2117" unicode="&#x2117;" horiz-adv-x="836" 
d="M786 350q0 -90 -33 -157.5t-75 -106.5q-105 -105 -260 -105t-260 105q-42 39 -75 106.5t-33 157.5t33 157.5t75 106.5q105 105 260 105t260 -105q42 -39 75 -106.5t33 -157.5zM718 350q0 60 -24 119t-66 101q-87 84 -210 84t-210 -84q-42 -42 -66 -101t-24 -119t24 -119
t66 -101q87 -84 210 -84t210 84q42 42 66 101t24 119zM367 450v-86h83q32 0 45 11q14 14 14 33q0 24 -18 34q-15 8 -43 8h-81zM263 524h201q78 0 110 -23q43 -31 43 -95q0 -53 -30 -81q-15 -14 -38 -21.5t-40 -8.5t-49 -1h-93v-113h-104v343z" />
    <glyph glyph-name="trademark" unicode="&#x2122;" horiz-adv-x="1092" 
d="M737 349l-96 238h-4l5 -30v-208h-124v351h166l95 -240h3l94 240h166v-351h-123v208l4 30h-3l-96 -238h-87zM182 614h-132v86h397v-86h-133v-265h-132v265z" />
    <glyph glyph-name="partialdiff" unicode="&#x2202;" horiz-adv-x="734" 
d="M380 392q-69 0 -111 -42q-25 -25 -39 -63t-14 -72q0 -55 33 -88q33 -32 92 -32q70 0 109 37q25 23 40.5 63t15.5 78q0 59 -36 89q-34 30 -90 30zM285 672l22 82q31 -2 64 -6.5t85 -15.5t101 -35.5t82 -59.5q81 -85 81 -226q0 -105 -33.5 -199t-95.5 -150
q-56 -50 -117.5 -65.5t-142.5 -15.5q-159 0 -229 64q-68 64 -68 175q0 128 88 209q51 45 107.5 60t126.5 15q104 0 166 -32t85 -95h7v14q0 120 -65 185q-43 41 -117 65t-147 31z" />
    <glyph glyph-name="product" unicode="&#x220f;" horiz-adv-x="912" 
d="M297 560v-681h-184v681h-68v140h822v-140h-68v-681h-184v681h-318z" />
    <glyph glyph-name="summation" unicode="&#x2211;" horiz-adv-x="690" 
d="M38 700h616v-140h-414l254 -257l-267 -298h446v-140h-640v126l281 312l-276 275v122z" />
    <glyph glyph-name="minus" unicode="&#x2212;" horiz-adv-x="643" 
d="M50 398h543v-97h-543v97z" />
    <glyph glyph-name="uni2215" unicode="&#x2215;" horiz-adv-x="185" 
d="M-200 -56l494 756h91l-493 -756h-92z" />
    <glyph glyph-name="uni2219" unicode="&#x2219;" horiz-adv-x="306" 
d="M59 251v162h188v-162h-188z" />
    <glyph glyph-name="radical" unicode="&#x221a;" horiz-adv-x="803" 
d="M283 510l139 -405l141 737h220v-88h-131l-178 -854h-124l-195 522h-135v88h263z" />
    <glyph glyph-name="infinity" unicode="&#x221e;" horiz-adv-x="964" 
d="M538 366q31 -57 78 -95q55 -44 115 -44q57 0 86 34q31 36 31 93t-33 88q-35 34 -95 34q-62 0 -109 -34q-39 -28 -73 -76zM422 335q-31 50 -73 91q-53 50 -113 50q-56 0 -89 -38q-31 -37 -31 -88q0 -54 33 -87q36 -36 94 -36q57 0 107 36q43 32 72 72zM462 296
q-39 -53 -88 -88q-60 -45 -139 -45q-42 0 -73 10.5t-61 41.5q-51 53 -51 131q0 84 54 138q56 56 157 56q81 0 142 -39q53 -33 93 -95q43 58 94 93q59 41 134 41q88 0 142 -54q48 -48 48 -127q0 -83 -55 -141q-55 -55 -149 -55q-92 0 -156 41q-51 33 -92 92z" />
    <glyph glyph-name="integral" unicode="&#x222b;" horiz-adv-x="445" 
d="M250 372l92 -190q35 -74 52 -123.5t17 -101.5q0 -81 -51 -124q-47 -39 -138 -39q-95 0 -135 40q-41 36 -41 104v4h127v-2q0 -30 13 -42q14 -14 41 -14t40 13q15 15 15 39q0 25 -30 92q-11 24 -25.5 51.5t-33.5 67.5l-88 184q-71 145 -71 232q0 81 51 123q46 39 135 39
q96 0 136 -37q44 -37 44 -107v-4h-127v2q0 30 -12 42q-14 14 -43 14q-27 0 -40 -13q-15 -13 -15 -37q0 -28 29 -90l28 -59q6 -10 15.5 -31.5t14.5 -32.5z" />
    <glyph glyph-name="approxequal" unicode="&#x2248;" horiz-adv-x="720" 
d="M120 383l-70 34q20 49 61 86q46 43 113 43q57 0 123 -31l64 -31q3 -1 14.5 -7t15.5 -7.5t14 -5.5t17 -5.5t18 -3t22 -1.5q37 0 59 22q14 14 27 43l70 -33q-18 -49 -52 -85q-44 -44 -111 -44q-63 0 -127 31l-69 34q-54 26 -91 26q-41 0 -62 -19q-23 -19 -36 -46zM123 167
l-70 35q25 54 60 86q43 42 114 42q62 0 123 -30l64 -32q62 -30 101 -30q33 0 56 21q13 11 29 45l70 -34q-16 -43 -52 -84q-26 -27 -50 -35.5t-60 -8.5q-43 0 -65.5 6t-61.5 25l-69 33q-3 2 -10.5 5.5t-11 5t-10 4.5t-10.5 4t-10.5 3t-11.5 3t-12 1.5t-15 0.5q-38 0 -63 -20
q-24 -18 -35 -46z" />
    <glyph glyph-name="notequal" unicode="&#x2260;" horiz-adv-x="636" 
d="M50 483h300l62 110l73 -40l-37 -70h138v-97h-190l-61 -109h251v-97h-300l-63 -110l-75 41l39 69h-137v97h189l61 109h-250v97z" />
    <glyph glyph-name="lessequal" unicode="&#x2264;" horiz-adv-x="693" 
d="M571 54l-29 -66l-482 239l29 67zM150 441l459 -224l-28 -66l-508 250v78l507 251l28 -67z" />
    <glyph glyph-name="greaterequal" unicode="&#x2265;" horiz-adv-x="693" 
d="M98 54l482 240l29 -67l-482 -239zM519 441l-458 222l28 67l507 -251v-78l-508 -250l-28 66z" />
    <glyph glyph-name="dotmath" unicode="&#x22c5;" horiz-adv-x="306" 
d="M59 251v162h188v-162h-188z" />
    <glyph glyph-name="lozenge" unicode="&#x25ca;" horiz-adv-x="524" 
d="M474 350l-212 -368l-212 368l212 368zM363 350l-101 182l-101 -182l102 -182z" />
    <glyph glyph-name="openbullet" unicode="&#x25e6;" horiz-adv-x="330" 
d="M113 594q0 -22 15 -37t37 -15t37 15t15 37t-15 37t-37 15t-37 -15t-15 -37zM50 594q0 48 33.5 81.5t81.5 33.5t81.5 -33.5t33.5 -81.5t-33.5 -81.5t-81.5 -33.5t-81.5 33.5t-33.5 81.5z" />
    <glyph glyph-name="uni2606" unicode="&#x2606;" horiz-adv-x="1092" 
d="M473 494h146v66h108v-91l126 -204q49 -80 49 -151v-114h-712v114q0 71 49 151l126 204v91h108v-66zM773 503v18q62 -39 145 -39q38 0 90 16v-21q0 -23 -2 -35.5t-11 -25.5t-28.5 -18.5t-51.5 -5.5q-84 0 -113 30t-29 81zM319 521v-18q0 -51 -29 -81t-113 -30
q-61 0 -77 19.5t-16 65.5v21q52 -16 90 -16q83 0 145 39zM319 560v-10q-77 -44 -148 -44q-48 0 -87 15q14 79 55 151q186 69 401 69q229 0 413 -69q41 -72 55 -151q-39 -15 -87 -15q-71 0 -148 44v10q-5 22 -18.5 35.5t-65 25t-143.5 11.5t-143.5 -11.5t-65 -25t-18.5 -35.5
z" />
    <glyph glyph-name="uniF400" unicode="&#xf400;" horiz-adv-x="2" 
d="M-338 710h167l-127 -142h-120z" />
    <glyph glyph-name="uniF401" unicode="&#xf401;" horiz-adv-x="2" 
d="M-338 908h167l-127 -142h-120z" />
    <glyph glyph-name="uniF406" unicode="&#xf406;" horiz-adv-x="535" 
d="M359 913h126q1 -62 -37 -100q-45 -47 -176 -47q-136 0 -186 50q-36 33 -36 97h127q-3 -35 27 -56q21 -13 64 -13q47 0 64 13q31 18 27 56z" />
    <glyph glyph-name="uniF407" unicode="&#xf407;" horiz-adv-x="357" 
d="M42 -249l25 69q50 -14 91 -14q34 0 44 6q19 8 19 28q0 24 -27 31q-19 5 -48 5q-14 0 -58 -4l22 68q20 4 63 4q76 0 109 -21q47 -28 47 -86q0 -60 -48 -86q-34 -19 -110 -19q-80 0 -129 19z" />
    <glyph glyph-name="uniF408" unicode="&#xf408;" horiz-adv-x="596" 
d="M299 856l-107 -90h-142l142 132h212l142 -132h-141z" />
    <glyph glyph-name="uniF409" unicode="&#xf409;" horiz-adv-x="381" 
d="M106 -61h163v-88q0 -64 -34 -100q-40 -43 -126 -43h-3v66h5q35 0 54 9q30 13 32 46h-91v110z" />
    <glyph glyph-name="uniF40A" unicode="&#xf40a;" horiz-adv-x="356" 
d="M106 582v118h138v-93q0 -86 -39 -128q-34 -34 -99 -36v58q32 0 49 17q23 20 23 61v3h-72z" />
    <glyph glyph-name="uniF40B" unicode="&#xf40b;" horiz-adv-x="257" 
d="M50 766v113h153v-113h-153z" />
    <glyph glyph-name="uniF40C" unicode="&#xf40c;" horiz-adv-x="336" 
d="M107 883q0 -26 17.5 -43.5t43.5 -17.5t43.5 17.5t17.5 43.5t-17.5 43.5t-43.5 17.5t-43.5 -17.5t-17.5 -43.5zM50 883q0 48 35 83t83 35t83 -35t35 -83t-35 -83t-83 -35t-83 35t-35 83z" />
    <glyph glyph-name="uniF40D" unicode="&#xf40d;" horiz-adv-x="567" 
d="M419 902h98q-14 -81 -45 -110q-32 -28 -84 -28q-49 0 -95 22l-31 16q-48 25 -65 25q-24 0 -36 -17q-12 -16 -12 -34h-99q6 61 44 99q36 36 99 36q43 0 87 -22l33 -17q44 -23 63 -23q22 0 33 18q8 10 10 35z" />
    <glyph glyph-name="uniF40E" unicode="&#xf40e;" horiz-adv-x="419" 
d="M368 -127l27 -72q-32 -20 -78 -34q-45 -13 -94 -13q-65 0 -102 24q-46 29 -46 87q0 48 31 84q27 32 67 51h126q-52 -21 -88 -57q-29 -29 -29 -67q0 -19 12 -31q13 -13 42 -13q26 0 55 8q33 10 77 33z" />
    <glyph glyph-name="uniF47E" unicode="&#xf47e;" horiz-adv-x="832" 
d="M762 700v-425q0 -140 -71 -211q-51 -51 -118.5 -66.5t-158.5 -15.5t-158.5 15.5t-118.5 66.5q-71 71 -71 211v425h184v-406q0 -90 39 -129q36 -39 125 -39q86 0 125 39t39 129v406h184zM337 766v113h153v-113h-153z" />
    <glyph glyph-name="uniF47F" unicode="&#xf47f;" horiz-adv-x="706" 
d="M477 0v63h-4q-32 -42 -76 -61q-41 -18 -119 -18q-116 0 -167 49q-53 50 -53 162v313h176v-281q0 -72 29 -99q26 -26 78 -26q57 0 89 34q35 38 35 127v245h176v-508h-164zM275 597v113h153v-113h-153z" />
    <glyph glyph-name="uniF481" unicode="&#xf481;" horiz-adv-x="790" 
d="M289 262h214l-108 262zM244 142l-61 -142h-192l314 700h181l314 -700h-192l-61 142h-303zM261 -249l25 69q50 -14 91 -14q34 0 44 6q19 8 19 28q0 24 -27 31q-19 5 -48 5q-14 0 -58 -4l22 68q20 4 63 4q76 0 109 -21q47 -28 47 -86q0 -60 -48 -86q-34 -19 -110 -19
q-80 0 -129 19z" />
    <glyph glyph-name="uniF482" unicode="&#xf482;" horiz-adv-x="708" 
d="M457 226v8q-14 -12 -31.5 -16.5t-59.5 -8.5l-37 -4q-51 -5 -71 -18q-24 -19 -24 -43q0 -27 21 -43q20 -16 67 -16q64 0 99 35q36 36 36 106zM249 344h-178q0 70 49 119q39 38 94.5 51t136.5 13q177 0 241 -67q19 -20 29.5 -47t12 -45t1.5 -47v-226q0 -37 8 -61
q10 -17 28 -20v-14h-192l-11 50h-4q-29 -37 -79 -54q-46 -15 -121 -15q-111 0 -158 32q-59 42 -59 121q0 63 38 100q22 21 61 34t60.5 16t64.5 7l80 7q31 3 43.5 4t27.5 5.5t22 12.5q12 12 12 33q0 32 -32 50q-24 14 -70 14q-50 0 -76 -18q-28 -22 -29 -55zM217 -242l23 66
q45 -14 90 -14q35 0 45 6q20 9 20 29q0 21 -28 30q-16 5 -53 5q-31 0 -51 -4l21 64q28 4 57 4q78 0 111 -20q47 -26 47 -82q0 -57 -47 -83q-35 -19 -109 -19q-78 0 -126 18z" />
    <glyph glyph-name="uniF483" unicode="&#xf483;" horiz-adv-x="731" 
d="M55 700h637v-116l-446 -444h457v-140h-677v135l430 425h-401v140zM304 883q0 -26 17.5 -43.5t43.5 -17.5t43.5 17.5t17.5 43.5t-17.5 43.5t-43.5 17.5t-43.5 -17.5t-17.5 -43.5zM247 883q0 48 35 83t83 35t83 -35t35 -83t-35 -83t-83 -35t-83 35t-35 83z" />
    <glyph glyph-name="uniF484" unicode="&#xf484;" horiz-adv-x="575" 
d="M46 392v116h486v-109l-318 -283h333v-116h-521v106l325 286h-305zM226 684q0 -26 17.5 -43.5t43.5 -17.5t43.5 17.5t17.5 43.5t-17.5 43.5t-43.5 17.5t-43.5 -17.5t-17.5 -43.5zM169 684q0 48 35 83t83 35t83 -35t35 -83t-35 -83t-83 -35t-83 35t-35 83z" />
    <glyph glyph-name="uniF4C4" unicode="&#xf4c4;" horiz-adv-x="699" 
d="M257 560h-244v140h672v-140h-244v-560h-184v560zM205 -249l25 69q50 -14 91 -14q34 0 44 6q19 8 19 28q0 24 -27 31q-19 5 -48 5q-14 0 -58 -4l22 68q20 4 63 4q76 0 109 -21q47 -28 47 -86q0 -60 -48 -86q-34 -19 -110 -19q-80 0 -129 19z" />
    <glyph glyph-name="uniF4C5" unicode="&#xf4c5;" horiz-adv-x="575" 
d="M199 390h-186v118h548v-118h-186v-390h-176v390zM137 -242l23 66q45 -14 90 -14q35 0 45 6q20 9 20 29q0 21 -28 30q-16 5 -53 5q-31 0 -51 -4l21 64q28 4 57 4q78 0 111 -20q47 -26 47 -82q0 -57 -47 -83q-35 -19 -109 -19q-78 0 -126 18z" />
    <glyph glyph-name="uniF4C8" unicode="&#xf4c8;" horiz-adv-x="846" 
d="M626 245h192q-3 -74 -36 -128t-75 -83q-79 -55 -253 -55q-98 0 -174 19t-137 78q-101 94 -101 270q0 167 97 268q105 105 299 105q183 0 274 -62q37 -24 68 -72t33 -120h-192q-5 56 -52 86q-45 28 -118 28q-98 0 -151 -55q-58 -64 -58 -177q0 -117 60 -177
q53 -51 150 -51q83 0 122 27q48 33 52 99zM307 -249l25 69q50 -14 91 -14q34 0 44 6q19 8 19 28q0 24 -27 31q-19 5 -48 5q-14 0 -58 -4l22 68q20 4 63 4q76 0 109 -21q47 -28 47 -86q0 -60 -48 -86q-34 -19 -110 -19q-80 0 -129 19z" />
    <glyph glyph-name="uniF4C9" unicode="&#xf4c9;" horiz-adv-x="690" 
d="M652 328h-169q-3 44 -38 66q-29 19 -83 19q-69 0 -105 -41q-38 -43 -38 -123q0 -79 41 -120q34 -34 103 -34q57 0 83 20q37 26 38 76h170v-3q0 -81 -54 -139q-41 -43 -100 -55.5t-144 -12.5q-52 0 -88.5 3.5t-83.5 20.5t-78 48q-69 69 -69 193q0 125 68 197q78 84 246 84
q136 0 209 -43q92 -52 92 -156zM222 -242l23 66q45 -14 90 -14q35 0 45 6q20 9 20 29q0 21 -28 30q-16 5 -53 5q-31 0 -51 -4l21 64q28 4 57 4q78 0 111 -20q47 -26 47 -82q0 -57 -47 -83q-35 -19 -109 -19q-78 0 -126 18z" />
    <glyph glyph-name="uniF4CC" unicode="&#xf4cc;" horiz-adv-x="689" 
d="M367 343l148 357h184l-255 -536q-45 -96 -77 -124q-35 -33 -72.5 -43t-91.5 -10q-71 0 -119 17v137q31 -14 70 -14t60 13q6 3 10.5 7.5l7.5 7.5t6.5 9t5 8.5t4.5 9t3 7.5l8 19l-255 492h201zM302 910h165l-127 -144h-118z" />
    <glyph glyph-name="uniF4CD" unicode="&#xf4cd;" horiz-adv-x="599" 
d="M59 -177v109q28 -9 53 -9q39 0 60 17q23 19 38 61l10 30l-216 477h177l135 -339l118 339h165l-216 -517q-2 -5 -11 -25t-12 -26.5t-11 -22.5t-13 -24t-13.5 -18.5t-16.5 -18.5q-31 -29 -65 -38t-81 -9q-58 0 -101 14zM297 712h165l-127 -144h-118z" />
    <glyph glyph-name="dollar.fitted" unicode="&#xf5f5;" horiz-adv-x="729" 
d="M333 440v152h-5q-49 0 -71 -14q-33 -19 -33 -59q0 -37 33 -57q23 -15 76 -22zM404 293v-171q42 -5 76 21q32 25 32 63q0 41 -37 63q-27 16 -71 24zM27 227h188q-4 -48 30 -79q35 -31 87 -26v181q-29 4 -66.5 12t-92 29.5t-80.5 47.5q-47 47 -47 125q0 83 55 135
q74 68 224 68h6v75h76v-75q42 2 93 -8.5t87 -30.5q88 -54 88 -162v-3h-182q4 41 -30 61q-23 15 -60 15v-164q176 -25 246 -95q53 -53 53 -132q0 -90 -58 -148q-75 -75 -237 -71v-84h-76v84h-9q-136 0 -215 58q-80 64 -80 183v4z" />
    <glyph glyph-name="Euro.fitted" unicode="&#xf5f6;" horiz-adv-x="830" 
d="M592 260h-266q1 -68 48 -108q41 -32 120 -32q67 0 129 21q71 24 135 75v-179q-47 -20 -121 -39q-82 -18 -174 -18q-45 0 -78 3t-83 22.5t-87 54.5q-79 76 -85 202h-105l32 64h70v48h-99l31 66h75q15 113 95 193q93 86 272 86q110 0 177 -26q60 -23 111 -65l-76 -130
q-39 35 -80 55q-50 26 -124 26q-89 0 -133 -44q-37 -37 -44 -95h346l-31 -65h-324v-50h300z" />
    <glyph glyph-name="cent.fitted" unicode="&#xf5f7;" horiz-adv-x="671" 
d="M648 330h-170q-5 42 -36 65q-28 22 -83 22q-69 0 -106 -35q-44 -44 -44 -130q0 -83 39 -122q36 -38 105 -38q62 0 92 25q33 27 34 73h170q-1 -83 -59 -141q-66 -66 -194 -66v-87h-85v86q-60 -2 -116 17t-94 56q-74 68 -74 202q0 123 71 194q38 38 95.5 58t117.5 18v80h85
v-81q42 2 91 -10t81 -34q77 -55 80 -152z" />
    <glyph glyph-name="sterling.fitted" unicode="&#xf5f8;" horiz-adv-x="715" 
d="M614 170l57 -114q-74 -74 -176 -74q-64 0 -136 26q-80 31 -121 31q-60 0 -121 -43l-66 110q52 38 65 51q37 37 37 85q0 33 -18 66h-99v66h77q-41 54 -41 125q0 104 89 167q78 54 210 54q164 0 241 -75q63 -63 63 -172v-4h-176v3q0 47 -28 75q-32 32 -96 32q-57 0 -89 -27
q-30 -25 -30 -68q0 -27 15 -59q10 -20 14 -24t16 -27h155v-66h-138q22 -61 -14 -113q-16 -22 -40 -43l3 -6q40 18 82 18q30 0 88 -17q50 -16 83 -16q57 0 94 39z" />
    <glyph glyph-name="yen.fitted" unicode="&#xf5f9;" horiz-adv-x="825" 
d="M412 404l182 296h208l-298 -421v-25h118v-61h-118v-44h118v-61h-118v-88h-184v88h-118v61h118v44h-118v61h118v25l-297 421h208z" />
    <glyph glyph-name="florin.fitted" unicode="&#xf5fa;" horiz-adv-x="660" 
d="M603 508l-30 -114h-128l-105 -413q-22 -87 -59 -124q-30 -30 -67.5 -39t-89.5 -9q-62 0 -110 13l25 101q24 -6 45 -6q39 0 56 17q18 18 29 61l102 398h-113l30 115h112l8 29q22 78 55 111q52 52 165 52q52 0 121 -13l-26 -102q-25 7 -54 7q-39 0 -59 -15q-23 -20 -31 -50
l-5 -19h129z" />
    <glyph glyph-name="currency.fitted" unicode="&#xf5fe;" horiz-adv-x="735" 
d="M367 528q-88 0 -139 -55q-56 -59 -56 -140t56 -140q51 -55 139 -55t139 55q56 59 56 140t-56 140q-51 55 -139 55zM30 68l94 95q-54 74 -54 169q0 94 53 169l-95 95l72 74l92 -97q72 57 175 57q100 0 174 -57l95 95l67 -75l-91 -92q52 -74 52 -167q0 -95 -50 -167l94 -99
l-73 -70l-94 95q-74 -58 -174 -58q-96 0 -174 57l-93 -95z" />
    <glyph glyph-name="numbersign.fitted" unicode="&#xf5ff;" horiz-adv-x="778" 
d="M459 268l37 176h-176l-36 -176h175zM501 21h-90l29 157h-174l-31 -157h-90l31 157h-154l18 90h153l36 176h-155l19 90h153l29 146h90l-28 -146h174l29 146h90l-28 -146h154l-17 -90h-153l-36 -176h155l-20 -90h-154z" />
    <glyph glyph-name="uniF639" unicode="&#xf639;" horiz-adv-x="800" 
d="M760 351q0 -182 -96 -276q-92 -89 -264 -89t-264 89q-96 94 -96 276q0 184 96 277q92 89 264 89t264 -89q96 -93 96 -277zM400 581q-61 0 -98 -34q-64 -59 -64 -196q0 -138 64 -196q38 -34 98 -34q62 0 98 34q64 59 64 196t-64 196q-37 34 -98 34z" />
    <glyph glyph-name="uniF63A" unicode="&#xf63a;" horiz-adv-x="728" 
d="M672 142v-142h-630v5q0 65 16 117.5t67 99.5q44 42 152 95l78 38q9 4 30 14t30.5 14.5t22.5 12.5t23 16q37 31 37 73q0 51 -42 75q-29 19 -92 19q-66 0 -99 -28q-34 -31 -34 -79v-7h-182v4q0 119 84 187q78 61 234 61q147 0 228 -56q89 -62 89 -176q0 -85 -53 -135
q-12 -11 -29.5 -22t-28.5 -16t-36.5 -17t-31.5 -15l-62 -29q-87 -42 -117 -61q-31 -20 -40 -48h386z" />
    <glyph glyph-name="uniF63B" unicode="&#xf63b;" horiz-adv-x="737" 
d="M38 233h180v-4q0 -54 36 -82q34 -25 106 -25q71 0 104 19q41 23 41 74q0 48 -51 68q-29 11 -120 11h-38v124h39q101 0 130 25q23 20 23 53q0 43 -42 64q-33 17 -92 17q-61 0 -95 -25q-37 -27 -37 -75h-180v3q0 65 25 109.5t56 67.5q74 58 230 58q147 0 224 -46
q95 -57 95 -167q0 -61 -36 -97q-33 -33 -83 -38v-5q61 -7 101 -47q43 -43 43 -111q0 -90 -53 -145q-42 -45 -105 -60t-161 -15q-100 0 -167.5 13.5t-112.5 60.5q-60 65 -60 172v3z" />
    <glyph glyph-name="uniF63C" unicode="&#xf63c;" horiz-adv-x="734" 
d="M171 281h233v254zM404 151h-392v128l398 421h176v-419h118v-130h-118v-151h-182v151z" />
    <glyph glyph-name="uniF63D" unicode="&#xf63d;" horiz-adv-x="719" 
d="M42 206h176q4 -44 38 -69q34 -24 99 -24q69 0 102 31q37 31 37 98q0 58 -34 88q-37 33 -108 33q-51 0 -80 -16q-29 -15 -42 -48h-184l55 401h525v-136h-404l-22 -140q28 28 72 45q44 16 113 16q155 0 229 -72q64 -64 64 -178q0 -115 -70 -183q-33 -32 -82.5 -48.5
t-80 -18.5t-78.5 -2q-166 0 -235 44q-90 55 -90 176v3z" />
    <glyph glyph-name="uniF63E" unicode="&#xf63e;" horiz-adv-x="742" 
d="M371 365q-67 0 -104 -32q-41 -38 -41 -96q0 -56 39 -93q38 -33 106 -33q71 0 109 33q39 35 39 94t-39 94q-39 33 -109 33zM699 515h-180q-5 37 -40 57q-30 16 -89 16q-79 0 -122 -38q-31 -28 -43 -71t-12 -76q60 72 192 72q137 0 213 -58q83 -65 83 -183q0 -122 -86 -190
q-35 -27 -80.5 -41.5t-76 -17t-77.5 -2.5q-55 0 -89.5 3.5t-82 22.5t-83.5 55q-86 86 -86 259q0 201 90 299q52 57 116.5 75.5t142.5 18.5q147 0 218 -41q92 -54 92 -160z" />
    <glyph glyph-name="uniF63F" unicode="&#xf63f;" horiz-adv-x="660" 
d="M34 564v136h607v-115q-72 -64 -124 -137t-80 -135q-66 -139 -76 -313h-197q22 195 100 329q72 131 189 235h-419z" />
    <glyph glyph-name="uniF640" unicode="&#xf640;" horiz-adv-x="760" 
d="M380 -17q-86 0 -143.5 8t-101.5 35q-94 57 -94 171q0 76 46 122q41 41 108 54q-52 7 -87 39q-39 36 -39 101q0 119 102 167q10 6 30 13t69.5 15t109.5 8q147 0 210 -36q102 -50 102 -167q0 -65 -39 -101q-35 -32 -87 -39q67 -13 108 -54q46 -46 46 -122q0 -114 -94 -171
q-44 -27 -101.5 -35t-144.5 -8zM381 302q-66 0 -104 -16q-50 -22 -50 -71q0 -48 41 -77q36 -25 113 -25t113 25q41 29 41 77q0 49 -50 71q-38 16 -104 16zM378 588q-54 0 -90 -17q-46 -22 -46 -68q0 -44 38 -65q29 -18 100 -18q72 0 101 18q38 21 38 65q0 46 -46 68
q-35 17 -95 17z" />
    <glyph glyph-name="uniF641" unicode="&#xf641;" horiz-adv-x="742" 
d="M370 334q70 0 107 33q39 35 39 97q0 60 -37 91q-37 33 -109 33q-71 0 -109 -33q-39 -37 -39 -95t39 -93q38 -33 109 -33zM58 184h176q2 -38 39 -57q21 -16 90 -16q75 0 111 33q48 46 54 152q-60 -72 -191 -72q-141 0 -214 58q-83 65 -83 183q0 122 86 190
q35 27 80.5 41.5t76 17t76.5 2.5q81 0 142.5 -15.5t113.5 -65.5q86 -89 86 -259q0 -227 -101 -322q-47 -44 -104 -57.5t-133 -13.5q-142 0 -213 41q-88 53 -92 160z" />
    <glyph glyph-name="uniF6BA" unicode="&#xf6ba;" horiz-adv-x="569" 
d="M80 296v125h409v-125h-409z" />
    <glyph glyph-name="uniF6BB" unicode="&#xf6bb;" horiz-adv-x="713" 
d="M50 392h613v-68h-613v68z" />
    <glyph glyph-name="uniF6BC" unicode="&#xf6bc;" horiz-adv-x="921" 
d="M50 324v68h821v-68h-821z" />
    <glyph glyph-name="uniF6C3" unicode="&#xf6c3;" horiz-adv-x="381" 
d="M106 -61h163v-88q0 -64 -34 -100q-40 -43 -126 -43h-3v66h5q35 0 54 9q30 13 32 46h-91v110z" />
    <glyph glyph-name="uniF6C9" unicode="&#xf6c9;" horiz-adv-x="345" 
d="M130 910h165l-127 -144h-118z" />
    <glyph glyph-name="uniF6CA" unicode="&#xf6ca;" horiz-adv-x="596" 
d="M299 808l106 90h141l-142 -132h-211l-143 132h142z" />
    <glyph glyph-name="uniF6CB" unicode="&#xf6cb;" horiz-adv-x="522" 
d="M313 766v111h155v-111h-155zM50 766v111h154v-111h-154z" />
    <glyph glyph-name="uniF6CE" unicode="&#xf6ce;" horiz-adv-x="345" 
d="M215 910l80 -144h-118l-127 144h165z" />
    <glyph glyph-name="uniF6CF" unicode="&#xf6cf;" horiz-adv-x="546" 
d="M338 904h163l-116 -138h-121zM116 904h156l-115 -138h-115z" />
    <glyph glyph-name="uniF6D0" unicode="&#xf6d0;" horiz-adv-x="468" 
d="M50 766v91h368v-91h-368z" />
    <glyph glyph-name="uniF6D1" unicode="&#xf6d1;" horiz-adv-x="555" 
d="M378 897h127q1 -62 -43 -100q-55 -48 -184 -48q-134 0 -184 48q-44 40 -44 100h128q-1 -37 25 -54q19 -16 75 -16q55 0 74 16q26 21 26 54z" />
    <glyph glyph-name="uniF6D4" unicode="&#xf6d4;" horiz-adv-x="532" 
d="M354 721h128q3 -54 -37 -99q-21 -21 -55 -32.5t-59.5 -13.5t-64.5 -2t-64.5 2t-59.5 13.5t-55 32.5q-40 45 -37 99h128q-1 -36 21 -54q20 -17 67 -17t67 17q22 18 21 54z" />
    <glyph glyph-name="uniF6DC" unicode="&#xf6dc;" horiz-adv-x="383" 
d="M5 494v84h6q78 0 124 33q43 31 55 89h139v-700h-184v494h-140z" />
    <glyph glyph-name="uniF6DE" unicode="&#xf6de;" horiz-adv-x="690" 
d="M37 233v68h616v-68h-616z" />
    <glyph glyph-name="uni03A9.001" horiz-adv-x="908" 
d="M40 0v140h200v19q-100 24 -154 98q-46 62 -46 153q0 147 116 232q52 38 117 57q73 21 181 21q187 0 294 -75q47 -34 74 -75q46 -70 46 -160q0 -176 -162 -239q-16 -7 -38 -12v-19h200v-140h-345v243q83 11 122 74q23 38 23 83q0 51 -23 90q-13 20 -33 40q-56 50 -158 50
q-58 0 -97 -14q-35 -14 -59 -35q-58 -53 -58 -131q0 -45 23 -83q39 -63 122 -74v-243h-345z" />
    <glyph glyph-name="Tonos" horiz-adv-x="268" 
d="M84 700h194l-130 -192h-98z" />
    <glyph glyph-name="dotlessi1" horiz-adv-x="302" 
d="M61 508h176v-508h-176v508z" />
    <glyph glyph-name="mu1" horiz-adv-x="696" 
d="M259 -185h-174v693h176v-255q0 -87 31 -123q31 -37 82 -37q52 0 80 34q34 39 34 127v254h176v-508h-174v62q-11 -29 -36 -54q-32 -27 -81 -27q-55 0 -85 30q-17 17 -29 44v-240z" />
    <glyph glyph-name="uni021B" horiz-adv-x="438" 
d="M13 400v108h108v151h176v-151h118v-108h-118v-222q0 -44 14 -58q17 -17 54 -17q30 0 52 8v-110q-53 -16 -120 -16q-97 0 -139 39q-37 34 -37 110v266h-108zM181 -61h163v-88q0 -64 -34 -100q-40 -43 -126 -43h-3v66h5q35 0 54 9q30 13 32 46h-91v110z" />
    <glyph glyph-name="uni021A" horiz-adv-x="699" 
d="M257 560h-244v140h672v-140h-244v-560h-184v560zM265 -61h163v-88q0 -64 -34 -100q-40 -43 -126 -43h-3v66h5q35 0 54 9q30 13 32 46h-91v110z" />
    </font>
</defs>
</svg>
